<svg id="Layer_1" data-name="Layer 1" xmlns="http://www.w3.org/2000/svg" viewBox="0 0 271.68 131.3"><rect x="3.5" y="3.5" width="264.68" height="124.3" fill="#fff" stroke="#008083" stroke-miterlimit="10" stroke-width="7"/><circle cx="28.02" cy="97.72" r="4.58" fill="#fff" stroke="#008083" stroke-miterlimit="10" stroke-width="7"/><circle cx="28.02" cy="97.72" r="2.51" fill="none" stroke="#fff" stroke-miterlimit="10" stroke-width="3"/><circle cx="27.61" cy="37.59" r="4.58" fill="#fff" stroke="#008083" stroke-miterlimit="10" stroke-width="7"/><circle cx="27.61" cy="37.59" r="2.51" fill="none" stroke="#fff" stroke-miterlimit="10" stroke-width="3"/><path d="M240,71.11l8.46-5.71a50.69,50.69,0,0,0,4.63-4c.2-.08.39,0,.59.35a19.3,19.3,0,0,1-2,3.61,11.2,11.2,0,0,1-2.93,3L245.4,71l-8.88,6c-1.64,1.13-2.6,2.2-2.87,3.19-.12,3.25-.25,6.49-.41,9.73a32.37,32.37,0,0,1-1.52,9.23,10.65,10.65,0,0,1-4.18,5.27,10.2,10.2,0,0,1-6.43,1.94,5.6,5.6,0,0,1-2.87-1,24.21,24.21,0,0,1-8,4,69.39,69.39,0,0,1-17.34,2.46,40,40,0,0,1-9-1q-3.33-.77-3.83-3.67a16.23,16.23,0,0,1-.24-2.81,34.43,34.43,0,0,1,.91-6.65,1.58,1.58,0,0,1,.41-.35c.31-.14.56,0,.73.53v2.69a2.74,2.74,0,0,0,1.14,2.23,22.42,22.42,0,0,0,7.56,1.73c1.08.08,3.77.11,8.09.11a55.1,55.1,0,0,0,17-2.25l.06-.15a8.33,8.33,0,0,1-.56-3,10.37,10.37,0,0,1,2.7-6.92,4.92,4.92,0,0,1,4.1-2,3.55,3.55,0,0,1,3,2,6.8,6.8,0,0,1,.35,2.17,9.91,9.91,0,0,1-1.49,4.92c-.47.69-1.22,1.71-2.23,3.08a7.16,7.16,0,0,0,1.26.11,10.21,10.21,0,0,0,6-2.28c1-.76,1.72-2.34,2.06-4.75a31.86,31.86,0,0,0,.17-3.48q0-.82-.06-2.52V87a21.62,21.62,0,0,1,.71-6.07A32.47,32.47,0,0,1,233.59,77a10.11,10.11,0,0,1,2.87-3.34ZM216.07,82.68v-.23c1-1.1,2.39-2.62,4.31-4.57l.44.17a39.09,39.09,0,0,0,4.3,3.72l-.11.47a25,25,0,0,1-3.9,4.28c-.64.12-1.56-.38-2.75-1.49A18.55,18.55,0,0,1,216.07,82.68Zm6.07,11.93a2.65,2.65,0,0,0-1.94-.53,3.9,3.9,0,0,0-3,2.22,9.83,9.83,0,0,0-.05,1.09,5.65,5.65,0,0,0,1.43,3.84.83.83,0,0,0,.32-.06.69.69,0,0,1,.21-.06q3.54-2,3.72-3.93A2.25,2.25,0,0,0,222.14,94.61Z" transform="translate(-120.3 -33.85)" fill="#008082"/><path d="M294.62,84.85a4.37,4.37,0,0,1-4.28,2.69.67.67,0,0,0-.65,0c.08,1,.12,2,.12,2.93A37.06,37.06,0,0,1,284,110.22a20.58,20.58,0,0,1-6.12,6.53,13.69,13.69,0,0,1-8.38,2.41q-5-.24-7.38-5.22a16.19,16.19,0,0,1-1.44-7.15,43.83,43.83,0,0,1,1.44-10,35.63,35.63,0,0,1,1.78-5c0-.19.27-.25.68-.17a3.73,3.73,0,0,1,0,1.32,38.62,38.62,0,0,0-1.64,9.49,11.2,11.2,0,0,0,1.81,6.59q2,2.74,6.36,2.75a15.59,15.59,0,0,0,8.47-2.52,17.91,17.91,0,0,0,6-6.63A19.55,19.55,0,0,0,288,93.4a33.7,33.7,0,0,0-.59-6.88,32.08,32.08,0,0,1,.59-4.28.94.94,0,0,1,.49-.11,1,1,0,0,1,.36.73c0,.35.12.54.26.58s.53.11,1.17.21a2.38,2.38,0,0,0,1.08,0A3.53,3.53,0,0,0,294,82c.08-.27.18-.57.31-.89a.71.71,0,0,1,.72-.49,3.71,3.71,0,0,0,.73,1.38q3-.47,4.54-4.19c.45-.45.73-.47.85-.06a9.44,9.44,0,0,1-2,5.27,3.82,3.82,0,0,1-3.28,1.88.74.74,0,0,1-.52-.13,1.14,1.14,0,0,0-.45-.19C294.79,84.53,294.69,84.63,294.62,84.85Z" transform="translate(-120.3 -33.85)" fill="#008082"/><path d="M307.92,110.57l-3.55.68c-.35,0-.56-.13-.64-.39s.23-.64.82-1q3.13-1.87,4.63-2.9a36.56,36.56,0,0,0,4.3-3.22,18.34,18.34,0,0,0,3.31-5.83q.79-2.17,2.29-6.48a.75.75,0,0,1,.79-.5c.35,0,.53.17.53.5a20.15,20.15,0,0,1-1,5.22A45.1,45.1,0,0,1,315,108.11a4,4,0,0,1-3.2,2C310.94,110.18,309.64,110.34,307.92,110.57Z" transform="translate(-120.3 -33.85)" fill="#008082"/><path d="M348.32,88.19,348.2,88c-.88-.35-3.11-1.49-6.71-3.42a1.82,1.82,0,0,0-.79-.18,4.48,4.48,0,0,0-3,2.07c-.31.45-.61.68-.93.68a.62.62,0,0,1-.32-.14.53.53,0,0,1-.2-.44,1.42,1.42,0,0,1,.35-.78,3.37,3.37,0,0,0,.41-.66,16.09,16.09,0,0,1,1.81-2.34,3.81,3.81,0,0,1,2.47-1.26,7.18,7.18,0,0,1,3.57,1l3.31,1.78c1.11.41,2.75,1.1,4.92,2,.08,0,.12.26.12.65-1,.64-2.3,1.67-4,3.07a55.85,55.85,0,0,0-5.78,5.63,30.22,30.22,0,0,1-6.06,5.36,39.89,39.89,0,0,1-3.22,7.73,4.51,4.51,0,0,1-3.78,2.14l-4.69.27a13.9,13.9,0,0,1-3.37.29c-.23-.16-.25-.38-.06-.67a14.42,14.42,0,0,1,3.72-2c.26-.15,1.84-.78,4.75-1.87a7.82,7.82,0,0,0,3.95-2.87,2.5,2.5,0,0,0-.82-2.46c-2,.15-3.3-.36-4-1.55a3.35,3.35,0,0,1-.29-1.38,14.88,14.88,0,0,1,1.49-4.28c.33-.84.71-1.69,1.13-2.55a2.42,2.42,0,0,1,1.95-1.46,2.69,2.69,0,0,1,2.52,1.49,16.87,16.87,0,0,1,1.37,5s.19-.06.68-.06a28.05,28.05,0,0,0,5-3.89Zm.91,28.33a23.25,23.25,0,0,1-4.87-3.43l-3,3.49a7.68,7.68,0,0,1-5.24-3.84,43.17,43.17,0,0,1,4-4.69,50.55,50.55,0,0,0,4.72,3.61l3.66-3.78q3.38,2.75,5.1,4C351.6,114,350.14,115.56,349.23,116.52Zm-3.43,8.7a7.47,7.47,0,0,1-5.16-3.78c2.4-2.75,3.74-4.26,4-4.51a52.55,52.55,0,0,0,5.09,3.84Z" transform="translate(-120.3 -33.85)" fill="#008082"/></svg>