<svg id="Layer_1" data-name="Layer 1" xmlns="http://www.w3.org/2000/svg" viewBox="0 0 321.41 346.49"><path d="M413.2,84.5v343H98.8V84.5" transform="translate(-95.3 -84.5)" fill="#fff" stroke="#008083" stroke-miterlimit="10" stroke-width="7"/><line x1="6.61" y1="59.65" x2="314.8" y2="59.65" fill="none" stroke="#008083" stroke-miterlimit="10" stroke-width="7"/><path d="M163.92,296.58a1.19,1.19,0,0,1,1.64-.07q1.24,1.1,3.45,2.75,1,.76,1,1c0,.15-.13.42-.47.81-.81.92-1.85,2-3.12,3.33l-.84.92a3.57,3.57,0,0,1-2.64-1,14.68,14.68,0,0,1-3-3.19,7.93,7.93,0,0,1,1.47-1.83l.55-.55C163.26,297.36,163.92,296.63,163.92,296.58Z" transform="translate(-95.3 -84.5)" fill="#008083"/><path d="M191.35,293c.51-.61.84-.91,1-.91s.5.25,1.07.77a24.22,24.22,0,0,0,5,4c.1,0,.4-.3.92-.88a26.78,26.78,0,0,1,3.36-3.56c.1,0,.38.21.85.63a52,52,0,0,0,4.87,3.92c.07,0,.09.19.07.43a6.87,6.87,0,0,1-1.28,1.87l-.51.59a36.71,36.71,0,0,1-2.79,3.19,1.34,1.34,0,0,1-.62.1c-.76,0-1.89-.67-3.41-2a13.54,13.54,0,0,1-2.08-2.2c-.15-.27-.28-.41-.41-.44a16.09,16.09,0,0,0-1.94,2.09,27.16,27.16,0,0,1-2,2.16,2.52,2.52,0,0,1-1.69-.4,13.94,13.94,0,0,1-3.33-2.64c-.86-.9-1.28-1.46-1.28-1.68A59.53,59.53,0,0,1,191.35,293Z" transform="translate(-95.3 -84.5)" fill="#008083"/><path d="M217.75,279.55a1.21,1.21,0,0,1,1.65-.07c.83.73,2,1.65,3.44,2.75q1,.76,1,1c0,.15-.13.42-.47.81q-1.21,1.4-3.11,3.33l-.85.92a3.54,3.54,0,0,1-2.63-1,14.22,14.22,0,0,1-3-3.19,7.63,7.63,0,0,1,1.46-1.83l.55-.55C217.09,280.33,217.75,279.6,217.75,279.55Z" transform="translate(-95.3 -84.5)" fill="#008083"/><path d="M212,252.93a3.51,3.51,0,0,1,3.07-.07,16.29,16.29,0,0,1,3.92,2.45l.73.59a22,22,0,0,0,6.92,4.21,2,2,0,0,1,.88.51.63.63,0,0,1-.47.81q-2.94,1.5-12.64,8L212.22,271a7.47,7.47,0,0,1-3.74,1.76,4.86,4.86,0,0,1-3.18-1c-.2-.14-.32-.2-.37-.18a1.81,1.81,0,0,0-.33.48,10.11,10.11,0,0,1-4.87,4.68,22.75,22.75,0,0,1-5.64.63l-1.83,0-.55.77q-4.32,5.56-13.37,7.25a77.56,77.56,0,0,1-24.93,2.09c-3.72-.37-6.24-.89-7.58-1.57a4.66,4.66,0,0,1-2.71-3.52,33.38,33.38,0,0,1,.73-12.08c.44-.39.82-.32,1.13.21a7.63,7.63,0,0,1,.22,2.2,10.37,10.37,0,0,0,.22,2.82,3.91,3.91,0,0,0,2.42,1.72q9.78,2.39,23.88,1.61a68.47,68.47,0,0,0,15.45-2.6,10.48,10.48,0,0,0,7-5.6,2,2,0,0,1,1.24-1q.33,1.32-1,3.81l-.59,1.28a10.79,10.79,0,0,0,8.43-3.33,12.12,12.12,0,0,0,2.34-3.81,10.47,10.47,0,0,1,1-2c.44-.12.72,0,.84.25a2.62,2.62,0,0,0,1,1.8,5.51,5.51,0,0,0,3.84.29,28.74,28.74,0,0,0,7.36-4.54,15.27,15.27,0,0,0,1.8-1.5q-2.2-1.5-5.68-4.32a8.59,8.59,0,0,0-2.93-1.83,2.45,2.45,0,0,0-2.09.62l-1.06.92a14.06,14.06,0,0,1-1.5,1.28c-.32.07-.51-.08-.59-.44s.5-1.08,1.5-2.2A11.93,11.93,0,0,1,212,252.93Z" transform="translate(-95.3 -84.5)" fill="#008083"/><path d="M296,254.36q-1.35,3.22-5.35,3.37a.76.76,0,0,0-.8,0q.15,1.86.15,3.66a46.35,46.35,0,0,1-7.22,24.68,25.62,25.62,0,0,1-7.65,8.17,17,17,0,0,1-10.48,3q-6.22-.28-9.22-6.52a20.23,20.23,0,0,1-1.8-8.93,54.6,54.6,0,0,1,1.8-12.45,44.81,44.81,0,0,1,2.23-6.3c.05-.25.33-.32.84-.22a4.1,4.1,0,0,1,0,1.65,48.52,48.52,0,0,0-2.05,11.86,14,14,0,0,0,2.27,8.24c1.64,2.3,4.29,3.44,7.95,3.44a19.47,19.47,0,0,0,10.58-3.15,22.32,22.32,0,0,0,7.53-8.29,24.34,24.34,0,0,0,2.94-11.52,41,41,0,0,0-.73-8.6,41.42,41.42,0,0,1,.73-5.35.67.67,0,0,1,1.07.77c.05.44.16.68.33.73s.66.14,1.46.26a3,3,0,0,0,1.36,0,4.4,4.4,0,0,0,3.29-2.13q.15-.51.39-1.11a.87.87,0,0,1,.89-.61,4.78,4.78,0,0,0,.92,1.72q3.74-.58,5.68-5.23c.56-.56.91-.59,1.06-.08a11.87,11.87,0,0,1-2.49,6.6,4.76,4.76,0,0,1-4.1,2.34.85.85,0,0,1-.64-.17,1.8,1.8,0,0,0-.57-.23C296.19,254,296.07,254.09,296,254.36Z" transform="translate(-95.3 -84.5)" fill="#008083"/><path d="M312.6,286.51l-4.43.84c-.44,0-.71-.15-.81-.47s.29-.81,1-1.25q3.92-2.34,5.78-3.62a46,46,0,0,0,5.38-4,22.82,22.82,0,0,0,4.14-7.29q1-2.7,2.86-8.09a.93.93,0,0,1,1-.62c.44,0,.66.2.66.62q.14,1.42-1.21,6.52a56.42,56.42,0,0,1-5.53,14.32,5.08,5.08,0,0,1-4,2.49C316.37,286,314.75,286.22,312.6,286.51Z" transform="translate(-95.3 -84.5)" fill="#008083"/><path d="M363.1,258.53l-.15-.22q-1.65-.65-8.38-4.28a2.3,2.3,0,0,0-1-.22,4.37,4.37,0,0,0-2.93,1.57,4.63,4.63,0,0,0-.79,1c-.38.58-.76.86-1.15.86a.81.81,0,0,1-.41-.18.63.63,0,0,1-.25-.55,1.8,1.8,0,0,1,.44-1,4.35,4.35,0,0,0,.51-.82,18.68,18.68,0,0,1,2.27-2.93,4.69,4.69,0,0,1,3.08-1.58,9,9,0,0,1,4.46,1.21l4.14,2.23c1.39.52,3.44,1.37,6.15,2.57.1,0,.15.31.15.8q-1.8,1.22-5,3.85a69.79,69.79,0,0,0-7.21,7,38.3,38.3,0,0,1-7.58,6.7,50,50,0,0,1-4,9.67c-.85,1.54-2.43,2.43-4.72,2.67l-5.86.33a17.39,17.39,0,0,1-4.21.37c-.3-.2-.32-.48-.08-.85a18.07,18.07,0,0,1,4.65-2.52q.48-.3,5.94-2.35a9.81,9.81,0,0,0,4.94-3.58,3.14,3.14,0,0,0-1-3.08c-2.46.19-4.12-.45-5-1.94a4.35,4.35,0,0,1-.36-1.72q0-1.22,1.87-5.35c.41-1.05.88-2.11,1.4-3.19a3.08,3.08,0,0,1,2.44-1.83c1.15-.14,2.2.48,3.15,1.87.54.81,1.11,2.88,1.72,6.23,0,0,.23-.08.84-.08a34.24,34.24,0,0,0,6.23-4.87C359.28,262.44,361.19,260.49,363.1,258.53ZM364.23,294a29.79,29.79,0,0,1-6.08-4.29L354.42,294a9.63,9.63,0,0,1-6.56-4.8,55.44,55.44,0,0,1,5-5.86,60.62,60.62,0,0,0,5.9,4.51l4.58-4.73c2.8,2.3,4.93,4,6.37,5Q366,292.15,364.23,294ZM360,304.82a9.31,9.31,0,0,1-6.45-4.72q4.51-5.16,5-5.64a66.3,66.3,0,0,0,6.37,4.8Z" transform="translate(-95.3 -84.5)" fill="#008083"/></svg>