<svg id="Layer_1" data-name="Layer 1" xmlns="http://www.w3.org/2000/svg" viewBox="0 0 167.08 429.93"><rect x="113.69" y="3.5" width="49.89" height="422.93" fill="#fff" stroke="#008083" stroke-miterlimit="10" stroke-width="7"/><path d="M22.6,359.19q1.47.19,6.69.2a21.59,21.59,0,0,1,6.69.83v-.39c-2-2.09-2.91-4-2.78-5.72.32-1.33.84-2.14,1.54-2.41a5,5,0,0,1,1.83-.42,6.74,6.74,0,0,1,4.2,1.81q.43.44,3.51,3.41a8.37,8.37,0,0,1,1.42,3.91c.32,2.74.5,4.2.54,4.4s.17.89.43,2.1a5.17,5.17,0,0,1,0,2.09.55.55,0,0,1-.68.1,4.21,4.21,0,0,1-1.81-2.39q-5.8-4.2-8.88-4.1a64.67,64.67,0,0,0-8.21.19,46.55,46.55,0,0,1-5.51-2.68.55.55,0,0,1-.3-.44c0-.26.17-.46.49-.59A1.24,1.24,0,0,1,22.6,359.19ZM38,355.09a1.52,1.52,0,0,0-.58.83,4.9,4.9,0,0,0,1.9,4.49q.59.49,4.3,2.88c-.39-1.4-.84-2.83-1.34-4.29a7.33,7.33,0,0,0-2.18-3.37Q38.37,354.9,38,355.09Zm6.89-21.78c1.07.13,3,1.06,5.71,2.78q4.94,3.14,4.93,6.6a7,7,0,0,1-.75,2.61,6.89,6.89,0,0,0-.76,2.51,3.1,3.1,0,0,0,.68,1.81q4.5,5.86,10.21,6c1.4-.43,2.39-1.66,3-3.71.75-2.35,1.56-3.84,2.44-4.5a12,12,0,0,1,7.18-2,42.4,42.4,0,0,1,9.42,1.47,43.42,43.42,0,0,1,16.26,8q8.2,6.3,10.84,14.51a16.09,16.09,0,0,1,.78,5,12.85,12.85,0,0,1-5.08,10.79Q103.52,389.9,94,389.9q-7.81,0-19.48-3.41Q68.89,384.83,61,381.8a4.48,4.48,0,0,1-.58-1.08.68.68,0,0,1,.68-.43,1.63,1.63,0,0,1,.83,0l.68.09q16.22,4.94,23,4.93a24.35,24.35,0,0,0,12.21-3q4.68-3.66,4.69-10.5a22.5,22.5,0,0,0-4.35-13,25.24,25.24,0,0,0-10.74-9q-3.42-1.52-5.13,0-.88,1-2.1,5A6.55,6.55,0,0,1,77.09,359a11,11,0,0,1-5,1l-6.34-.54q-12.06-3.08-17.29-11.57a5.08,5.08,0,0,1-.58-2.39A11.17,11.17,0,0,1,49.21,341a3.61,3.61,0,0,0,.1-.83q0-1.27-3.22-4.11c-1.27-1.07-1.91-1.74-1.91-2S44.41,333.51,44.87,333.31Zm56.74,15.09H101l-7.57-7,.3-.83q2.3-2.4,6.2-7.38v-.48l-5.81-4.94a2.27,2.27,0,0,1,0-1,71.31,71.31,0,0,0,6.39-7.42c.33-.07,1,.24,2,.92l5.71,5.28a1.88,1.88,0,0,1,.39,1.22,16.88,16.88,0,0,1-6.4,7.76c1.21,1.14,3,2.82,5.28,5a1.46,1.46,0,0,1,.53,1.07,3.24,3.24,0,0,1-.83,1.91,12.23,12.23,0,0,0-1.27,1.81A30.13,30.13,0,0,1,101.61,348.4Zm15-6.69H116q-2.34-2.29-7.32-6.49l.19-.83q3.42-3.57,5.91-6.6l.68.1a40.94,40.94,0,0,1,3.71,3.22,21,21,0,0,1,3.23,3.81A19,19,0,0,1,116.6,341.71Z" transform="translate(-21.28 -41.04)" fill="#008082"/><path d="M57.61,233.07c2.87,1.2,4.36,3.58,4.49,7.13a1.06,1.06,0,0,0,0,1.07c1.66-.13,3.29-.19,4.89-.19a61.83,61.83,0,0,1,32.91,9.61,34.32,34.32,0,0,1,10.89,10.21,22.73,22.73,0,0,1,4,14q-.39,8.31-8.69,12.31a27.18,27.18,0,0,1-11.92,2.39,73.48,73.48,0,0,1-16.6-2.39,61.32,61.32,0,0,1-8.4-3c-.32-.06-.42-.44-.29-1.12a5.61,5.61,0,0,1,2.2,0q10.11,2.73,15.82,2.73a18.65,18.65,0,0,0,11-3q4.59-3.27,4.59-10.59a26,26,0,0,0-4.2-14.11,29.81,29.81,0,0,0-11.06-10,32.64,32.64,0,0,0-15.36-3.93,55.17,55.17,0,0,0-11.47,1,55.25,55.25,0,0,1-7.13-1,.89.89,0,0,1,1-1.41c.59-.07.91-.21,1-.44s.18-.88.34-2a4.08,4.08,0,0,0,0-1.8,5.92,5.92,0,0,0-2.83-4.4c-.46-.13-1-.3-1.49-.51a1.18,1.18,0,0,1-.81-1.2,6.23,6.23,0,0,0,2.3-1.22q-.78-5-7-7.57c-.75-.74-.79-1.22-.1-1.41q4,0,8.79,3.32A6.34,6.34,0,0,1,57.61,231a1.13,1.13,0,0,1-.22.85,2.09,2.09,0,0,0-.31.76C57.08,232.77,57.25,232.94,57.61,233.07Z" transform="translate(-21.28 -41.04)" fill="#008082"/><path d="M100.48,210.9l1.13,5.91c0,.58-.21.94-.64,1.07s-1.07-.39-1.66-1.37q-3.12-5.22-4.83-7.71a61.57,61.57,0,0,0-5.37-7.18,30.73,30.73,0,0,0-9.72-5.52q-3.61-1.31-10.79-3.8a1.26,1.26,0,0,1-.83-1.32c0-.59.28-.88.83-.88q1.91-.19,8.69,1.61,11.82,3.07,19.09,7.37a6.72,6.72,0,0,1,3.32,5.33C99.83,205.87,100.09,208,100.48,210.9Z" transform="translate(-21.28 -41.04)" fill="#008082"/><path d="M63.18,143.57l-.29.19Q62,146,57.17,154.94a3.24,3.24,0,0,0-.29,1.32q0,1.81,2.1,3.91a6.44,6.44,0,0,0,1.34,1.05c.77.5,1.15,1,1.15,1.53a1,1,0,0,1-.24.54.85.85,0,0,1-.74.34,2.47,2.47,0,0,1-1.29-.58,5.8,5.8,0,0,0-1.1-.69,25.9,25.9,0,0,1-3.91-3,6.33,6.33,0,0,1-2.1-4.1,12.16,12.16,0,0,1,1.62-6l3-5.52c.69-1.85,1.83-4.59,3.42-8.2.07-.13.43-.2,1.08-.2q1.6,2.4,5.12,6.69a91.15,91.15,0,0,0,9.38,9.62q6.39,5.91,8.93,10.11a65.76,65.76,0,0,1,12.89,5.37c2.06,1.14,3.24,3.24,3.57,6.3.16,2.6.31,5.21.44,7.81a23.52,23.52,0,0,1,.49,5.62c-.26.39-.64.42-1.13.09a24,24,0,0,1-3.37-6.2c-.25-.42-1.3-3.06-3.12-7.91q-1.8-4.68-4.79-6.59c-1.92-.19-3.28.26-4.1,1.37q.39,4.94-2.58,6.64a5.83,5.83,0,0,1-2.3.49q-1.6,0-7.13-2.49c-1.4-.56-2.81-1.18-4.25-1.88a4.09,4.09,0,0,1-2.44-3.25q-.29-2.29,2.49-4.2c1.08-.72,3.84-1.48,8.3-2.29-.06.06-.09-.31-.09-1.13a45.75,45.75,0,0,0-6.5-8.3Q67.09,147.38,63.18,143.57Zm47.22-1.52a38.72,38.72,0,0,1-5.72,8.11l5.81,5a12.78,12.78,0,0,1-6.39,8.74q-7.42-5.91-7.82-6.64a81.47,81.47,0,0,0,6-7.86L96,143.27q4.59-5.61,6.69-8.49Q108,139.76,110.4,142.05Zm14.5,5.71a12.42,12.42,0,0,1-6.3,8.6q-6.88-6-7.52-6.69a87.8,87.8,0,0,0,6.4-8.5Z" transform="translate(-21.28 -41.04)" fill="#008082"/><circle cx="139.32" cy="51.29" r="9.75" fill="#008082"/><circle cx="139.32" cy="164.96" r="9.75" fill="#008082"/><circle cx="139.32" cy="278.63" r="9.75" fill="#008082"/><line x1="113.69" y1="369.45" x2="163.58" y2="369.45" fill="none" stroke="#008083" stroke-miterlimit="10" stroke-width="7"/></svg>