<svg id="Layer_1" data-name="Layer 1" xmlns="http://www.w3.org/2000/svg" viewBox="0 0 305 327.66"><line x1="3.73" y1="45.6" x2="301.27" y2="45.6" fill="none" stroke="#008083" stroke-miterlimit="10" stroke-width="7"/><polyline points="3.5 0.01 3.5 268.75 69.49 320.34 223.52 324.13 301.5 274.94 301.04 0.01" fill="none" stroke="#008083" stroke-miterlimit="10" stroke-width="7"/><path d="M177.61,284.28a1.2,1.2,0,0,1,1.65-.08c.83.74,2,1.65,3.44,2.75.69.51,1,.85,1,1s-.14.42-.48.81q-1.2,1.39-3.11,3.33l-.84.92a3.57,3.57,0,0,1-2.64-1,14.44,14.44,0,0,1-3-3.19,7.53,7.53,0,0,1,1.47-1.83l.54-.55Q177.61,284.36,177.61,284.28Z" transform="translate(-103.5 -93.93)" fill="#008083"/><path d="M205,280.69c.51-.61.84-.92,1-.92s.5.26,1.06.77a23.83,23.83,0,0,0,5.06,4c.09,0,.4-.29.91-.88a25.94,25.94,0,0,1,3.37-3.55c.1,0,.38.21.84.62a54.71,54.71,0,0,0,4.87,3.92c.08.05.1.19.08.44a7,7,0,0,1-1.28,1.87l-.52.58a35.72,35.72,0,0,1-2.78,3.19,1.31,1.31,0,0,1-.62.11c-.76,0-1.9-.67-3.41-2a14.3,14.3,0,0,1-2.09-2.19c-.14-.27-.28-.42-.4-.44a14.74,14.74,0,0,0-1.94,2.08c-1.2,1.37-1.86,2.09-2,2.17a2.58,2.58,0,0,1-1.68-.41,13.88,13.88,0,0,1-3.33-2.63c-.86-.91-1.29-1.47-1.29-1.69A58.67,58.67,0,0,1,205,280.69Z" transform="translate(-103.5 -93.93)" fill="#008083"/><path d="M231.45,267.25a1.19,1.19,0,0,1,1.64-.08c.83.74,2,1.65,3.45,2.75.68.51,1,.86,1,1s-.13.41-.48.8q-1.2,1.39-3.11,3.33l-.84.92a3.57,3.57,0,0,1-2.64-1,14.23,14.23,0,0,1-3-3.19,8.17,8.17,0,0,1,1.47-1.83l.55-.54C230.79,268,231.45,267.3,231.45,267.25Z" transform="translate(-103.5 -93.93)" fill="#008083"/><path d="M225.73,240.62a3.57,3.57,0,0,1,3.08-.07,17,17,0,0,1,3.92,2.45l.73.59a21.6,21.6,0,0,0,6.92,4.21,2.26,2.26,0,0,1,.88.51.62.62,0,0,1-.48.81q-2.92,1.5-12.63,8l-2.23,1.54a7.68,7.68,0,0,1-3.74,1.76,4.89,4.89,0,0,1-3.19-1c-.19-.15-.31-.21-.36-.19a2,2,0,0,0-.33.48,10.22,10.22,0,0,1-4.87,4.69,22.35,22.35,0,0,1-5.64.62l-1.83,0-.55.77q-4.32,5.56-13.37,7.25-13.84,3.18-24.94,2.08c-3.71-.36-6.24-.89-7.58-1.57a4.68,4.68,0,0,1-2.71-3.52,33.64,33.64,0,0,1,.73-12.08c.44-.39.82-.32,1.14.22a7.58,7.58,0,0,1,.22,2.2,10.05,10.05,0,0,0,.22,2.82,3.92,3.92,0,0,0,2.42,1.72q9.77,2.37,23.87,1.61a69.71,69.71,0,0,0,15.46-2.6,10.48,10.48,0,0,0,6.95-5.61,2,2,0,0,1,1.25-1c.22.88-.12,2.14-1,3.81l-.58,1.28a10.76,10.76,0,0,0,8.42-3.34,12,12,0,0,0,2.35-3.8,12.71,12.71,0,0,1,1-2c.44-.12.72,0,.85.26a2.53,2.53,0,0,0,1,1.79,5.54,5.54,0,0,0,3.85.29,28.47,28.47,0,0,0,7.36-4.54,12.46,12.46,0,0,0,1.79-1.5q-2.19-1.5-5.67-4.32a8.86,8.86,0,0,0-2.93-1.83,2.48,2.48,0,0,0-2.09.62l-1.06.92a14.06,14.06,0,0,1-1.5,1.28c-.32.07-.52-.07-.59-.44s.5-1.07,1.5-2.2A11.93,11.93,0,0,1,225.73,240.62Z" transform="translate(-103.5 -93.93)" fill="#008083"/><path d="M352.62,221l-14.75,7c-2.42,1.09-3.63,2.51-3.63,4.24q-.08,5.94-.81,17.58-1,7.18-5.09,9a3.4,3.4,0,0,1-1.06.22,6.74,6.74,0,0,1-2.16-.62,4.3,4.3,0,0,0-2.49-.41,5.42,5.42,0,0,0-1.72,2.09,24.08,24.08,0,0,0-1.35,2.2q-3.22,5.44-6.23,7.1a41,41,0,0,1-12.52,4.21,87.27,87.27,0,0,1-15.75,1.58,56.74,56.74,0,0,1-9.52-.77q-4.95-.88-5.94-3.88a16.94,16.94,0,0,1-.51-4.29,72.74,72.74,0,0,1,.88-8.09,1.65,1.65,0,0,1,.7-.84c.48-.3.73-.11.73.55,0,1.14,0,2.32.07,3.51a3.27,3.27,0,0,0,1.5,2.93,30.76,30.76,0,0,0,9.45,1.8l10.07.29q13.89-.74,20.4-2.86,5.16-1.65,8.46-8.31a7.15,7.15,0,0,1,1.87-1.43,5.15,5.15,0,0,1,2.74.39,8.49,8.49,0,0,0,2.53.6,2.16,2.16,0,0,0,.81-.15,5.07,5.07,0,0,0,1.72-4v-4.65q0-9.81.77-12.89,2.52-6.45,5.86-8.57a84.2,84.2,0,0,1,11.09-5.68,108,108,0,0,0,11.17-5.42l.15.41a4.94,4.94,0,0,1-1.43,2.16,7.29,7.29,0,0,0-1.57,2.08Q356.4,219.31,352.62,221Zm-58.41,25.42q2.79-2,4-2a3.79,3.79,0,0,1,.77.08,2.21,2.21,0,0,1,1.47,1.15,4,4,0,0,1,.25,1.34,4.35,4.35,0,0,1-1.08,2.65c-.72.92-1.42,1.79-2.1,2.62a4.42,4.42,0,0,1-3.12,1.46l-3.59.44a5.34,5.34,0,0,0-1.26.24,5.33,5.33,0,0,1-1.3.24,1.91,1.91,0,0,1-.91-.26c0-.49.35-.9,1.06-1.24a1.9,1.9,0,0,0,1.17-.83l.91-1.3a8.45,8.45,0,0,0,1.91-5.53v-6.15c.1-.29.74-1.52,1.94-3.7a.54.54,0,0,1,.59.26q-.15,1.09-.15,5.31A18.8,18.8,0,0,1,294.21,246.45Zm3.74,1.64c-.1-.39-.53-.58-1.28-.58a3.85,3.85,0,0,0-2.73,1.68c-.77,1-1.48,2-2.14,3a19.52,19.52,0,0,0,4.43-1.36C297.57,249.85,298.14,249,298,248.09Z" transform="translate(-103.5 -93.93)" fill="#008083"/></svg>