<svg id="Layer_1" data-name="Layer 1" xmlns="http://www.w3.org/2000/svg" viewBox="0 0 270.7 133.65"><path d="M17.51-79.72" transform="translate(-109.54 -25.61)" fill="#fff" stroke="#008083" stroke-miterlimit="10" stroke-width="7"/><path d="M189.86-64.22" transform="translate(-109.54 -25.61)" fill="#fff" stroke="#008083" stroke-miterlimit="10" stroke-width="7"/><path d="M113,155.73v-47s2.55-80.28,44.45-79.62h176s10.61,2.28,21.22,12.93c16.65,16.7,19.08,39.12,21.23,63.1a210.93,210.93,0,0,1-1.34,48.65Z" transform="translate(-109.54 -25.61)" fill="#fff" stroke="#008083" stroke-miterlimit="10" stroke-width="7"/><path d="M399,170.89" transform="translate(-109.54 -25.61)" fill="#fff" stroke="#008083" stroke-miterlimit="10" stroke-width="7"/><circle cx="33.81" cy="68.5" r="4.58" fill="#fff" stroke="#008083" stroke-miterlimit="10" stroke-width="7"/><circle cx="33.81" cy="68.5" r="2.51" fill="none" stroke="#fff" stroke-miterlimit="10" stroke-width="3"/><path d="M268.51,71.54l8.89-6a54.25,54.25,0,0,0,4.86-4.15c.2-.08.41,0,.61.37a20,20,0,0,1-2.09,3.78,11.85,11.85,0,0,1-3.07,3.2l-3.54,2.65-9.32,6.24c-1.73,1.19-2.73,2.31-3,3.35-.12,3.41-.26,6.81-.43,10.22a33.68,33.68,0,0,1-1.6,9.69,11.15,11.15,0,0,1-4.38,5.53,10.65,10.65,0,0,1-6.75,2,5.88,5.88,0,0,1-3-1,25.26,25.26,0,0,1-8.4,4.21A72.47,72.47,0,0,1,219,114.24a41.46,41.46,0,0,1-9.44-1q-3.51-.8-4-3.84a17.06,17.06,0,0,1-.25-3,36.3,36.3,0,0,1,1-7,1.52,1.52,0,0,1,.43-.37c.32-.14.58,0,.77.56v2.83a2.85,2.85,0,0,0,1.2,2.33,23.24,23.24,0,0,0,7.93,1.82q1.69.12,8.49.12a57.64,57.64,0,0,0,17.84-2.37l.07-.15a8.78,8.78,0,0,1-.59-3.2,10.85,10.85,0,0,1,2.83-7.26,5.15,5.15,0,0,1,4.31-2.12,3.73,3.73,0,0,1,3.14,2.12,7.16,7.16,0,0,1,.36,2.28,10.34,10.34,0,0,1-1.56,5.16c-.5.72-1.28,1.8-2.34,3.23a7,7,0,0,0,1.32.13,10.74,10.74,0,0,0,6.31-2.4q1.62-1.2,2.15-5a32.5,32.5,0,0,0,.19-3.67c0-.57,0-1.45-.07-2.64V88.21a22.85,22.85,0,0,1,.74-6.37,35.07,35.07,0,0,1,2-4.09,10.67,10.67,0,0,1,3-3.5ZM243.37,83.69v-.25q1.51-1.71,4.53-4.79l.46.18a42.34,42.34,0,0,0,4.52,3.91l-.12.49a25.91,25.91,0,0,1-4.09,4.49c-.68.12-1.65-.4-2.9-1.57A20.34,20.34,0,0,1,243.37,83.69Zm6.37,12.52a2.79,2.79,0,0,0-2-.55A4.08,4.08,0,0,0,244.57,98a10.28,10.28,0,0,0-.06,1.13,6,6,0,0,0,1.51,4,.93.93,0,0,0,.34-.06.69.69,0,0,1,.21-.06c2.49-1.39,3.79-2.77,3.91-4.12A2.38,2.38,0,0,0,249.74,96.21Z" transform="translate(-109.54 -25.61)" fill="#008082"/><path d="M316.39,72.28l.25.52c-.39,1.42-1,3.53-1.91,6.34a1,1,0,0,1-.86.52,6.2,6.2,0,0,0-1.14.12,13,13,0,0,0-7.19,8.31,2.32,2.32,0,0,0,.83,2.58,15.51,15.51,0,0,0,2.83,1,3.81,3.81,0,0,1,2.46,1.69,8.29,8.29,0,0,1,.89,4.09c0,.56,0,1.27-.12,2.16-.08,1.08-.13,1.78-.13,2.09a31.44,31.44,0,0,1-4,10.76,21.63,21.63,0,0,1-8.22,8.06,10.37,10.37,0,0,1-4.89,1.14,8.25,8.25,0,0,1-5.29-1.63q-4.74-3.78-4.8-12.24-.06-6.87,4-19.72l.56-.18q.33.24.33,1.38-2.21,9-2.21,12.86,0,8.11,4,10.64a7.87,7.87,0,0,0,4.4,1.26q4.25,0,9.07-3.47,4.54-4.15,5-8.19a2.42,2.42,0,0,0-1-2.64c-1.09-.29-2.17-.61-3.26-1a3.74,3.74,0,0,1-2.38-2.18,9.38,9.38,0,0,1-.57-3.35,21.52,21.52,0,0,1,.67-4.65q2.54-10.6,9.79-15.75a10.63,10.63,0,0,1,2-.83A1.4,1.4,0,0,1,316.39,72.28Z" transform="translate(-109.54 -25.61)" fill="#008082"/><path d="M326.53,91.81v-.18a2.1,2.1,0,0,1,1.09.47,2.84,2.84,0,0,0,1,.54A7.66,7.66,0,0,1,332,99.38a13.28,13.28,0,0,1-1.57,5.78c-.88,1.81-1.78,3.61-2.7,5.42a6.41,6.41,0,0,1-4.43,2.4q-5,.83-5.23.89H317a.5.5,0,0,1,0-.65l9.75-5.23a3.09,3.09,0,0,0,1.91-2.37,5.35,5.35,0,0,0-.89-3.5,6.73,6.73,0,0,0-2.83-2.49l-.9-1A53.57,53.57,0,0,1,326.53,91.81Zm.06-17.69,1.14-1.6h.43c0-.12-.13.32-.25,1.33q0,2-.06,3.9a10.7,10.7,0,0,1-.65,3.79c.39-.29,1-.69,1.85-1.2a2.71,2.71,0,0,1,2.89.06,2.07,2.07,0,0,1,.77,2.4,7.58,7.58,0,0,1-4.37,4.67c-.92.09-3.06.37-6.43.87-.24.08-.47,0-.67-.37.08-.45.46-.82,1.13-1.09a2.12,2.12,0,0,0,1.27-1.07c.8-1.21,1.21-1.85,1.26-1.93a5.64,5.64,0,0,0,.67-2.22,8.31,8.31,0,0,0,.19-1.94V78.46q-.06-.83-.06-1.2A5,5,0,0,1,326.59,74.12Zm3.6,8.92-.4-.36A2.89,2.89,0,0,0,327,83.75a24.81,24.81,0,0,0-1.94,2.59c.88-.21,1.8-.45,2.74-.73a4.05,4.05,0,0,0,2.12-1.3C330.27,83.73,330.35,83.31,330.19,83Z" transform="translate(-109.54 -25.61)" fill="#008082"/></svg>