<svg id="Layer_1" data-name="Layer 1" xmlns="http://www.w3.org/2000/svg" viewBox="0 0 487.89 169.3"><path d="M44.17,9.36l9.15,124,228.61,4.54H493.66V68.21c-32.88,1.64-68.85,1.93-107.45,0A1078.69,1078.69,0,0,1,247.87,52.32c-38.05-5.26-78.64-12.38-121.31-22C97.67,23.88,70.19,16.8,44.17,9.36Z" transform="translate(-9.27 -4.61)" fill="#fff" stroke="#008081" stroke-miterlimit="10" stroke-width="7"/><path d="M97.81,85.12V69.88a17.76,17.76,0,0,1,1.5-4.14,43.74,43.74,0,0,0,1.65-4.1,2.11,2.11,0,0,1,.62-.77c.39-.09.61,0,.66.22-.39,3-.61,5.31-.66,6.92l-.4,12.31-.59,5.24-2.16,6.92a18,18,0,0,1-3.22,6.37,16.33,16.33,0,0,1-2.84,1.41,9.2,9.2,0,0,0-2.87,1.67,40.55,40.55,0,0,0-4.44,6.73q-3.36,6.3-3.8,7a5.73,5.73,0,0,1-2.93,2,25.26,25.26,0,0,1-3.37.65l-5.94,1a4.12,4.12,0,0,1-1-.47,2.21,2.21,0,0,1,1-1.23,11.54,11.54,0,0,1,1.52-.86c2.49-1.44,5-2.92,7.43-4.43a21.81,21.81,0,0,0,6.37-6.08q1.73-3.51,3.37-7.1a10.8,10.8,0,0,1,5.38-5.57,6,6,0,0,0,4.29-3.59Z" transform="translate(-9.27 -4.61)" fill="#008082"/><path d="M115.39,94.05l.14.15a11.76,11.76,0,0,1,3.3-.48,8.56,8.56,0,0,1,6.44,2.42,7.13,7.13,0,0,1,1.8,5.16,24.08,24.08,0,0,1-.59,4.58,53.21,53.21,0,0,0-1.9,5.57,19.64,19.64,0,0,1-2.24,5.23,6.37,6.37,0,0,1-5.63,2.86,9.23,9.23,0,0,1-1.18-.07q-4.86-1.14-5.64-10c-.14-1.78-.22-3.77-.22-6s.1-5.25.3-9.3q.28-6.37.29-9.3a9.73,9.73,0,0,1,.92-5.06q1.63-4.25,1.79-4.79a.9.9,0,0,1,.29-.3c.52,0,.77.19.77.55a129.2,129.2,0,0,0-1.21,19.34,1,1,0,0,0,.33-.39,2.44,2.44,0,0,1,.26-.38,12.86,12.86,0,0,1,1.43-2.6Q117,87.9,125.49,80.1q.53-.48,7.22-6a46.77,46.77,0,0,0,6.74-6.7,6.86,6.86,0,0,1,1.64-2.09c.15,0,.3.21.44.63l-.07,1.1a37.17,37.17,0,0,1-3.66,6.7,95.31,95.31,0,0,1-9.67,8.82q-9.85,8-10.07,8.24A9.43,9.43,0,0,0,115.39,94.05Zm8.24,11.17a6.76,6.76,0,0,0-4.51-3.07q-4-.41-6.08,2a5,5,0,0,0,.22,3.59,6.65,6.65,0,0,0,4.95,3.37q3.69,0,5.64-4A2.89,2.89,0,0,0,123.63,105.22Z" transform="translate(-9.27 -4.61)" fill="#008082"/><path d="M167.54,93.83c.82-.83,1.31-1.24,1.46-1.24s.45.22.92.66a48,48,0,0,0,4.24,3.58,4.31,4.31,0,0,1,.74.7s.75-.79,2.12-2.31a14.53,14.53,0,0,1,2.2-2.27,3.68,3.68,0,0,1,1.1.81q1.71,1.53,4.1,3.44c.36.29.56.49.58.59.08.27-.31.86-1.17,1.79l-3.92,4.14a7,7,0,0,1-3.55-1.94,12.89,12.89,0,0,1-2.64-2.89q-.08,0-.36.36a49.22,49.22,0,0,1-3.81,3.85.91.91,0,0,1-.62.07c-.79-.15-2.15-1.2-4.1-3.15-.88-.88-1.32-1.4-1.32-1.57s0-.22.07-.22Zm1,16.08a48.38,48.38,0,0,1,5.39-5.42,3,3,0,0,1,.84.73,48.28,48.28,0,0,0,4.36,4,.46.46,0,0,1,.07.44,6.93,6.93,0,0,1-1.5,1.72l-3.59,3.37a6.21,6.21,0,0,1-1.94-.88A18.36,18.36,0,0,1,168.52,109.91Z" transform="translate(-9.27 -4.61)" fill="#008082"/><path d="M167.17,47.25c.51-.68,1.13-.68,1.87,0,1.05.88,2.24,1.82,3.59,2.82.51.39.76.66.76.81a12.23,12.23,0,0,1-2.12,2.56l-2.34,2.45a3.25,3.25,0,0,1-2-.44A20.56,20.56,0,0,1,164.24,53c-.71-.71-1.06-1.13-1.06-1.25a13.07,13.07,0,0,1,2-2.34C166.51,48,167.17,47.3,167.17,47.25Z" transform="translate(-9.27 -4.61)" fill="#008082"/><path d="M186.72,73.8c.52-.61.85-.92,1-.92s.5.26,1.07.77a23.57,23.57,0,0,0,5.05,4c.1,0,.4-.29.91-.88a25.94,25.94,0,0,1,3.37-3.55c.1,0,.38.21.85.62a50.42,50.42,0,0,0,4.87,3.92c.07,0,.09.2.07.44a7,7,0,0,1-1.28,1.87l-.51.59a37.43,37.43,0,0,1-2.79,3.18,1.31,1.31,0,0,1-.62.11c-.76,0-1.89-.67-3.41-2a13.54,13.54,0,0,1-2.08-2.2c-.15-.27-.28-.42-.41-.44a16.09,16.09,0,0,0-1.94,2.09c-1.19,1.36-1.85,2.08-2,2.16a2.58,2.58,0,0,1-1.69-.4,14.19,14.19,0,0,1-3.33-2.64c-.86-.9-1.28-1.47-1.28-1.69A61.52,61.52,0,0,1,186.72,73.8Z" transform="translate(-9.27 -4.61)" fill="#008082"/><path d="M184.34,62.12c.49-.15.79,0,.88.44a21.08,21.08,0,0,1-5.2,7.83A4.94,4.94,0,0,1,177,71.71a4.15,4.15,0,0,1-2-.88,3.88,3.88,0,0,0-3.67-.87,14.34,14.34,0,0,0-9.63,5.74q-.73.81-.33,1.14a2.31,2.31,0,0,0,1.14-.11,37.21,37.21,0,0,1,6.3-.84A14.24,14.24,0,0,1,173,76a1.46,1.46,0,0,1,.87.81,17.81,17.81,0,0,1-1.57,4.54,62,62,0,0,1-4.62,5.93,53.9,53.9,0,0,0-5,6.71l-.58,1.09a26.59,26.59,0,0,0-1.58,3.78q-2.62,8.52.44,15.45,2.87,6,11.47,5A19.26,19.26,0,0,0,182.88,115q6.45-5.46,9.26-15a2.53,2.53,0,0,1,.63-1.17c.22-.17.38-.24.47-.19a2,2,0,0,1,.11,1.47,40.91,40.91,0,0,1-2.34,9.26,33.76,33.76,0,0,1-8.83,13.81,20.93,20.93,0,0,1-4.9,3.44,18.47,18.47,0,0,1-8.87,2,11.94,11.94,0,0,1-6.51-1.91q-7.16-5.34-6.12-18.27Q157,95.67,166.69,83.65l1.5-1.79c.49-.56.77-.91.85-1s.05-.28-.22-.33a29,29,0,0,0-12.45,1.91c-.52.22-.76.08-.74-.41a13,13,0,0,1,2.93-6.11,28.5,28.5,0,0,1,13.22-10,5.77,5.77,0,0,1,1.94-.3h1.07l.51.52a3.64,3.64,0,0,0,4.28.84A8.77,8.77,0,0,0,182,64.83l1.14-1.43A4.85,4.85,0,0,1,184.34,62.12Z" transform="translate(-9.27 -4.61)" fill="#008082"/><path d="M223.57,62.08q.77-1,1.86,0Q227,63.4,229,64.9c.52.39.77.66.77.81a12.34,12.34,0,0,1-2.12,2.56l-2.35,2.45a3.14,3.14,0,0,1-2-.44,19.31,19.31,0,0,1-2.67-2.41c-.71-.71-1.07-1.13-1.07-1.25a13.89,13.89,0,0,1,2-2.34C222.91,62.86,223.57,62.13,223.57,62.08Z" transform="translate(-9.27 -4.61)" fill="#008082"/><path d="M224.26,76.11a3.62,3.62,0,0,1,4.21,1.61c.15.24.24.3.26.18s.08,0,.18.18a18.78,18.78,0,0,1,.84,13.77,16.93,16.93,0,0,1-3.88,6.6,13.53,13.53,0,0,1-5.53,3.55,12.86,12.86,0,0,0-6.37,4.83,28.91,28.91,0,0,0-3.3,6,30.91,30.91,0,0,1-2.63,5.27,33.57,33.57,0,0,1-10.4,9.63,6.27,6.27,0,0,1-2.57,1.25c-.41,0-.67,0-.76-.15-.25-.24-.18-.53.21-.88,1.37-1.14,3.08-2.76,5.13-4.83a46.94,46.94,0,0,0,9.74-13.22,44.33,44.33,0,0,1,5.17-8.64,21.18,21.18,0,0,1,3.66-3.3l7.25-3.66a4.31,4.31,0,0,0,1.79-2.46,2.55,2.55,0,0,0,0-1.42c-.15-.47-.36-.72-.62-.77a25.49,25.49,0,0,1-3.45-.08q-4.22-1-2.49-5.78a19.6,19.6,0,0,0,1.1-3.41Q222.54,76.91,224.26,76.11Z" transform="translate(-9.27 -4.61)" fill="#008082"/><polygon points="29.42 133.25 6.71 165.8 484.39 165.8 484.39 133.25 29.42 133.25" fill="#fff" stroke="#008082" stroke-miterlimit="10" stroke-width="7"/><circle cx="43.93" cy="149.93" r="9.93" fill="#008082"/><circle cx="43.93" cy="149.93" r="6.05" fill="#fff"/></svg>