<svg id="Layer_1" data-name="Layer 1" xmlns="http://www.w3.org/2000/svg" viewBox="0 0 302.94 332.28"><path d="M403.89,92.36q0,162.6.07,325.21l-87.13,1.06H195.17L108,417l.09-327.12" transform="translate(-104.52 -89.84)" fill="none" stroke="#008083" stroke-miterlimit="10" stroke-width="7"/><path d="M115,93.37c-.82,29.51.79,61.79,0,91.3,18.38,13.18,49.4,23.79,72.48,36.33a541.47,541.47,0,0,0,64.69,29.89c44.51-21.46,102.57-43.22,147.08-64.69-.83-31,.82-59.27,0-90.32Z" transform="translate(-104.52 -89.84)" fill="none" stroke="#008083" stroke-miterlimit="10" stroke-width="7"/><path d="M212.16,175.49h-.84c-3.59,0-6.08-.7-7.47-3.19a24.5,24.5,0,0,1-5.71,2.38A54.16,54.16,0,0,1,183.93,177c-5,0-9.34-.77-12.56-2.82a11.35,11.35,0,0,1-5.39-9.92,18.32,18.32,0,0,1,2.17-8.86l1.46.62a17.87,17.87,0,0,0-1.06,5.57,9.53,9.53,0,0,0,4.83,8.09c3,1.79,7.07,2.34,11.65,2.34a54.92,54.92,0,0,0,12.52-1.61,28.63,28.63,0,0,0,4.84-1.61l1.61-5.13,2.34-1.83.22.26a15,15,0,0,0-.84,4.1,3.73,3.73,0,0,0,1.24,3.26,6.88,6.88,0,0,0,4.54,1.39h.66Zm-26.95,8a32.88,32.88,0,0,1,4.39,3.92,14.88,14.88,0,0,1-3,3.59c-1.43-1.36-2.86-2.53-4.33-3.78C183.23,185.93,184.22,184.64,185.21,183.51Z" transform="translate(-104.52 -89.84)" fill="#008083"/><path d="M213,170.8c2.82,0,5.75-1.13,6.3-3.22l1.06-4,2.53-1.83.22.26a19.26,19.26,0,0,0-.81,4.25,3.64,3.64,0,0,0,1.21,3A6.83,6.83,0,0,0,228,170.8h.66v4.69h-.84c-3.59,0-6.3-1-7.55-3.74h-.14c-1.25,2.46-4.14,3.74-7.29,3.74h-.7A2.36,2.36,0,0,1,209.6,173a2.28,2.28,0,0,1,2.56-2.23Zm4.14,19.3c-1.5-1.43-2.82-2.6-4.29-3.81a33.13,33.13,0,0,1,2.9-3.48,34.42,34.42,0,0,1,4.17,3.92A19.2,19.2,0,0,1,217.11,190.1Zm7.07-.48c-1.51-1.42-2.82-2.6-4.29-3.8a33.12,33.12,0,0,1,2.89-3.48,34.43,34.43,0,0,1,4.18,3.91A19.65,19.65,0,0,1,224.18,189.62Z" transform="translate(-104.52 -89.84)" fill="#008083"/><path d="M230.91,170.8c5.94,0,12-2.09,19.56-6.63l0-.14a34.34,34.34,0,0,0-11.5-2.57,5.86,5.86,0,0,0-4.65,1.83l.43,1.83-1.09,3.3h-.37l-1.79-4.83c.29-4.07,3.55-6.6,7.94-6.6,2.46,0,6.3.88,12,3.19a18,18,0,0,0,6.27,1.17l3,0,.11.07-1.94,3.84a11.36,11.36,0,0,0-6.33,1.36l-6.12,4a28.57,28.57,0,0,1-15.86,4.91h-1.9a2.36,2.36,0,0,1-2.56-2.46,2.28,2.28,0,0,1,2.56-2.23Zm11.17,10.14a33.57,33.57,0,0,1,4.4,3.92,15,15,0,0,1-3,3.59c-1.43-1.35-2.86-2.52-4.32-3.77C240.11,183.36,241.09,182.08,242.08,180.94Z" transform="translate(-104.52 -89.84)" fill="#008083"/><path d="M312.91,175.49h-.84c-3.59,0-6.08-.7-7.47-3.19a24.42,24.42,0,0,1-5.72,2.38,54,54,0,0,1-14.2,2.27c-5,0-9.34-.77-12.56-2.82a11.35,11.35,0,0,1-5.39-9.92,18.42,18.42,0,0,1,2.16-8.86l1.47.62a17.91,17.91,0,0,0-1.07,5.57,9.54,9.54,0,0,0,4.84,8.09c3,1.79,7.07,2.34,11.64,2.34a55,55,0,0,0,12.53-1.61,28.51,28.51,0,0,0,4.83-1.61l1.61-5.13,2.35-1.83.22.26a14.63,14.63,0,0,0-.85,4.1,3.74,3.74,0,0,0,1.25,3.26,6.88,6.88,0,0,0,4.54,1.39h.66ZM284.6,188.38c-1.5-1.43-2.82-2.6-4.28-3.81a31.94,31.94,0,0,1,2.89-3.48,34.48,34.48,0,0,1,4.18,3.92A19.59,19.59,0,0,1,284.6,188.38Zm5.13,7.29c-1.5-1.43-2.82-2.6-4.28-3.81a31.94,31.94,0,0,1,2.89-3.48,34.42,34.42,0,0,1,4.17,3.92A20,20,0,0,1,289.73,195.67Zm1.94-7.77c-1.5-1.43-2.82-2.6-4.28-3.81a32.75,32.75,0,0,1,2.89-3.47,34.36,34.36,0,0,1,4.17,3.91A18.77,18.77,0,0,1,291.67,187.9Z" transform="translate(-104.52 -89.84)" fill="#008083"/><path d="M313.64,170.8a9.41,9.41,0,0,0,4.25-1.13c1.1-.63,1.76-1.8,1.76-4.4,0-7.36-.4-14-.95-22.37l-.11-1.84,3.26-3.29.18.07c.69,8.61.73,17.58.73,28.79,0,1.68,1.17,4.17,5.42,4.17h.48v4.69h-.77c-3.41,0-6-1.17-7.14-3.88h-.15a7.76,7.76,0,0,1-7.07,3.88h-.62a2.36,2.36,0,0,1-2.56-2.46,2.28,2.28,0,0,1,2.56-2.23Z" transform="translate(-104.52 -89.84)" fill="#008083"/><path d="M331.73,170.8a29.93,29.93,0,0,0,8-.73c2.34-.7,4.32-2.09,4.32-3a2.79,2.79,0,0,0-.08-.81,38,38,0,0,1-4.13.15c-4.25,0-7.51-1.14-8.79-4a6.56,6.56,0,0,1-.55-2.63,10.56,10.56,0,0,1,2.74-7.22,6.92,6.92,0,0,1,4.73-2.45c3,0,5.35,2.82,7,7.25a23.88,23.88,0,0,1,1.54,8.72,8.69,8.69,0,0,1-1.79,5.78c-2.31,2.64-6.56,3.63-13.08,3.63h-3a2.36,2.36,0,0,1-2.57-2.46,2.29,2.29,0,0,1,2.57-2.23Zm5.42-15.89c-2.41,0-4.39,1.86-4.39,3.26,0,3,4.83,3.88,10.62,3.84C342.65,158.53,340.12,154.91,337.15,154.91Zm-.77-16.45a32.94,32.94,0,0,1,4.4,3.92,15,15,0,0,1-3,3.59c-1.43-1.35-2.86-2.53-4.32-3.77C334.41,140.88,335.4,139.6,336.38,138.46Z" transform="translate(-104.52 -89.84)" fill="#008083"/><circle cx="148.48" cy="129.58" r="11.06" fill="#008083"/></svg>