<svg id="Layer_1" data-name="Layer 1" xmlns="http://www.w3.org/2000/svg" viewBox="0 0 481.01 165.94"><path d="M44.17,9.36l9.15,124,228.61,4.54H493.66V68.21c-32.88,1.64-68.85,1.93-107.45,0A1078.69,1078.69,0,0,1,247.87,52.32c-38.05-5.26-78.64-12.38-121.31-22C97.67,23.88,70.19,16.8,44.17,9.36Z" transform="translate(-15.66 -5.97)" fill="#fff" stroke="#008081" stroke-miterlimit="10" stroke-width="5"/><path d="M103.53,87.43V73.21a17.08,17.08,0,0,1,1.4-3.87,39.65,39.65,0,0,0,1.54-3.82,1.84,1.84,0,0,1,.58-.72c.36-.09.57,0,.61.2-.36,2.81-.57,5-.61,6.46L106.67,83l-.55,4.89-2,6.46a16.8,16.8,0,0,1-3,5.94,14.49,14.49,0,0,1-2.65,1.32,8.78,8.78,0,0,0-2.68,1.55,38.45,38.45,0,0,0-4.14,6.29c-2.09,3.92-3.28,6.11-3.55,6.57a5.31,5.31,0,0,1-2.74,1.91,22.43,22.43,0,0,1-3.14.62l-5.54.92a4.21,4.21,0,0,1-.92-.45,2.09,2.09,0,0,1,.9-1.14,10.64,10.64,0,0,1,1.42-.8q3.5-2,6.94-4.14a20.44,20.44,0,0,0,6-5.67q1.6-3.28,3.14-6.63a10.06,10.06,0,0,1,5-5.2,5.57,5.57,0,0,0,4-3.35Z" transform="translate(-15.66 -5.97)" fill="#008082"/><path d="M119.93,95.77l.14.13a11.24,11.24,0,0,1,3.08-.44,8,8,0,0,1,6,2.25,6.67,6.67,0,0,1,1.68,4.82,22.94,22.94,0,0,1-.55,4.28,47.14,47.14,0,0,0-1.78,5.19,18.6,18.6,0,0,1-2.08,4.89,6,6,0,0,1-5.27,2.67,10,10,0,0,1-1.09-.07q-4.54-1.06-5.26-9.33c-.14-1.67-.21-3.52-.21-5.58s.09-4.89.27-8.68c.19-4,.28-6.86.28-8.68A9.08,9.08,0,0,1,116,82.5q1.55-4,1.68-4.47a.7.7,0,0,1,.27-.28c.48,0,.72.17.72.52a118.36,118.36,0,0,0-1.13,18,.89.89,0,0,0,.31-.36,2.1,2.1,0,0,1,.24-.36,12,12,0,0,1,1.33-2.42q2.06-3.15,10-10.43.48-.43,6.73-5.6a44.13,44.13,0,0,0,6.29-6.26,6.51,6.51,0,0,1,1.54-1.95c.13,0,.27.2.41.59l-.07,1a34.45,34.45,0,0,1-3.42,6.26,88.45,88.45,0,0,1-9,8.23q-9.2,7.48-9.4,7.69A8.77,8.77,0,0,0,119.93,95.77Zm7.69,10.42a6.3,6.3,0,0,0-4.2-2.87c-2.48-.25-4.38.38-5.67,1.88a4.57,4.57,0,0,0,.2,3.35,6.13,6.13,0,0,0,4.61,3.14c2.31,0,4.06-1.23,5.27-3.69A2.64,2.64,0,0,0,127.62,106.19Z" transform="translate(-15.66 -5.97)" fill="#008082"/><path d="M168.6,95.56c.78-.77,1.23-1.16,1.37-1.16s.42.2.86.61a44.36,44.36,0,0,0,4,3.35,3.92,3.92,0,0,1,.68.65c.05,0,.71-.74,2-2.15a13.71,13.71,0,0,1,2-2.12,3.49,3.49,0,0,1,1,.75q1.6,1.44,3.83,3.22c.34.27.53.45.55.54.07.25-.3.81-1.1,1.68l-3.65,3.86a6.61,6.61,0,0,1-3.32-1.81,11.67,11.67,0,0,1-2.46-2.7s-.16.11-.34.34a46.52,46.52,0,0,1-3.56,3.59.85.85,0,0,1-.58.07q-1.1-.21-3.82-2.94c-.83-.82-1.24-1.31-1.24-1.47s0-.21.07-.21Zm.93,15a45.23,45.23,0,0,1,5-5.06c.12,0,.38.25.79.68a44.73,44.73,0,0,0,4.07,3.73.4.4,0,0,1,.06.41,6.38,6.38,0,0,1-1.4,1.6l-3.35,3.15a6.08,6.08,0,0,1-1.81-.82A17.35,17.35,0,0,1,169.53,110.57Z" transform="translate(-15.66 -5.97)" fill="#008082"/><path d="M168.26,52.08c.48-.63,1.06-.63,1.75,0,1,.82,2.09,1.7,3.35,2.64.47.36.71.61.71.75a11.33,11.33,0,0,1-2,2.39l-2.19,2.29a3,3,0,0,1-1.88-.41,18.56,18.56,0,0,1-2.49-2.26c-.66-.66-1-1-1-1.16a12.75,12.75,0,0,1,1.88-2.19C167.65,52.81,168.26,52.13,168.26,52.08Z" transform="translate(-15.66 -5.97)" fill="#008082"/><path d="M186.51,76.86c.48-.57.79-.85.93-.85s.46.24,1,.72a22.52,22.52,0,0,0,4.72,3.76c.09,0,.37-.28.85-.82a24.66,24.66,0,0,1,3.14-3.32c.1,0,.36.19.79.58a48.34,48.34,0,0,0,4.55,3.66c.06,0,.09.18.06.41a6.2,6.2,0,0,1-1.19,1.74l-.48.55a30.92,30.92,0,0,1-2.6,3,1.16,1.16,0,0,1-.58.11c-.71,0-1.76-.63-3.18-1.88a13.91,13.91,0,0,1-1.95-2c-.13-.26-.26-.39-.37-.41A13.08,13.08,0,0,0,190.38,84c-1.12,1.28-1.74,2-1.85,2a2.35,2.35,0,0,1-1.57-.38,13,13,0,0,1-3.11-2.46c-.8-.84-1.2-1.36-1.2-1.57A55.77,55.77,0,0,1,186.51,76.86Z" transform="translate(-15.66 -5.97)" fill="#008082"/><path d="M184.29,66c.46-.14.73,0,.82.41a19.7,19.7,0,0,1-4.85,7.32,4.76,4.76,0,0,1-2.87,1.23,4,4,0,0,1-1.92-.82,3.59,3.59,0,0,0-3.41-.82,13.34,13.34,0,0,0-9,5.36c-.46.5-.56.86-.31,1.06.09.07.44,0,1.06-.1a35.57,35.57,0,0,1,5.88-.79,13,13,0,0,1,4,.14,1.34,1.34,0,0,1,.82.75A16.38,16.38,0,0,1,173,83.94a60.1,60.1,0,0,1-4.3,5.54,48.87,48.87,0,0,0-4.65,6.25l-.55,1a24.77,24.77,0,0,0-1.47,3.52q-2.46,8,.41,14.42,2.67,5.58,10.7,4.72a18,18,0,0,0,9.78-4.07,28.19,28.19,0,0,0,8.64-14,2.45,2.45,0,0,1,.58-1.09c.21-.16.36-.22.45-.17a1.88,1.88,0,0,1,.1,1.36,38.22,38.22,0,0,1-2.19,8.65A31.53,31.53,0,0,1,182.28,123a20.09,20.09,0,0,1-4.58,3.21,17.22,17.22,0,0,1-8.28,1.88,11.13,11.13,0,0,1-6.08-1.78q-6.66-5-5.71-17,1.13-12,10.19-23.21l1.4-1.68a11.92,11.92,0,0,0,.79-.95c.11-.16,0-.26-.21-.31a27,27,0,0,0-11.62,1.78c-.48.2-.71.08-.68-.38a12.15,12.15,0,0,1,2.73-5.71,26.56,26.56,0,0,1,12.34-9.29,5.29,5.29,0,0,1,1.81-.28h1l.48.48a3.39,3.39,0,0,0,4,.79,8.28,8.28,0,0,0,2.26-2l1.06-1.33A4.8,4.8,0,0,1,184.29,66Z" transform="translate(-15.66 -5.97)" fill="#008082"/><path d="M220.9,65.93q.72-1,1.74,0c1,.82,2.1,1.69,3.35,2.63q.72.54.72.75a11.33,11.33,0,0,1-2,2.39L222.54,74a3,3,0,0,1-1.88-.41,17.7,17.7,0,0,1-2.49-2.25c-.67-.66-1-1-1-1.16A12.44,12.44,0,0,1,219.05,68C220.28,66.66,220.9,66,220.9,65.93Z" transform="translate(-15.66 -5.97)" fill="#008082"/><path d="M221.55,79a3.37,3.37,0,0,1,3.93,1.5c.14.23.22.29.24.17s.08,0,.17.17a17.57,17.57,0,0,1,.79,12.85,15.93,15.93,0,0,1-3.63,6.16,12.61,12.61,0,0,1-5.16,3.31,12.13,12.13,0,0,0-5.95,4.51,26.8,26.8,0,0,0-3.07,5.61,29.77,29.77,0,0,1-2.46,4.92,31.31,31.31,0,0,1-9.71,9,5.72,5.72,0,0,1-2.39,1.16c-.39,0-.63,0-.72-.13s-.16-.51.2-.82q1.92-1.61,4.79-4.52a43.61,43.61,0,0,0,9.09-12.33,41.42,41.42,0,0,1,4.82-8.07,20.36,20.36,0,0,1,3.42-3.08L222.68,96a4,4,0,0,0,1.67-2.29,2.42,2.42,0,0,0,0-1.33c-.14-.43-.33-.67-.58-.72a23.93,23.93,0,0,1-3.22-.06c-2.62-.66-3.39-2.47-2.32-5.4a18.6,18.6,0,0,0,1-3.18Q219.94,79.76,221.55,79Z" transform="translate(-15.66 -5.97)" fill="#008082"/><polygon points="25.54 130.89 2.83 164.44 479.51 164.44 479.51 130.89 25.54 130.89" fill="#fff" stroke="#008082" stroke-miterlimit="10" stroke-width="3"/><circle cx="37.95" cy="147.17" r="9.45" fill="#008082"/><circle cx="37.95" cy="147.17" r="5.35" fill="#fff"/></svg>