<svg id="Layer_1" data-name="Layer 1" xmlns="http://www.w3.org/2000/svg" viewBox="0 0 325.27 145.68"><path d="M83.57,32.61q71.37.66,142.73.66,76.17,0,152.36-.77-.41,34.22-.82,68.41l-294.49-.52Z" transform="translate(-56.93 -28.97)" fill="#fff" stroke="#038183" stroke-miterlimit="10" stroke-width="7"/><path d="M105.41,158.39" transform="translate(-56.93 -28.97)" fill="none" stroke="#010101" stroke-miterlimit="10" stroke-width="7"/><path d="M57,106.33l50.62.33v64.49H61.15c0-21.26-.72-63.73-.72-63.32" transform="translate(-56.93 -28.97)" fill="#fff" stroke="#038183" stroke-miterlimit="10" stroke-width="7"/><path d="M60.24,158.39" transform="translate(-56.93 -28.97)" fill="none" stroke="#010101" stroke-miterlimit="10" stroke-width="7"/><circle cx="25.35" cy="95.68" r="6.25" fill="none" stroke="#038183" stroke-miterlimit="10" stroke-width="7"/><path d="M154.05,65a3.64,3.64,0,0,1-3.56,2.24.52.52,0,0,0-.54,0c.07.83.1,1.65.1,2.44a30.9,30.9,0,0,1-4.81,16.46,17.13,17.13,0,0,1-5.1,5.44,11.34,11.34,0,0,1-7,2A6.9,6.9,0,0,1,127,89.25a13.68,13.68,0,0,1-1.19-6A37,37,0,0,1,127,75a31.36,31.36,0,0,1,1.49-4.2c0-.16.22-.21.56-.14a2.57,2.57,0,0,1,0,1.09,32.53,32.53,0,0,0-1.36,7.91,9.33,9.33,0,0,0,1.51,5.5q1.63,2.3,5.3,2.29a13,13,0,0,0,7.05-2.1,14.87,14.87,0,0,0,5-5.53,16.29,16.29,0,0,0,2-7.68,27.6,27.6,0,0,0-.49-5.73,26.08,26.08,0,0,1,.49-3.57.86.86,0,0,1,.41-.09.79.79,0,0,1,.29.61c0,.29.11.45.22.48a9.17,9.17,0,0,0,1,.17,1.89,1.89,0,0,0,.9,0,2.94,2.94,0,0,0,2.2-1.41c.07-.23.15-.48.26-.75a.59.59,0,0,1,.6-.4,3,3,0,0,0,.61,1.15c1.66-.26,2.92-1.43,3.78-3.49.37-.38.61-.39.71-.05a7.94,7.94,0,0,1-1.66,4.39A3.16,3.16,0,0,1,155.1,65a.61.61,0,0,1-.42-.11,1,1,0,0,0-.38-.16C154.2,64.74,154.12,64.83,154.05,65Z" transform="translate(-56.93 -28.97)" fill="#008082"/><path d="M165.14,86.44l-3,.56c-.29,0-.47-.1-.53-.31s.19-.54.68-.83c1.74-1,3-1.85,3.86-2.42a31.2,31.2,0,0,0,3.59-2.69,15.44,15.44,0,0,0,2.76-4.86c.43-1.2,1.07-3,1.9-5.39a.63.63,0,0,1,.66-.42c.29,0,.44.14.44.42a17.06,17.06,0,0,1-.81,4.34,37.43,37.43,0,0,1-3.68,9.55,3.38,3.38,0,0,1-2.67,1.66Q167.29,86.16,165.14,86.44Z" transform="translate(-56.93 -28.97)" fill="#008082"/><path d="M198.8,67.79l-.09-.15q-1.11-.44-5.59-2.85a1.58,1.58,0,0,0-.66-.15,2.93,2.93,0,0,0-2,1,3.12,3.12,0,0,0-.52.67c-.25.38-.51.57-.77.57a.54.54,0,0,1-.27-.12.42.42,0,0,1-.17-.36,1.26,1.26,0,0,1,.29-.65,3,3,0,0,0,.35-.55,12.46,12.46,0,0,1,1.51-2,3.12,3.12,0,0,1,2.05-1,6,6,0,0,1,3,.8l2.76,1.49c.92.34,2.29.91,4.1,1.71.06,0,.1.21.1.54-.8.54-1.92,1.39-3.35,2.56A46.62,46.62,0,0,0,194.75,74a25.7,25.7,0,0,1-5.05,4.47A33,33,0,0,1,187,85a3.76,3.76,0,0,1-3.15,1.78c-1.3.09-2.6.16-3.9.22a11.87,11.87,0,0,1-2.81.25c-.2-.13-.21-.32-.05-.56A11.89,11.89,0,0,1,180.2,85q.31-.2,4-1.56A6.5,6.5,0,0,0,187.45,81a2.09,2.09,0,0,0-.68-2c-1.65.13-2.75-.3-3.32-1.3a2.87,2.87,0,0,1-.25-1.15,12.44,12.44,0,0,1,1.25-3.56c.28-.7.59-1.41.94-2.12A2,2,0,0,1,187,69.6a2.22,2.22,0,0,1,2.1,1.24A14.17,14.17,0,0,1,190.26,75s.15,0,.56,0A22.81,22.81,0,0,0,195,71.7Q196.9,69.74,198.8,67.79Zm.76,23.61a19.67,19.67,0,0,1-4.05-2.86L193,91.45a6.42,6.42,0,0,1-4.37-3.2A34.3,34.3,0,0,1,192,84.34a38.78,38.78,0,0,0,3.93,3l3-3.14q2.81,2.3,4.25,3.34Q200.71,90.2,199.56,91.4Zm-2.85,7.25a6.16,6.16,0,0,1-4.3-3.15c2-2.3,3.12-3.55,3.34-3.76a45.38,45.38,0,0,0,4.25,3.2Z" transform="translate(-56.93 -28.97)" fill="#008082"/><path d="M230.88,73.79c.35-.45.76-.45,1.25,0,.7.59,1.5,1.22,2.39,1.88q.51.39.51.54a8.1,8.1,0,0,1-1.41,1.71l-1.56,1.64a2.17,2.17,0,0,1-1.35-.3,13.1,13.1,0,0,1-1.78-1.61c-.47-.47-.71-.75-.71-.83a8.73,8.73,0,0,1,1.35-1.56C230.44,74.32,230.88,73.83,230.88,73.79Z" transform="translate(-56.93 -28.97)" fill="#008082"/><path d="M245.39,87.83c.34-.4.56-.61.66-.61s.33.17.7.52a16.35,16.35,0,0,0,3.37,2.68c.07,0,.27-.19.61-.59A16.64,16.64,0,0,1,253,87.47a1.75,1.75,0,0,1,.56.41,34.4,34.4,0,0,0,3.25,2.61s.06.13,0,.3A4.75,4.75,0,0,1,256,92l-.34.39a23.56,23.56,0,0,1-1.86,2.13.81.81,0,0,1-.41.07,4.34,4.34,0,0,1-2.27-1.34,8.66,8.66,0,0,1-1.39-1.47c-.1-.18-.19-.27-.27-.29a9,9,0,0,0-1.29,1.39q-1.2,1.36-1.32,1.44a1.66,1.66,0,0,1-1.13-.27,9.68,9.68,0,0,1-2.22-1.75c-.57-.61-.85-1-.85-1.13A39.4,39.4,0,0,1,245.39,87.83Z" transform="translate(-56.93 -28.97)" fill="#008082"/><path d="M258.23,69.72a.8.8,0,0,1,1.1,0c.55.49,1.32,1.1,2.29,1.83.46.34.69.57.69.68s-.09.28-.32.54c-.54.62-1.23,1.36-2.08,2.22l-.56.61a2.38,2.38,0,0,1-1.76-.66,9.56,9.56,0,0,1-2-2.12,4.83,4.83,0,0,1,1-1.22l.37-.37C257.79,70.24,258.23,69.75,258.23,69.72Z" transform="translate(-56.93 -28.97)" fill="#008082"/><path d="M245.41,63.44c0,.52.35.78,1.1.76a5.48,5.48,0,0,0,4.3-1.29,5.38,5.38,0,0,0,1.36-1.74,9.67,9.67,0,0,0,.54-2.41,26.86,26.86,0,0,1,.95-4,3.94,3.94,0,0,1,.59-1.32c.21-.18.37-.23.49-.15a3.53,3.53,0,0,1,.1,1c0,2,.6,3.44,1.78,4.18q2.31,1.44,3.68,0a4.87,4.87,0,0,1,1.44-1.39.47.47,0,0,1,.44.19l-.14.56a11.56,11.56,0,0,1-4.81,6.55,2.44,2.44,0,0,1-1.93.43,4,4,0,0,1-2.12-1.34q-.21-.21-.27-.12a11.35,11.35,0,0,1-1.79,2.51,6.11,6.11,0,0,1-5,1.84l0,.78a50.56,50.56,0,0,1-.42,5.08Q244,84.26,236.74,90.64a12.39,12.39,0,0,1-6.17,2.73,11.11,11.11,0,0,1-3.1,0A7.93,7.93,0,0,1,221.9,88a21.72,21.72,0,0,1-.1-10,27.22,27.22,0,0,1,2.27-7c.18-.39.35-.59.52-.61s.39.22.41.57a5,5,0,0,1-.27,1.31,34.76,34.76,0,0,0-1.37,6.74,11.84,11.84,0,0,0,.62,4.76,5.52,5.52,0,0,0,3.44,3.08,12.88,12.88,0,0,0,8.54-1,15.39,15.39,0,0,0,7-7.81,18.44,18.44,0,0,0,1.15-9.11,16.36,16.36,0,0,1,0-4,8,8,0,0,1,.49-1.34c.13-.28.24-.42.34-.42C245.25,62.94,245.39,63.09,245.41,63.44Z" transform="translate(-56.93 -28.97)" fill="#008082"/><path d="M304.83,45.3a78.06,78.06,0,0,0-.43,15.29,2.62,2.62,0,0,1,0,.61,3.64,3.64,0,0,0,1.4,2.49,5.15,5.15,0,0,0,3.1,1,4.06,4.06,0,0,0,1.29-.2,4.47,4.47,0,0,0,3.47-3.25,1.78,1.78,0,0,0-.81-1.7,9.69,9.69,0,0,1-2.1.31,3.06,3.06,0,0,1-1.71-.46,2,2,0,0,1-.95-2.1c.25-1,.51-2.57.81-4.74a2.41,2.41,0,0,1,1.29-2,2.65,2.65,0,0,1,2.2.39c1.9,1.64,2.85,4,2.85,7.15A15.6,15.6,0,0,1,315,60.9q-1.25,6.41-5,8a7.22,7.22,0,0,1-2.76.51,6.84,6.84,0,0,1-3-.61,36.3,36.3,0,0,1-2.52,11.45,26.36,26.36,0,0,1-5.49,9q-4.16,4.39-9.2,4.39A6.79,6.79,0,0,1,281,90.35a13.1,13.1,0,0,1-1.78-7.06,28.4,28.4,0,0,1,1-7,23.41,23.41,0,0,1,2-5.65.42.42,0,0,1,.61-.15c.16.1.19.4.1.9a28.34,28.34,0,0,0-1.64,8.26,13.31,13.31,0,0,0,.39,3.24A5.14,5.14,0,0,0,285.6,87a11.12,11.12,0,0,0,2.93.39,12,12,0,0,0,8.71-3.66A17.09,17.09,0,0,0,302.3,70q-.23-4.59-.42-11.8c-.1-4.52-.14-6.92-.14-7.2A25.22,25.22,0,0,1,304,45.25a.4.4,0,0,1,.41-.21A.36.36,0,0,1,304.83,45.3Zm2.45-3.19,3.51-3.52h.29c.77.76,2,1.85,3.62,3.25q.24.13-.12.66a32.58,32.58,0,0,1-3.4,3.29c-.32.1-.82-.08-1.49-.54L308.28,44a7.53,7.53,0,0,1-1.2-1.49Z" transform="translate(-56.93 -28.97)" fill="#008082"/><circle cx="25.35" cy="126.3" r="6.25" fill="none" stroke="#038183" stroke-miterlimit="10" stroke-width="7"/><path d="M119.86,108.3" transform="translate(-56.93 -28.97)" fill="#fff" stroke="#038183" stroke-miterlimit="10" stroke-width="7"/></svg>