<svg id="Layer_1" data-name="Layer 1" xmlns="http://www.w3.org/2000/svg" viewBox="0 0 178.93 467.62"><ellipse cx="150.45" cy="421.82" rx="24.98" ry="42.29" fill="none" stroke="#008083" stroke-miterlimit="10" stroke-width="7"/><polyline points="125.51 426.43 125.51 3.5 175.4 3.5 175.4 426.43" fill="#fff" stroke="#008083" stroke-miterlimit="10" stroke-width="7"/><path d="M22.6,319.19q1.47.19,6.69.2a21.59,21.59,0,0,1,6.69.83v-.39c-2-2.09-2.91-4-2.78-5.72.32-1.33.84-2.14,1.54-2.41a5,5,0,0,1,1.83-.42,6.74,6.74,0,0,1,4.2,1.81q.43.44,3.51,3.41a8.37,8.37,0,0,1,1.42,3.91c.32,2.74.5,4.2.54,4.4s.17.89.43,2.1a5.17,5.17,0,0,1,0,2.09.55.55,0,0,1-.68.1,4.21,4.21,0,0,1-1.81-2.39q-5.8-4.2-8.88-4.1a64.67,64.67,0,0,0-8.21.19,46.55,46.55,0,0,1-5.51-2.68.55.55,0,0,1-.3-.44c0-.26.17-.46.49-.59A1.24,1.24,0,0,1,22.6,319.19ZM38,315.09a1.52,1.52,0,0,0-.58.83,4.9,4.9,0,0,0,1.9,4.49q.59.49,4.3,2.88c-.39-1.4-.84-2.83-1.34-4.29a7.33,7.33,0,0,0-2.18-3.37Q38.37,314.9,38,315.09Zm6.89-21.78c1.07.13,3,1.06,5.71,2.78q4.94,3.14,4.93,6.6a7,7,0,0,1-.75,2.61,6.89,6.89,0,0,0-.76,2.51,3.1,3.1,0,0,0,.68,1.81q4.5,5.86,10.21,6c1.4-.43,2.39-1.66,3-3.71.75-2.35,1.56-3.84,2.44-4.5a12,12,0,0,1,7.18-2,42.4,42.4,0,0,1,9.42,1.47,43.42,43.42,0,0,1,16.26,8q8.2,6.3,10.84,14.51a16.09,16.09,0,0,1,.78,5,12.85,12.85,0,0,1-5.08,10.79Q103.52,349.9,94,349.9q-7.81,0-19.48-3.41Q68.89,344.83,61,341.8a4.48,4.48,0,0,1-.58-1.08.68.68,0,0,1,.68-.43,1.63,1.63,0,0,1,.83,0l.68.09q16.22,4.94,23,4.93a24.35,24.35,0,0,0,12.21-3q4.68-3.66,4.69-10.5a22.5,22.5,0,0,0-4.35-13,25.24,25.24,0,0,0-10.74-9q-3.42-1.52-5.13,0-.88,1-2.1,5A6.55,6.55,0,0,1,77.09,319a11,11,0,0,1-5,1l-6.34-.54q-12.06-3.08-17.29-11.57a5.08,5.08,0,0,1-.58-2.39A11.17,11.17,0,0,1,49.21,301a3.61,3.61,0,0,0,.1-.83q0-1.27-3.22-4.11c-1.27-1.07-1.91-1.74-1.91-2S44.41,293.51,44.87,293.31Zm56.74,15.09H101l-7.57-7,.3-.83q2.3-2.4,6.2-7.38v-.48l-5.81-4.94a2.27,2.27,0,0,1,0-1,71.31,71.31,0,0,0,6.39-7.42c.33-.07,1,.24,2,.92l5.71,5.28a1.88,1.88,0,0,1,.39,1.22,16.88,16.88,0,0,1-6.4,7.76c1.21,1.14,3,2.82,5.28,5a1.46,1.46,0,0,1,.53,1.07,3.24,3.24,0,0,1-.83,1.91,12.23,12.23,0,0,0-1.27,1.81A30.13,30.13,0,0,1,101.61,308.4Zm15-6.69H116q-2.34-2.29-7.32-6.49l.19-.83q3.42-3.57,5.91-6.6l.68.1a40.94,40.94,0,0,1,3.71,3.22,21,21,0,0,1,3.23,3.81A19,19,0,0,1,116.6,301.71Z" transform="translate(-9.47 -25.04)" fill="#008082"/><path d="M21.77,200.2q6.65,1.06,26.81.39,7.81-.3,11.91-.3,14.31,0,24.12,2.79a51.47,51.47,0,0,1,21.1,11.33q9.18,8.29,9.18,17.87a17.09,17.09,0,0,1-1.22,6.3q-4.07,10.78-20.27,10.3a68.15,68.15,0,0,1-24-5.52c-.72-.45-.91-.91-.59-1.37a5.15,5.15,0,0,1,2.1,0q9.48,2.88,15.82,2.88a26.41,26.41,0,0,0,7.28-1,10.73,10.73,0,0,0,7.91-8.21,22.06,22.06,0,0,0,.49-4.68q0-7.23-4.59-14.94Q89,205.38,79.49,204.79q-3.42-.19-7.28-.2-5.42,0-14.94.49-10.31.58-14.7.68l-8.2.1a14.71,14.71,0,0,1-7.76-2.2,18.55,18.55,0,0,1-5.91-2.88C20.7,200.52,21.06,200.33,21.77,200.2Z" transform="translate(-9.47 -25.04)" fill="#008082"/><path d="M9.81,129.35l.78.09q5.17,4.11,7.08,8.11,6,12.69,9.62,19.38a26.74,26.74,0,0,0,3.08,4.55c.29.39.13.68-.49.87a19,19,0,0,1-7.08-5.9,103.54,103.54,0,0,1-6.64-13.19,99.61,99.61,0,0,0-6.69-13.18C9.47,129.66,9.58,129.41,9.81,129.35Zm91.36,65-1.08-1.27q-2.3-5.13-7.42-15c-1.33-2.41-3.16-3.62-5.47-3.62a3.85,3.85,0,0,0-1.22.2c-.78.06-1.17.46-1.17,1.17,0,.16,0,.6.1,1.32a2.19,2.19,0,0,1,0,1.32c-.43,2.24-1.19,3.74-2.3,4.49a4.78,4.78,0,0,1-2.63.78,9.41,9.41,0,0,1-3.67-1.07c-2-.88-3.12-1.39-3.51-1.52a14.52,14.52,0,0,1-3.71-1.32A4.59,4.59,0,0,1,66.5,177a4.12,4.12,0,0,1,.88-3.61A12.69,12.69,0,0,1,75.19,170q-2.39-4-8.69-5.32c-1.47-.13-5.4-.13-11.82,0a41.36,41.36,0,0,1-11.57-1.17q-7.9-3.33-11-8.11a119.19,119.19,0,0,1-7.18-14.3,79.66,79.66,0,0,0-7.62-14.21c-.85-.88-1.27-1.48-1.27-1.81s.2-.49.59-.68a13.45,13.45,0,0,1,3.51,2.19A31.44,31.44,0,0,1,29,137.94q2.88,6.5,5.91,13c.65,1.33,1.28,2.65,1.9,4a13.43,13.43,0,0,0,2.59,3.71,8.75,8.75,0,0,0,5.47,1.91q16,.48,20,1.12Q76,163.34,82.61,169a3.66,3.66,0,0,0,2.69,1.62,20.31,20.31,0,0,1,3.17.87c1.82.75,3.63,1.49,5.42,2.2A21.86,21.86,0,0,1,99,176.66a12.81,12.81,0,0,1,1.81,5.52c.19,2,.44,4,.73,6a17.3,17.3,0,0,0,.68,2.93,8.62,8.62,0,0,1,.2,3.07C102.19,194.5,101.79,194.57,101.17,194.34Z" transform="translate(-9.47 -25.04)" fill="#008082"/><circle cx="151.13" cy="51.29" r="9.75" fill="#008082"/><circle cx="151.13" cy="164.96" r="9.75" fill="#008082"/><circle cx="151.13" cy="278.63" r="9.75" fill="#008082"/><path d="M184.87,410.49" transform="translate(-9.47 -25.04)" fill="none" stroke="#008083" stroke-miterlimit="10" stroke-width="7"/><path d="M135,410.49" transform="translate(-9.47 -25.04)" fill="none" stroke="#008083" stroke-miterlimit="10" stroke-width="7"/><line x1="125.48" y1="403.74" x2="175.43" y2="403.74" fill="none" stroke="#008083" stroke-miterlimit="10" stroke-width="7"/></svg>