<svg id="Layer_1" data-name="Layer 1" xmlns="http://www.w3.org/2000/svg" viewBox="0 0 316.05 336.23"><line x1="0.38" y1="47.35" x2="309.43" y2="47.35" fill="none" stroke="#008083" stroke-miterlimit="10" stroke-width="7"/><path d="M412.08,89.64V331.39a91,91,0,0,1-91,91H194a91,91,0,0,1-91-91V89.64" transform="translate(-99.53 -89.64)" fill="none" stroke="#008083" stroke-miterlimit="10" stroke-width="7"/><path d="M177,306.38a1.21,1.21,0,0,1,1.65-.07q1.25,1.1,3.45,2.75,1,.76,1,1c0,.15-.13.42-.48.81q-1.2,1.39-3.11,3.33l-.84.92a3.57,3.57,0,0,1-2.64-1,14.44,14.44,0,0,1-3-3.19,8.17,8.17,0,0,1,1.47-1.83l.55-.55A29.38,29.38,0,0,0,177,306.38Z" transform="translate(-99.53 -89.64)" fill="#008083"/><path d="M204.47,302.8c.52-.61.85-.92,1-.92s.5.26,1.06.77a24.16,24.16,0,0,0,5.06,4c.1,0,.4-.3.91-.88a25.23,25.23,0,0,1,3.37-3.55c.1,0,.38.2.85.62a52,52,0,0,0,4.87,3.92c.07,0,.09.19.07.44a6.89,6.89,0,0,1-1.28,1.86l-.52.59a35.72,35.72,0,0,1-2.78,3.19,1.31,1.31,0,0,1-.62.11c-.76,0-1.89-.68-3.41-2a13.6,13.6,0,0,1-2.08-2.19c-.15-.27-.28-.42-.41-.44a15.49,15.49,0,0,0-1.94,2.08,24.1,24.1,0,0,1-2,2.16,2.51,2.51,0,0,1-1.68-.4,13.69,13.69,0,0,1-3.33-2.64c-.86-.9-1.28-1.46-1.28-1.68A59.48,59.48,0,0,1,204.47,302.8Z" transform="translate(-99.53 -89.64)" fill="#008083"/><path d="M230.88,289.36a1.2,1.2,0,0,1,1.65-.08c.83.73,2,1.65,3.44,2.75q1,.77,1,1c0,.15-.13.42-.47.81q-1.22,1.39-3.12,3.33l-.84.92a3.53,3.53,0,0,1-2.63-1,14.22,14.22,0,0,1-3-3.19,7.63,7.63,0,0,1,1.46-1.83l.55-.55C230.22,290.14,230.88,289.4,230.88,289.36Z" transform="translate(-99.53 -89.64)" fill="#008083"/><path d="M225.17,262.73a3.51,3.51,0,0,1,3.07-.07,16.82,16.82,0,0,1,3.92,2.45l.73.59a21.89,21.89,0,0,0,6.92,4.21,2.26,2.26,0,0,1,.88.51.63.63,0,0,1-.47.81q-2.94,1.5-12.64,8l-2.23,1.54a7.53,7.53,0,0,1-3.74,1.75,4.89,4.89,0,0,1-3.18-1c-.2-.15-.32-.21-.37-.19a2,2,0,0,0-.33.48,10.22,10.22,0,0,1-4.87,4.69,22.82,22.82,0,0,1-5.64.62l-1.83,0-.55.76q-4.32,5.58-13.37,7.26-13.83,3.18-24.94,2.08c-3.71-.36-6.23-.89-7.58-1.57a4.68,4.68,0,0,1-2.71-3.52,33.39,33.39,0,0,1,.74-12.08c.44-.39.81-.32,1.13.22a7.55,7.55,0,0,1,.22,2.19,10,10,0,0,0,.22,2.82,3.88,3.88,0,0,0,2.42,1.72q9.78,2.39,23.88,1.62a69.61,69.61,0,0,0,15.45-2.6,10.52,10.52,0,0,0,7-5.61,2,2,0,0,1,1.24-1q.33,1.32-1,3.81l-.59,1.28a10.76,10.76,0,0,0,8.42-3.33,12,12,0,0,0,2.35-3.81,10.88,10.88,0,0,1,1-2c.44-.12.72,0,.84.26a2.63,2.63,0,0,0,1,1.79,5.54,5.54,0,0,0,3.85.29,28.74,28.74,0,0,0,7.36-4.54,11.72,11.72,0,0,0,1.79-1.5q-2.19-1.5-5.67-4.32a8.76,8.76,0,0,0-2.93-1.83,2.45,2.45,0,0,0-2.09.62l-1.06.92a14.06,14.06,0,0,1-1.5,1.28c-.32.07-.51-.08-.59-.44s.5-1.08,1.5-2.2A12.06,12.06,0,0,1,225.17,262.73Z" transform="translate(-99.53 -89.64)" fill="#008083"/><path d="M303.75,237.28q-.79,5-.29,20.11.23,5.85.22,8.93a67.31,67.31,0,0,1-2.09,18.09,38.58,38.58,0,0,1-8.49,15.82q-6.23,6.88-13.41,6.89a12.71,12.71,0,0,1-4.72-.92q-8.1-3-7.73-15.2a51.3,51.3,0,0,1,4.14-18c.34-.54.68-.69,1-.44a4.15,4.15,0,0,1,0,1.57A42.35,42.35,0,0,0,270.25,286a19.66,19.66,0,0,0,.73,5.45,8,8,0,0,0,6.15,5.94,17.16,17.16,0,0,0,3.52.36,22,22,0,0,0,11.2-3.44q8-6.58,8.46-13.73.15-2.56.15-5.46c0-2.71-.12-6.44-.37-11.21q-.43-7.72-.51-11-.07-6.23-.07-6.15a11,11,0,0,1,1.64-5.82,14.28,14.28,0,0,1,2.16-4.43C303.51,236.48,303.66,236.74,303.75,237.28Z" transform="translate(-99.53 -89.64)" fill="#008083"/><path d="M308.15,296.83l1-.81q3.84-1.72,11.24-5.57a4.55,4.55,0,0,0,2.71-4.1,3.09,3.09,0,0,0-.14-.91c-.05-.59-.35-.88-.88-.88-.12,0-.45,0-1,.07a1.61,1.61,0,0,1-1,0,5,5,0,0,1-3.37-1.72,3.61,3.61,0,0,1-.59-2,6.93,6.93,0,0,1,.81-2.74q1-2.2,1.14-2.64a11.41,11.41,0,0,1,1-2.78,3.48,3.48,0,0,1,2.16-1.94,3.1,3.1,0,0,1,2.72.65,9.52,9.52,0,0,1,2.52,5.86c2-1.19,3.33-3.37,4-6.51q.15-1.65,0-8.87a30.83,30.83,0,0,1,.88-8.68q2.49-5.92,6.08-8.27a90.75,90.75,0,0,1,10.73-5.39,59.91,59.91,0,0,0,10.66-5.71c.66-.63,1.11-.95,1.35-.95s.37.15.52.44A10.37,10.37,0,0,1,359,236a23.67,23.67,0,0,1-8.53,6.66q-4.87,2.16-9.78,4.43c-1,.49-2,1-3,1.43a10.13,10.13,0,0,0-2.78,1.94,6.55,6.55,0,0,0-1.43,4.1c-.24,8-.53,13-.84,15q-1.25,8.31-5.53,13.29a2.72,2.72,0,0,0-1.21,2,14.37,14.37,0,0,1-.66,2.38c-.56,1.37-1.11,2.73-1.65,4.07a16.48,16.48,0,0,1-2.19,3.81,9.58,9.58,0,0,1-4.14,1.35c-1.49.15-3,.33-4.47.55a12,12,0,0,0-2.2.52,6.52,6.52,0,0,1-2.31.14C308,297.6,308,297.29,308.15,296.83Zm48.74-68.52-.07.58a18.1,18.1,0,0,1-6.08,5.31q-9.53,4.52-14.54,7.22a20.43,20.43,0,0,0-3.41,2.31c-.29.22-.51.09-.66-.37a14.19,14.19,0,0,1,4.44-5.31,78.84,78.84,0,0,1,9.88-5,73.7,73.7,0,0,0,9.89-5C356.66,228.05,356.84,228.14,356.89,228.31Z" transform="translate(-99.53 -89.64)" fill="#008083"/></svg>