<svg id="Layer_1" data-name="Layer 1" xmlns="http://www.w3.org/2000/svg" viewBox="0 0 323.37 158.94"><polygon points="268.17 4.07 3.5 31.48 3.5 154.36 306.93 154.36 268.17 4.07" fill="#fff" stroke="#008083" stroke-miterlimit="10" stroke-width="7"/><ellipse cx="347.31" cy="104.31" rx="21.57" ry="78.88" transform="translate(-73.03 76.59) rotate(-16.26)" fill="#fff" stroke="#008083" stroke-miterlimit="10" stroke-width="7"/><line x1="38.47" y1="29.59" x2="38.47" y2="154.36" fill="none" stroke="#008083" stroke-miterlimit="10" stroke-width="7"/><path d="M136.28,120.73q-.48,3.42-3.62,9.1a4.45,4.45,0,0,1-2.94,2.08l-3.59.92c-.89.28-2.24.68-4,1.2-.43,0-.69-.14-.78-.41s.31-.7.92-1.06q2.8-1.68,5.61-3.28a37.36,37.36,0,0,0,5.23-4,3,3,0,0,0,.41-2.33,3.11,3.11,0,0,0-1-1.4,6.48,6.48,0,0,1-1.33.14,4.39,4.39,0,0,1-3.8-1.74,3.42,3.42,0,0,1-.48-1.75,6.68,6.68,0,0,1,.62-2.46,21.47,21.47,0,0,0,1.06-2.32c.32-.82.62-1.7.92-2.63a3.75,3.75,0,0,1,2-2,3.36,3.36,0,0,1,3.72,1.88,11.8,11.8,0,0,1,1.54,6.15A16.19,16.19,0,0,1,136.28,120.73Z" transform="translate(-57.72 -24.85)" fill="#048182"/><path d="M146.12,132.9c-.84.18-2.22.45-4.13.79a.7.7,0,0,1-.76-.45c0-.41.28-.79,1-1.16q2.67-1.71,5.33-3.38a41.31,41.31,0,0,0,5.1-3.76,24.22,24.22,0,0,0,3.86-6.8l2.66-7.56a.88.88,0,0,1,.93-.58c.41,0,.61.19.61.58a23.13,23.13,0,0,1-1.13,6.09A52.2,52.2,0,0,1,154.39,130a5,5,0,0,1-3.72,2.32ZM157,105.39l-.35-.14a28.87,28.87,0,0,1-4.41-4.34c-.09-.23,0-.53.33-.91a6,6,0,0,0,.53-.7c.8-.84,2-2,3.55-3.55l.58.07a41.43,41.43,0,0,0,4,3.89l.14.38a.3.3,0,0,1,0,.41A58.68,58.68,0,0,1,157,105.39Z" transform="translate(-57.72 -24.85)" fill="#048182"/><path d="M170.59,137.69a1.11,1.11,0,0,1,1.54-.07c.78.68,1.85,1.54,3.22,2.56.63.48,1,.8,1,1s-.12.39-.44.75c-.75.87-1.72,1.9-2.91,3.11l-.78.86a3.29,3.29,0,0,1-2.46-.93,13.2,13.2,0,0,1-2.84-3,7.11,7.11,0,0,1,1.37-1.71l.51-.51C170,138.41,170.59,137.73,170.59,137.69Z" transform="translate(-57.72 -24.85)" fill="#048182"/><path d="M178.87,120.39c.41.14.57.61.47,1.4a17.83,17.83,0,0,1-3,9,8.55,8.55,0,0,1-3.07,2.7c-2.58.95-4.51.09-5.78-2.6a15.85,15.85,0,0,1-1.27-4.55,91.86,91.86,0,0,1-.2-10q0-6.87,0-11.49l-.1-4.61.34-.65a12.23,12.23,0,0,1,2.29-3.45.42.42,0,0,1,.48,0,65.1,65.1,0,0,1-.17,8,103.42,103.42,0,0,0,0,12.21,23,23,0,0,0,1.06,5.6A5.63,5.63,0,0,0,172,124.8a3.51,3.51,0,0,0,3.79,0,4.46,4.46,0,0,0,1.68-2,4.85,4.85,0,0,0,.68-1.91A.8.8,0,0,1,178.87,120.39Z" transform="translate(-57.72 -24.85)" fill="#048182"/><path d="M240.32,77.8q-.75,4.65-.27,18.77.19,5.46.2,8.34a62.69,62.69,0,0,1-1.95,16.88,36,36,0,0,1-7.93,14.77Q224.57,143,217.86,143a11.79,11.79,0,0,1-4.4-.85q-7.56-2.83-7.22-14.18a47.78,47.78,0,0,1,3.87-16.82c.32-.5.63-.64.95-.41a3.64,3.64,0,0,1,0,1.47,39.6,39.6,0,0,0-2,11.07,18.38,18.38,0,0,0,.68,5.1,7.48,7.48,0,0,0,5.74,5.53,15.61,15.61,0,0,0,3.28.34A20.45,20.45,0,0,0,229.21,131q7.48-6.15,7.9-12.82c.09-1.59.13-3.29.13-5.09,0-2.53-.11-6-.34-10.46q-.41-7.22-.48-10.29c0-3.87-.06-5.78-.06-5.74a10.37,10.37,0,0,1,1.53-5.43,13,13,0,0,1,2-4.14C240.09,77.05,240.23,77.3,240.32,77.8Z" transform="translate(-57.72 -24.85)" fill="#048182"/><path d="M244.42,133.38l.89-.75q3.58-1.6,10.49-5.2a4.25,4.25,0,0,0,2.53-3.83,2.7,2.7,0,0,0-.13-.85c-.05-.55-.32-.82-.82-.82-.12,0-.43,0-.93.07a1.54,1.54,0,0,1-.92,0,4.65,4.65,0,0,1-3.14-1.61,3.3,3.3,0,0,1-.55-1.84,6.56,6.56,0,0,1,.75-2.57c.62-1.36,1-2.19,1.06-2.46a10.73,10.73,0,0,1,.92-2.6,3.26,3.26,0,0,1,2-1.81,2.88,2.88,0,0,1,2.53.62,8.86,8.86,0,0,1,2.36,5.47q2.81-1.68,3.72-6.09.14-1.53,0-8.27a28.93,28.93,0,0,1,.82-8.1q2.33-5.53,5.68-7.72a83.39,83.39,0,0,1,10-5,56.27,56.27,0,0,0,10-5.33c.61-.59,1-.89,1.26-.89s.35.14.48.41a9.34,9.34,0,0,1-1.54,2.46,21.84,21.84,0,0,1-8,6.22q-4.54,2-9.13,4.14L272,88.33a9.49,9.49,0,0,0-2.6,1.81A6.19,6.19,0,0,0,268.07,94c-.22,7.47-.49,12.15-.78,14q-1.17,7.77-5.16,12.41a2.57,2.57,0,0,0-1.13,1.88,12.8,12.8,0,0,1-.62,2.22c-.52,1.28-1,2.54-1.53,3.8a15.45,15.45,0,0,1-2.05,3.55,8.92,8.92,0,0,1-3.87,1.27q-2.09.19-4.17.51a11.67,11.67,0,0,0-2,.48,5.85,5.85,0,0,1-2.15.13C244.31,134.1,244.26,133.81,244.42,133.38Zm45.5-63.95-.07.55a17,17,0,0,1-5.68,5q-8.88,4.21-13.57,6.74a18.22,18.22,0,0,0-3.17,2.15c-.28.2-.48.09-.62-.34a13.14,13.14,0,0,1,4.14-5,73.92,73.92,0,0,1,9.22-4.65,67.77,67.77,0,0,0,9.23-4.68C289.7,69.19,289.87,69.27,289.92,69.43Z" transform="translate(-57.72 -24.85)" fill="#048182"/></svg>