<svg id="Layer_1" data-name="Layer 1" xmlns="http://www.w3.org/2000/svg" viewBox="0 0 366.43 119.88"><path d="M65.57,134.37c-13.69-1-24.16,5.67-25.7,13.6-.24,1.27-.82,5.47,2.84,11H399.12v-24.6Z" transform="translate(-36.19 -42.58)" fill="#fff" stroke="#048182" stroke-miterlimit="10" stroke-width="7"/><path d="M64.06,70.32A41.75,41.75,0,0,1,87.31,46.23Q132,55.22,180,62.65A2035.2,2035.2,0,0,0,399.12,84.21v52.16L66.05,131.83Q65.06,101.08,64.06,70.32Z" transform="translate(-36.19 -42.58)" fill="#fff"/><path d="M64.06,70.32A41.75,41.75,0,0,1,87.31,46.23Q132,55.22,180,62.65A2035.2,2035.2,0,0,0,399.12,84.21v52.16L66.05,131.83Q65.06,101.08,64.06,70.32Z" transform="translate(-36.19 -42.58)" fill="none" stroke="#048182" stroke-miterlimit="10" stroke-width="7"/><path d="M102.58,96.71V86A12.54,12.54,0,0,1,103.64,83a29.44,29.44,0,0,0,1.16-2.89,1.63,1.63,0,0,1,.44-.55c.28-.07.43,0,.47.16-.28,2.12-.43,3.75-.47,4.89L105,93.32l-.42,3.7-1.52,4.9a12.94,12.94,0,0,1-2.28,4.5,11.48,11.48,0,0,1-2,1,6.73,6.73,0,0,0-2,1.17,29.26,29.26,0,0,0-3.13,4.76c-1.59,3-2.48,4.63-2.69,5a4,4,0,0,1-2.07,1.45,16,16,0,0,1-2.38.47l-4.19.7a3.43,3.43,0,0,1-.7-.34,1.62,1.62,0,0,1,.68-.87,8.89,8.89,0,0,1,1.08-.6c1.76-1,3.51-2.07,5.25-3.13a15.39,15.39,0,0,0,4.5-4.3c.81-1.66,1.61-3.33,2.38-5a7.67,7.67,0,0,1,3.81-3.94,4.21,4.21,0,0,0,3-2.53Z" transform="translate(-36.19 -42.58)" fill="#048182"/><path d="M115,103l.1.1a8.51,8.51,0,0,1,2.33-.33,6.1,6.1,0,0,1,4.56,1.7,5.08,5.08,0,0,1,1.26,3.65,16.68,16.68,0,0,1-.41,3.24,35.82,35.82,0,0,0-1.35,3.93,14.07,14.07,0,0,1-1.57,3.7,4.53,4.53,0,0,1-4,2,7.7,7.7,0,0,1-.83-.05c-2.29-.54-3.62-2.89-4-7.07-.11-1.26-.16-2.66-.16-4.21s.07-3.71.21-6.58.21-5.19.21-6.57A6.86,6.86,0,0,1,112,93c.78-2,1.2-3.13,1.27-3.39a.52.52,0,0,1,.21-.21q.54,0,.54.39a89.88,89.88,0,0,0-.85,13.66.65.65,0,0,0,.23-.27,2.9,2.9,0,0,1,.18-.27,9.42,9.42,0,0,1,1-1.84q1.56-2.39,7.53-7.89c.24-.23,1.94-1.64,5.1-4.25A33.17,33.17,0,0,0,132,84.19a4.64,4.64,0,0,1,1.17-1.48c.1,0,.2.15.31.44l-.06.78a26.52,26.52,0,0,1-2.58,4.74A66.58,66.58,0,0,1,124,94.9q-7,5.67-7.11,5.83A6.54,6.54,0,0,0,115,103Zm5.82,7.89a4.77,4.77,0,0,0-3.18-2.17,4.7,4.7,0,0,0-4.3,1.42,3.53,3.53,0,0,0,.16,2.54,4.67,4.67,0,0,0,3.49,2.38,4.32,4.32,0,0,0,4-2.8A2,2,0,0,0,120.82,110.92Z" transform="translate(-36.19 -42.58)" fill="#048182"/><path d="M168.54,78.52Q168,82,168.33,92.73q.16,4.14.16,6.31A47.26,47.26,0,0,1,167,111.83,27.29,27.29,0,0,1,161,123q-4.39,4.86-9.47,4.86a9,9,0,0,1-3.34-.64q-5.72-2.16-5.46-10.74a36.28,36.28,0,0,1,2.92-12.74c.25-.38.49-.48.73-.31a2.72,2.72,0,0,1,0,1.12,29.8,29.8,0,0,0-1.53,8.38,13.85,13.85,0,0,0,.52,3.86,5.67,5.67,0,0,0,4.35,4.19,12.07,12.07,0,0,0,2.48.26,15.49,15.49,0,0,0,7.92-2.43q5.67-4.66,6-9.71c.07-1.21.1-2.49.1-3.86,0-1.91-.08-4.55-.26-7.91q-.3-5.46-.36-7.79c0-2.94-.05-4.39-.05-4.35a8,8,0,0,1,1.16-4.12A10.17,10.17,0,0,1,168.23,78C168.37,78,168.47,78.14,168.54,78.52Z" transform="translate(-36.19 -42.58)" fill="#048182"/><path d="M171.65,120.6l.67-.57q2.72-1.22,7.94-3.93a3.23,3.23,0,0,0,1.92-2.9,2.05,2.05,0,0,0-.1-.65c0-.41-.25-.62-.62-.62l-.7,0a1.15,1.15,0,0,1-.7,0,3.53,3.53,0,0,1-2.38-1.21,2.52,2.52,0,0,1-.42-1.4,5,5,0,0,1,.57-1.94c.47-1,.74-1.66.8-1.86a7.84,7.84,0,0,1,.7-2,2.45,2.45,0,0,1,1.53-1.37,2.19,2.19,0,0,1,1.92.46,6.74,6.74,0,0,1,1.78,4.14,6.54,6.54,0,0,0,2.82-4.6q.1-1.17,0-6.27a21.79,21.79,0,0,1,.62-6.13A12.62,12.62,0,0,1,192.3,84a63.43,63.43,0,0,1,7.58-3.8,42.18,42.18,0,0,0,7.53-4c.47-.45.79-.67,1-.67s.26.1.36.31a7.07,7.07,0,0,1-1.16,1.86,16.62,16.62,0,0,1-6,4.71q-3.45,1.53-6.91,3.13l-2.1,1a7.4,7.4,0,0,0-2,1.37,4.68,4.68,0,0,0-1,2.9q-.27,8.49-.6,10.61a18.25,18.25,0,0,1-3.91,9.4,1.93,1.93,0,0,0-.85,1.42,10.14,10.14,0,0,1-.47,1.68l-1.16,2.88a12.23,12.23,0,0,1-1.55,2.69,6.86,6.86,0,0,1-2.93,1c-1.05.11-2.1.24-3.16.39a8.93,8.93,0,0,0-1.55.36,4.52,4.52,0,0,1-1.63.11C171.56,121.14,171.53,120.93,171.65,120.6Zm34.44-48.42-.05.42a13,13,0,0,1-4.3,3.75q-6.72,3.18-10.27,5.1a14,14,0,0,0-2.41,1.63c-.2.15-.36.07-.46-.26a10.12,10.12,0,0,1,3.13-3.76,55.07,55.07,0,0,1,7-3.51,52,52,0,0,0,7-3.55Q206,72,206.09,72.18Z" transform="translate(-36.19 -42.58)" fill="#048182"/><circle cx="20.39" cy="105.03" r="7.4" fill="#008082"/><circle cx="20.39" cy="105.03" r="4.19" fill="#fff"/></svg>