<svg id="Layer_1" data-name="Layer 1" xmlns="http://www.w3.org/2000/svg" viewBox="0 0 271.68 131.3"><path d="M35.06,3.5H237.8a30.38,30.38,0,0,1,30.38,30.38V127.8a0,0,0,0,1,0,0H3.5a0,0,0,0,1,0,0V35.06A31.56,31.56,0,0,1,35.06,3.5Z" fill="#fff" stroke="#008083" stroke-miterlimit="10" stroke-width="7"/><circle cx="28.02" cy="67.72" r="4.58" fill="#fff" stroke="#008083" stroke-miterlimit="10" stroke-width="7"/><circle cx="28.02" cy="67.72" r="2.51" fill="none" stroke="#fff" stroke-miterlimit="10" stroke-width="3"/><circle cx="55.61" cy="67.59" r="4.58" fill="#fff" stroke="#008083" stroke-miterlimit="10" stroke-width="7"/><circle cx="55.61" cy="67.59" r="2.51" fill="none" stroke="#fff" stroke-miterlimit="10" stroke-width="3"/><path d="M273.18,70.41l9-6.1a54.2,54.2,0,0,0,4.94-4.22c.21-.08.42,0,.62.38a19.92,19.92,0,0,1-2.12,3.84,11.84,11.84,0,0,1-3.13,3.25c-1.18.9-2.38,1.79-3.59,2.69l-9.47,6.34q-2.62,1.81-3.06,3.41c-.13,3.46-.27,6.92-.44,10.38a34.63,34.63,0,0,1-1.62,9.84,11.32,11.32,0,0,1-4.46,5.62,10.88,10.88,0,0,1-6.86,2.07,6,6,0,0,1-3.06-1,25.81,25.81,0,0,1-8.53,4.29,74,74,0,0,1-18.5,2.62,42.09,42.09,0,0,1-9.59-1c-2.38-.54-3.74-1.84-4.1-3.91a18.59,18.59,0,0,1-.25-3,37.59,37.59,0,0,1,1-7.09,1.63,1.63,0,0,1,.44-.37c.33-.15.59,0,.78.56v2.87a2.9,2.9,0,0,0,1.22,2.38,23.67,23.67,0,0,0,8.06,1.84c1.15.08,4,.13,8.63.13a58.76,58.76,0,0,0,18.12-2.41l.06-.16a9,9,0,0,1-.59-3.25A11.05,11.05,0,0,1,249.56,93a5.27,5.27,0,0,1,4.37-2.16A3.8,3.8,0,0,1,257.12,93a7.08,7.08,0,0,1,.37,2.31,10.5,10.5,0,0,1-1.59,5.25c-.5.73-1.29,1.82-2.38,3.28a7.32,7.32,0,0,0,1.35.13,10.9,10.9,0,0,0,6.4-2.44q1.67-1.22,2.19-5.06a31.08,31.08,0,0,0,.19-3.72c0-.58,0-1.48-.06-2.69V87.34a23,23,0,0,1,.75-6.46,34.05,34.05,0,0,1,2-4.16,10.68,10.68,0,0,1,3.06-3.56ZM247.65,82.75V82.5q1.53-1.75,4.59-4.87l.47.18a40.84,40.84,0,0,0,4.6,4l-.13.5A25.61,25.61,0,0,1,253,86.84c-.68.13-1.66-.4-2.93-1.59A19.57,19.57,0,0,1,247.65,82.75Zm6.47,12.72a2.82,2.82,0,0,0-2.06-.56,4.13,4.13,0,0,0-3.19,2.37,11,11,0,0,0-.06,1.16,6,6,0,0,0,1.53,4.09.93.93,0,0,0,.34-.06.73.73,0,0,1,.22-.06q3.78-2.13,4-4.19A2.43,2.43,0,0,0,254.12,95.47Z" transform="translate(-120.3 -33.85)" fill="#008082"/><path d="M326.87,62.13q-.69,4.24-.25,17.15c.12,3.34.19,5.88.19,7.63A57.16,57.16,0,0,1,325,102.34a32.82,32.82,0,0,1-7.25,13.5q-5.31,5.88-11.43,5.88a10.82,10.82,0,0,1-4-.78q-6.92-2.59-6.6-13a43.92,43.92,0,0,1,3.53-15.38c.29-.45.59-.58.88-.37a3.41,3.41,0,0,1,0,1.34,36.14,36.14,0,0,0-1.85,10.13,16.69,16.69,0,0,0,.63,4.65,6.86,6.86,0,0,0,5.25,5.07,15,15,0,0,0,3,.31,18.69,18.69,0,0,0,9.56-2.94q6.84-5.62,7.22-11.72c.08-1.46.13-3,.13-4.65,0-2.32-.11-5.5-.32-9.57-.25-4.39-.39-7.53-.43-9.4-.05-3.54-.07-5.29-.07-5.25a9.57,9.57,0,0,1,1.41-5,12,12,0,0,1,1.84-3.78C326.66,61.44,326.78,61.67,326.87,62.13Z" transform="translate(-120.3 -33.85)" fill="#008082"/><path d="M330.62,112.94l.81-.69q3.29-1.47,9.59-4.75a3.88,3.88,0,0,0,2.32-3.5,2.28,2.28,0,0,0-.13-.78q-.06-.75-.75-.75l-.84.06a1.48,1.48,0,0,1-.85,0,4.27,4.27,0,0,1-2.87-1.47,3.08,3.08,0,0,1-.5-1.68,6,6,0,0,1,.69-2.35c.56-1.25.88-2,1-2.25a9.22,9.22,0,0,1,.84-2.37,3,3,0,0,1,1.84-1.66,2.67,2.67,0,0,1,2.32.56,8.1,8.1,0,0,1,2.15,5q2.57-1.53,3.41-5.56.12-1.41,0-7.56a26.37,26.37,0,0,1,.75-7.41q2.11-5.06,5.19-7.06a74.81,74.81,0,0,1,9.15-4.59,51.78,51.78,0,0,0,9.1-4.88c.56-.54.94-.81,1.15-.81s.31.12.44.37A8.65,8.65,0,0,1,374,61.06a20,20,0,0,1-7.28,5.69q-4.15,1.84-8.34,3.78l-2.53,1.22a8.66,8.66,0,0,0-2.38,1.66,5.58,5.58,0,0,0-1.22,3.5c-.21,6.83-.44,11.1-.72,12.81a22,22,0,0,1-4.71,11.34,2.34,2.34,0,0,0-1,1.72,12.15,12.15,0,0,1-.56,2c-.48,1.17-.95,2.33-1.4,3.47a14.06,14.06,0,0,1-1.88,3.25,8.21,8.21,0,0,1-3.53,1.16c-1.27.12-2.54.28-3.81.47a10.43,10.43,0,0,0-1.88.43,5.54,5.54,0,0,1-2,.13Q330.4,113.53,330.62,112.94Zm41.59-58.47-.06.5A15.41,15.41,0,0,1,367,59.5q-8.11,3.84-12.4,6.16a17.1,17.1,0,0,0-2.91,2c-.25.18-.44.08-.56-.32a12.08,12.08,0,0,1,3.78-4.53,67.31,67.31,0,0,1,8.44-4.25,63.16,63.16,0,0,0,8.43-4.28C372,54.25,372.17,54.32,372.21,54.47Z" transform="translate(-120.3 -33.85)" fill="#008082"/></svg>