<svg id="Layer_1" data-name="Layer 1" xmlns="http://www.w3.org/2000/svg" viewBox="0 0 364.43 117.84"><path d="M65.57,134.37c-13.69-1-24.16,5.67-25.7,13.6-.24,1.27-.82,5.47,2.84,11H399.12v-24.6Z" transform="translate(-37.19 -43.62)" fill="#fff" stroke="#048182" stroke-miterlimit="10" stroke-width="5"/><path d="M64.06,70.32A41.75,41.75,0,0,1,87.31,46.23Q132,55.22,180,62.65A2035.2,2035.2,0,0,0,399.12,84.21v52.16L66.05,131.83Q65.06,101.08,64.06,70.32Z" transform="translate(-37.19 -43.62)" fill="#fff"/><path d="M64.06,70.32A41.75,41.75,0,0,1,87.31,46.23Q132,55.22,180,62.65A2035.2,2035.2,0,0,0,399.12,84.21v52.16L66.05,131.83Q65.06,101.08,64.06,70.32Z" transform="translate(-37.19 -43.62)" fill="none" stroke="#048182" stroke-miterlimit="10" stroke-width="5"/><path d="M103.38,97.79V86.62a13.36,13.36,0,0,1,1.1-3,30.1,30.1,0,0,0,1.21-3,1.53,1.53,0,0,1,.45-.57c.29-.07.45,0,.49.16-.29,2.21-.45,3.9-.49,5.08l-.29,9-.43,3.84-1.59,5.08a13.13,13.13,0,0,1-2.36,4.67,11.84,11.84,0,0,1-2.08,1,6.88,6.88,0,0,0-2.11,1.22A29.94,29.94,0,0,0,94,115.06q-2.48,4.62-2.79,5.16a4.19,4.19,0,0,1-2.15,1.5,16.58,16.58,0,0,1-2.47.48l-4.35.73a3.59,3.59,0,0,1-.73-.35,1.64,1.64,0,0,1,.72-.9,8.76,8.76,0,0,1,1.11-.63c1.83-1.06,3.64-2.14,5.45-3.25a16.08,16.08,0,0,0,4.68-4.46q1.26-2.58,2.47-5.21a7.89,7.89,0,0,1,3.94-4.08,4.41,4.41,0,0,0,3.15-2.63Z" transform="translate(-37.19 -43.62)" fill="#048182"/><path d="M116.27,104.34l.11.11a8.73,8.73,0,0,1,2.41-.35,6.29,6.29,0,0,1,4.73,1.77,5.25,5.25,0,0,1,1.32,3.79,18.23,18.23,0,0,1-.43,3.36,36.27,36.27,0,0,0-1.4,4.08,14.49,14.49,0,0,1-1.64,3.84,4.69,4.69,0,0,1-4.13,2.1,6.11,6.11,0,0,1-.86-.06c-2.39-.55-3.76-3-4.14-7.33-.11-1.31-.16-2.77-.16-4.38s.07-3.85.21-6.82.22-5.39.22-6.82a7.25,7.25,0,0,1,.67-3.71c.81-2.07,1.24-3.25,1.32-3.51a.48.48,0,0,1,.21-.22c.38,0,.57.13.57.4a93,93,0,0,0-.89,14.18.7.7,0,0,0,.24-.28,1.75,1.75,0,0,1,.19-.28,9.4,9.4,0,0,1,1.05-1.91c1.07-1.64,3.68-4.38,7.81-8.19q.38-.35,5.29-4.4a34.65,34.65,0,0,0,4.94-4.92,4.93,4.93,0,0,1,1.21-1.53c.11,0,.22.15.32.46l-.05.8a27,27,0,0,1-2.69,4.92,68.43,68.43,0,0,1-7.09,6.47q-7.22,5.88-7.38,6A6.87,6.87,0,0,0,116.27,104.34Zm6,8.19a4.93,4.93,0,0,0-3.3-2.25,4.85,4.85,0,0,0-4.46,1.48,3.61,3.61,0,0,0,.16,2.63,4.83,4.83,0,0,0,3.63,2.47,4.48,4.48,0,0,0,4.13-2.9A2.05,2.05,0,0,0,122.31,112.53Z" transform="translate(-37.19 -43.62)" fill="#048182"/><path d="M171.83,78.91q-.59,3.66-.21,14.74c.11,2.87.16,5,.16,6.56a49.26,49.26,0,0,1-1.53,13.26A28.46,28.46,0,0,1,164,125.08q-4.58,5-9.83,5a9.31,9.31,0,0,1-3.47-.67q-5.92-2.22-5.66-11.14a37.4,37.4,0,0,1,3-13.21q.38-.6.75-.33a2.57,2.57,0,0,1,0,1.16,31.19,31.19,0,0,0-1.58,8.7,14.42,14.42,0,0,0,.54,4,5.88,5.88,0,0,0,4.51,4.35,12.28,12.28,0,0,0,2.58.27,16,16,0,0,0,8.21-2.52c3.93-3.23,6-6.58,6.21-10.07.07-1.26.11-2.59.11-4q0-3-.27-8.22c-.22-3.77-.34-6.47-.38-8.08,0-3-.05-4.55-.05-4.51a8.07,8.07,0,0,1,1.21-4.27,10.4,10.4,0,0,1,1.58-3.25C171.65,78.32,171.76,78.52,171.83,78.91Z" transform="translate(-37.19 -43.62)" fill="#048182"/><path d="M175.06,122.58l.69-.59q2.82-1.26,8.25-4.08a3.37,3.37,0,0,0,2-3,2.09,2.09,0,0,0-.11-.67c0-.43-.25-.65-.65-.65l-.72.06a1.25,1.25,0,0,1-.73,0,3.71,3.71,0,0,1-2.47-1.27,2.67,2.67,0,0,1-.43-1.45,5.18,5.18,0,0,1,.59-2c.49-1.08.76-1.72.84-1.93a7.89,7.89,0,0,1,.72-2,2.53,2.53,0,0,1,1.59-1.42,2.26,2.26,0,0,1,2,.48,7,7,0,0,1,1.86,4.3,6.85,6.85,0,0,0,2.92-4.78c.07-.81.07-3,0-6.5a22.49,22.49,0,0,1,.65-6.36c1.22-2.9,2.7-4.93,4.46-6.07a65.48,65.48,0,0,1,7.86-4,44,44,0,0,0,7.82-4.19c.48-.47.81-.7,1-.7s.27.11.38.32A7.49,7.49,0,0,1,212.33,78a17.23,17.23,0,0,1-6.26,4.89c-2.38,1-4.77,2.14-7.17,3.25l-2.17,1a7.39,7.39,0,0,0-2,1.43,4.71,4.71,0,0,0-1.05,3q-.27,8.82-.62,11a18.91,18.91,0,0,1-4.05,9.75,2,2,0,0,0-.89,1.48,11.9,11.9,0,0,1-.48,1.75c-.42,1-.82,2-1.21,3a12.28,12.28,0,0,1-1.61,2.79,7.09,7.09,0,0,1-3,1c-1.09.11-2.18.25-3.27.41a8.94,8.94,0,0,0-1.62.37,4.62,4.62,0,0,1-1.69.11C175,123.14,174.93,122.92,175.06,122.58ZM210.8,72.33l-.05.43a13.37,13.37,0,0,1-4.46,3.9q-7,3.3-10.66,5.29a14.25,14.25,0,0,0-2.5,1.69q-.33.24-.48-.27a10.36,10.36,0,0,1,3.25-3.9,56.86,56.86,0,0,1,7.25-3.65,53.75,53.75,0,0,0,7.25-3.68C210.63,72.14,210.76,72.21,210.8,72.33Z" transform="translate(-37.19 -43.62)" fill="#048182"/><circle cx="19.39" cy="103.99" r="7.4" fill="#008082"/><circle cx="19.39" cy="103.99" r="4.19" fill="#fff"/></svg>