<svg id="Layer_1" data-name="Layer 1" xmlns="http://www.w3.org/2000/svg" viewBox="0 0 324.08 158.95"><polygon points="268.57 4.08 3.9 31.49 3.9 154.37 307.33 154.37 268.57 4.08" fill="#fff" stroke="#008083" stroke-miterlimit="10" stroke-width="7"/><ellipse cx="347.31" cy="104.31" rx="21.57" ry="78.88" transform="translate(-72.63 76.6) rotate(-16.26)" fill="#fff" stroke="#008083" stroke-miterlimit="10" stroke-width="7"/><line x1="38.88" y1="29.6" x2="38.88" y2="154.37" fill="none" stroke="#008083" stroke-miterlimit="10" stroke-width="7"/><path d="M136.28,120.73q-.48,3.42-3.62,9.1a4.45,4.45,0,0,1-2.94,2.08l-3.59.92c-.89.28-2.24.68-4,1.2-.43,0-.69-.14-.78-.41s.31-.7.92-1.06q2.8-1.68,5.61-3.28a37.36,37.36,0,0,0,5.23-4,3,3,0,0,0,.41-2.33,3.11,3.11,0,0,0-1-1.4,6.48,6.48,0,0,1-1.33.14,4.39,4.39,0,0,1-3.8-1.74,3.42,3.42,0,0,1-.48-1.75,6.68,6.68,0,0,1,.62-2.46,21.47,21.47,0,0,0,1.06-2.32c.32-.82.62-1.7.92-2.63a3.75,3.75,0,0,1,2-2,3.36,3.36,0,0,1,3.72,1.88,11.8,11.8,0,0,1,1.54,6.15A16.19,16.19,0,0,1,136.28,120.73Z" transform="translate(-57.31 -24.84)" fill="#048182"/><path d="M146.12,132.9c-.84.18-2.22.45-4.13.79a.7.7,0,0,1-.76-.45c0-.41.28-.79,1-1.16q2.67-1.71,5.33-3.38a41.31,41.31,0,0,0,5.1-3.76,24.22,24.22,0,0,0,3.86-6.8l2.66-7.56a.88.88,0,0,1,.93-.58c.41,0,.61.19.61.58a23.13,23.13,0,0,1-1.13,6.09A52.2,52.2,0,0,1,154.39,130a5,5,0,0,1-3.72,2.32ZM157,105.39l-.35-.14a28.87,28.87,0,0,1-4.41-4.34c-.09-.23,0-.53.33-.91a6,6,0,0,0,.53-.7c.8-.84,2-2,3.55-3.55l.58.07a41.43,41.43,0,0,0,4,3.89l.14.38a.3.3,0,0,1,0,.41A58.68,58.68,0,0,1,157,105.39Z" transform="translate(-57.31 -24.84)" fill="#048182"/><path d="M170.59,137.69a1.11,1.11,0,0,1,1.54-.07c.78.68,1.85,1.54,3.22,2.56.63.48,1,.8,1,1s-.12.39-.44.75c-.75.87-1.72,1.9-2.91,3.11l-.78.86a3.29,3.29,0,0,1-2.46-.93,13.2,13.2,0,0,1-2.84-3,7.11,7.11,0,0,1,1.37-1.71l.51-.51C170,138.41,170.59,137.73,170.59,137.69Z" transform="translate(-57.31 -24.84)" fill="#048182"/><path d="M178.87,120.39c.41.14.57.61.47,1.4a17.83,17.83,0,0,1-3,9,8.55,8.55,0,0,1-3.07,2.7c-2.58.95-4.51.09-5.78-2.6a15.85,15.85,0,0,1-1.27-4.55,91.86,91.86,0,0,1-.2-10q0-6.87,0-11.49l-.1-4.61.34-.65a12.23,12.23,0,0,1,2.29-3.45.42.42,0,0,1,.48,0,65.1,65.1,0,0,1-.17,8,103.42,103.42,0,0,0,0,12.21,23,23,0,0,0,1.06,5.6A5.63,5.63,0,0,0,172,124.8a3.51,3.51,0,0,0,3.79,0,4.46,4.46,0,0,0,1.68-2,4.85,4.85,0,0,0,.68-1.91A.8.8,0,0,1,178.87,120.39Z" transform="translate(-57.31 -24.84)" fill="#048182"/><path d="M240.32,77.8q-.75,4.65-.27,18.77.19,5.46.2,8.34a62.69,62.69,0,0,1-1.95,16.88,36,36,0,0,1-7.93,14.77Q224.57,143,217.86,143a11.79,11.79,0,0,1-4.4-.85q-7.56-2.83-7.22-14.18a47.78,47.78,0,0,1,3.87-16.82c.32-.5.63-.64.95-.41a3.64,3.64,0,0,1,0,1.47,39.6,39.6,0,0,0-2,11.07,18.38,18.38,0,0,0,.68,5.1,7.48,7.48,0,0,0,5.74,5.53,15.61,15.61,0,0,0,3.28.34A20.45,20.45,0,0,0,229.21,131q7.48-6.15,7.9-12.82c.09-1.59.13-3.29.13-5.09,0-2.53-.11-6-.34-10.46q-.41-7.22-.48-10.29c0-3.87-.06-5.78-.06-5.74a10.37,10.37,0,0,1,1.53-5.43,13,13,0,0,1,2-4.14C240.09,77.05,240.23,77.3,240.32,77.8Z" transform="translate(-57.31 -24.84)" fill="#048182"/><path d="M244.42,133.38l.89-.75q3.58-1.6,10.49-5.2a4.25,4.25,0,0,0,2.53-3.83,2.7,2.7,0,0,0-.13-.85c-.05-.55-.32-.82-.82-.82-.12,0-.43,0-.93.07a1.54,1.54,0,0,1-.92,0,4.65,4.65,0,0,1-3.14-1.61,3.3,3.3,0,0,1-.55-1.84,6.56,6.56,0,0,1,.75-2.57c.62-1.36,1-2.19,1.06-2.46a10.73,10.73,0,0,1,.92-2.6,3.26,3.26,0,0,1,2-1.81,2.88,2.88,0,0,1,2.53.62,8.86,8.86,0,0,1,2.36,5.47q2.81-1.68,3.72-6.09.14-1.53,0-8.27a28.93,28.93,0,0,1,.82-8.1q2.33-5.53,5.68-7.72a83.39,83.39,0,0,1,10-5,56.27,56.27,0,0,0,10-5.33c.61-.59,1-.89,1.26-.89s.35.14.48.41a9.34,9.34,0,0,1-1.54,2.46,21.84,21.84,0,0,1-8,6.22q-4.54,2-9.13,4.14L272,88.33a9.49,9.49,0,0,0-2.6,1.81A6.19,6.19,0,0,0,268.07,94c-.22,7.47-.49,12.15-.78,14q-1.17,7.77-5.16,12.41a2.57,2.57,0,0,0-1.13,1.88,12.8,12.8,0,0,1-.62,2.22c-.52,1.28-1,2.54-1.53,3.8a15.45,15.45,0,0,1-2.05,3.55,8.92,8.92,0,0,1-3.87,1.27q-2.09.19-4.17.51a11.67,11.67,0,0,0-2,.48,5.85,5.85,0,0,1-2.15.13C244.31,134.1,244.26,133.81,244.42,133.38Zm45.5-63.95-.07.55a17,17,0,0,1-5.68,5q-8.88,4.21-13.57,6.74a18.22,18.22,0,0,0-3.17,2.15c-.28.2-.48.09-.62-.34a13.14,13.14,0,0,1,4.14-5,73.92,73.92,0,0,1,9.22-4.65,67.77,67.77,0,0,0,9.23-4.68C289.7,69.19,289.87,69.27,289.92,69.43Z" transform="translate(-57.31 -24.84)" fill="#048182"/><polygon points="268.64 3.91 7.05 32.36 3.6 154.41 307.45 154.41 268.64 3.91" fill="#fff" stroke="#008083" stroke-miterlimit="10" stroke-width="7"/><ellipse cx="347.66" cy="104" rx="21.6" ry="78.56" transform="translate(-72.53 76.69) rotate(-16.26)" fill="#fff" stroke="#008083" stroke-miterlimit="10" stroke-width="7"/><line x1="42.08" y1="30.46" x2="42.08" y2="155.41" fill="none" stroke="#008083" stroke-miterlimit="10" stroke-width="7"/><path d="M98.33,92.22c31-3.5,54.84-1.17,63.06,5.36a139.45,139.45,0,0,0,14.83,10.57,137.75,137.75,0,0,0,14.88,8c-4.41,2.67-10.83,6.39-18.82,10.44-6.94,3.52-12.35,5.92-13.26,6.31-17.53,7.6-51.3,2.13-60.69.47" transform="translate(-57.31 -24.84)" fill="#fff" stroke="#008083" stroke-miterlimit="10" stroke-width="7"/><circle cx="87.4" cy="90.57" r="3.94" fill="#fff" stroke="#008083" stroke-miterlimit="10" stroke-width="2"/><circle cx="70.84" cy="90.57" r="3.94" fill="#fff" stroke="#008083" stroke-miterlimit="10" stroke-width="2"/><circle cx="54.27" cy="90.57" r="3.94" fill="#fff" stroke="#008083" stroke-miterlimit="10" stroke-width="2"/><path d="M212,121.23a18.27,18.27,0,0,1-2.33,5.84,2.81,2.81,0,0,1-1.89,1.34l-2.3.59c-.58.18-1.44.44-2.6.77-.28,0-.44-.08-.5-.26s.2-.45.59-.68c1.2-.72,2.4-1.42,3.6-2.11a24.47,24.47,0,0,0,3.37-2.57,1.92,1.92,0,0,0,.26-1.49,2,2,0,0,0-.62-.91,4.39,4.39,0,0,1-.85.09,2.8,2.8,0,0,1-2.44-1.12,2.13,2.13,0,0,1-.31-1.12,4.19,4.19,0,0,1,.4-1.58,14.78,14.78,0,0,0,.68-1.5c.2-.52.4-1.09.59-1.69a2.4,2.4,0,0,1,1.3-1.29,2.16,2.16,0,0,1,2.39,1.21,7.6,7.6,0,0,1,1,4A10.41,10.41,0,0,1,212,121.23Z" transform="translate(-57.31 -24.84)" fill="#048182"/><path d="M218.28,129.05c-.54.12-1.43.28-2.66.5-.26,0-.42-.09-.48-.28s.17-.51.61-.75c1.15-.73,2.29-1.46,3.43-2.17a25.74,25.74,0,0,0,3.27-2.42,15.46,15.46,0,0,0,2.49-4.37q.85-2.44,1.71-4.86a.56.56,0,0,1,.59-.37c.27,0,.4.12.4.37a14.88,14.88,0,0,1-.72,3.91,33.93,33.93,0,0,1-3.32,8.59,3.26,3.26,0,0,1-2.4,1.5Zm7-17.69-.22-.09a17.83,17.83,0,0,1-2.83-2.79c-.06-.14,0-.34.2-.58a2.69,2.69,0,0,0,.34-.45c.52-.54,1.28-1.3,2.29-2.29l.37,0a26.74,26.74,0,0,0,2.55,2.5l.09.25a.19.19,0,0,1,0,.26A37,37,0,0,1,225.29,111.36Z" transform="translate(-57.31 -24.84)" fill="#048182"/><path d="M234,132.13a.72.72,0,0,1,1,0q.75.66,2.07,1.65c.41.31.61.51.61.62s-.08.24-.28.48c-.49.55-1.11,1.22-1.87,2l-.51.55a2.13,2.13,0,0,1-1.58-.6,8.37,8.37,0,0,1-1.82-1.91,4.5,4.5,0,0,1,.88-1.1l.33-.33C233.62,132.59,234,132.16,234,132.13Z" transform="translate(-57.31 -24.84)" fill="#048182"/><path d="M239.33,121c.26.08.37.39.31.9a11.63,11.63,0,0,1-1.91,5.8,5.38,5.38,0,0,1-2,1.73c-1.66.62-2.89.06-3.72-1.67a10,10,0,0,1-.81-2.92,58.82,58.82,0,0,1-.13-6.44q0-4.41,0-7.38l-.07-3,.22-.42a7.78,7.78,0,0,1,1.47-2.22.27.27,0,0,1,.31,0,42.83,42.83,0,0,1-.11,5.16,66.21,66.21,0,0,0,0,7.85,15.2,15.2,0,0,0,.68,3.6,3.61,3.61,0,0,0,1.39,1.78,2.23,2.23,0,0,0,2.43,0,2.91,2.91,0,0,0,1.08-1.27,3.18,3.18,0,0,0,.44-1.23A.51.51,0,0,1,239.33,121Z" transform="translate(-57.31 -24.84)" fill="#048182"/><path d="M278.84,93.63c-.33,2-.38,6-.18,12.06.09,2.35.13,4.13.13,5.36a40.58,40.58,0,0,1-1.25,10.86,23.07,23.07,0,0,1-5.1,9.49q-3.74,4.13-8,4.13a7.5,7.5,0,0,1-2.83-.55q-4.86-1.81-4.64-9.12a30.73,30.73,0,0,1,2.48-10.81c.21-.32.41-.41.62-.26a2.24,2.24,0,0,1,0,.94,25.29,25.29,0,0,0-1.3,7.12,12,12,0,0,0,.44,3.28,4.82,4.82,0,0,0,3.69,3.56,10.56,10.56,0,0,0,2.11.22,13.1,13.1,0,0,0,6.72-2.07q4.81-4,5.08-8.24c.06-1,.09-2.12.09-3.27q0-2.44-.22-6.73-.27-4.63-.31-6.61c0-2.49,0-3.72,0-3.69a6.7,6.7,0,0,1,1-3.5,8.43,8.43,0,0,1,1.29-2.65Q278.75,93.15,278.84,93.63Z" transform="translate(-57.31 -24.84)" fill="#048182"/><path d="M281.47,129.36l.57-.49c1.54-.68,3.79-1.8,6.75-3.34a2.75,2.75,0,0,0,1.63-2.46,1.71,1.71,0,0,0-.09-.55.49.49,0,0,0-.53-.52l-.59,0a1,1,0,0,1-.6,0,3,3,0,0,1-2-1,2.2,2.2,0,0,1-.35-1.19,4.24,4.24,0,0,1,.48-1.65c.4-.88.63-1.4.69-1.58a6.64,6.64,0,0,1,.59-1.67,2,2,0,0,1,1.3-1.16,1.83,1.83,0,0,1,1.62.39,5.75,5.75,0,0,1,1.52,3.52,5.58,5.58,0,0,0,2.39-3.91c.06-.66.06-2.43,0-5.32a18.44,18.44,0,0,1,.53-5.21,10.57,10.57,0,0,1,3.65-5A51.91,51.91,0,0,1,305.44,95a36.45,36.45,0,0,0,6.4-3.43q.6-.57.81-.57c.12,0,.22.08.31.26a6.09,6.09,0,0,1-1,1.58,14.12,14.12,0,0,1-5.12,4c-2,.87-3.9,1.75-5.86,2.66l-1.79.86a6.19,6.19,0,0,0-1.67,1.16,4,4,0,0,0-.85,2.46q-.23,7.22-.51,9a15.41,15.41,0,0,1-3.31,8,1.64,1.64,0,0,0-.73,1.21,8,8,0,0,1-.4,1.42l-1,2.44a9.94,9.94,0,0,1-1.32,2.29,5.73,5.73,0,0,1-2.49.81c-.89.09-1.78.2-2.68.33a7.18,7.18,0,0,0-1.32.31,4,4,0,0,1-1.38.09C281.4,129.82,281.37,129.64,281.47,129.36Zm29.25-41.11,0,.35A11,11,0,0,1,307,91.78q-5.71,2.72-8.73,4.33a12.44,12.44,0,0,0-2,1.39c-.17.13-.31.06-.4-.22a8.59,8.59,0,0,1,2.66-3.19,48,48,0,0,1,5.94-3,44.06,44.06,0,0,0,5.93-3C310.58,88.09,310.69,88.14,310.72,88.25Z" transform="translate(-57.31 -24.84)" fill="#048182"/></svg>