<svg id="Layer_1" data-name="Layer 1" xmlns="http://www.w3.org/2000/svg" viewBox="0 0 182.72 493.99"><rect x="129.33" y="3.5" width="49.89" height="486.99" fill="#fff" stroke="#008083" stroke-miterlimit="10" stroke-width="7"/><path d="M31.57,278.68a59.58,59.58,0,0,0,6,.18,19.87,19.87,0,0,1,6,.74v-.35c-1.78-1.87-2.62-3.58-2.5-5.14.29-1.2.75-1.92,1.38-2.17a4.6,4.6,0,0,1,1.65-.38,6,6,0,0,1,3.78,1.63l3.16,3.07a7.64,7.64,0,0,1,1.28,3.52q.44,3.69.48,4c0,.17.16.8.4,1.89a5.37,5.37,0,0,1,0,1.89.51.51,0,0,1-.62.08A3.81,3.81,0,0,1,51,285.45q-5.23-3.78-8-3.69a58.35,58.35,0,0,0-7.39.17,40.56,40.56,0,0,1-5-2.41.49.49,0,0,1-.27-.4c0-.23.15-.41.44-.53A1.19,1.19,0,0,1,31.57,278.68ZM45.41,275a1.38,1.38,0,0,0-.52.75,4.39,4.39,0,0,0,1.71,4c.35.29,1.64,1.16,3.87,2.59-.35-1.26-.76-2.54-1.21-3.86a6.64,6.64,0,0,0-2-3Q45.77,274.81,45.41,275Zm6.2-19.6c1,.12,2.68.95,5.14,2.51q4.44,2.81,4.44,5.93a6.37,6.37,0,0,1-.68,2.35,6.34,6.34,0,0,0-.68,2.26,2.76,2.76,0,0,0,.61,1.63c2.7,3.51,5.76,5.32,9.19,5.4q1.89-.57,2.68-3.34c.67-2.11,1.4-3.45,2.2-4a10.8,10.8,0,0,1,6.46-1.8,38.28,38.28,0,0,1,8.48,1.32,39.08,39.08,0,0,1,14.63,7.21q7.38,5.65,9.76,13.05a14.4,14.4,0,0,1,.7,4.52,11.59,11.59,0,0,1-4.57,9.72q-5.58,4.22-14.15,4.21-7,0-17.53-3.07-5.06-1.5-12.18-4.22a4.55,4.55,0,0,1-.53-1,.63.63,0,0,1,.62-.39,1.55,1.55,0,0,1,.75,0,5,5,0,0,0,.61.08q14.6,4.44,20.7,4.44a21.82,21.82,0,0,0,11-2.72q4.22-3.3,4.22-9.45a20.25,20.25,0,0,0-3.92-11.73,22.67,22.67,0,0,0-9.66-8.13q-3.08-1.37-4.62,0a14.57,14.57,0,0,0-1.89,4.48,5.89,5.89,0,0,1-2.77,3.84,9.9,9.9,0,0,1-4.48.95L70.42,279q-10.86-2.77-15.56-10.42a4.59,4.59,0,0,1-.53-2.15,10.17,10.17,0,0,1,1.19-4.05,3.32,3.32,0,0,0,.09-.74c0-.76-1-2-2.9-3.69-1.14-1-1.71-1.57-1.71-1.81S51.2,255.57,51.61,255.39ZM102.67,269h-.57q-2.32-2.16-6.81-6.28l.27-.75q2.06-2.16,5.58-6.64v-.44l-5.23-4.44a2.13,2.13,0,0,1,0-.87,64.79,64.79,0,0,0,5.75-6.68c.3-.06.9.22,1.81.83l5.14,4.75a1.72,1.72,0,0,1,.35,1.1,15.86,15.86,0,0,1-1.71,3.12,16.12,16.12,0,0,1-4,3.86l4.75,4.53a1.28,1.28,0,0,1,.48,1,3,3,0,0,1-.75,1.71,10.81,10.81,0,0,0-1.14,1.63A27.37,27.37,0,0,1,102.67,269Zm13.5-6h-.53q-2.11-2.07-6.59-5.85l.17-.74c2-2.14,3.83-4.12,5.32-5.94l.62.09a38.39,38.39,0,0,1,3.34,2.9,19.52,19.52,0,0,1,2.9,3.43A17.18,17.18,0,0,1,116.17,263Z" transform="translate(-5.64 -11.27)" fill="#008082"/><path d="M5.64,151.42v-1h.44a2.86,2.86,0,0,1,.82.28,2.66,2.66,0,0,0,.9.29,21,21,0,0,1,3.34,5.67c.85,2.16,1.65,4.29,2.41,6.37q3.69,9.18,7.39,18.63l-.18.26c-.53.06-1.66-.57-3.41-1.89s-3.93-5.75-6.56-13.31Q8.15,159.06,5.64,151.42Zm119.8,60.64-.44.26q-2.11.13-13.89.66-8.34.36-13.75.35-14.33,0-21.14-3-9-3.78-14.94-15.12-5.23-3.47-12.7-7.56a23.35,23.35,0,0,0-4.53-.44c-2.75,0-4.3,0-4.66-.09-.06-.06-.29-.06-.7,0l-.22.09a.08.08,0,0,1-.09-.09q-5.27,0-12.13-7a21.83,21.83,0,0,1-3.51-5.84q-3.43-7.31-3.52-8.92-1.8-4.92-5.93-14.73l.09-.48a3.13,3.13,0,0,1,2.48,1.19c.81.85,1.58,1.62,2.31,2.33A2.77,2.77,0,0,0,19.29,155a2.93,2.93,0,0,1,1.12,1.27q2.6,6.65,7.82,19.43,2.77,6.76,5.58,7.64a38.55,38.55,0,0,0,5.5.53,40.43,40.43,0,0,1,6.46.57c2.16.47,3.45.74,3.86.79a16.8,16.8,0,0,1,3.78,1.45l.31-.08a19.83,19.83,0,0,1,2.33-4.05,4.66,4.66,0,0,1,3.78-2.19q2.69,0,6.46,4.08a13.92,13.92,0,0,1,2.9,6.64,41,41,0,0,0,1.71,7.29,25.23,25.23,0,0,0,5,7.3,13.1,13.1,0,0,0,7.65,4q1.71.18,8,.18,3.78,0,11.25-.18c5-.12,8.73-.17,11.25-.17a36.06,36.06,0,0,1,10.5,1.18Q125.53,211.36,125.44,212.06Z" transform="translate(-5.64 -11.27)" fill="#008082"/></svg>