<svg id="Layer_1" data-name="Layer 1" xmlns="http://www.w3.org/2000/svg" viewBox="0 0 176.65 350.77"><rect x="123.26" y="3.5" width="49.89" height="343.77" fill="#fff" stroke="#008083" stroke-miterlimit="10" stroke-width="7"/><path d="M33.32,287.7c.73.1,2.4.14,5,.14a16.09,16.09,0,0,1,5,.63v-.3c-1.48-1.56-2.18-3-2.08-4.28.24-1,.63-1.61,1.15-1.81a3.82,3.82,0,0,1,1.37-.32,5.09,5.09,0,0,1,3.15,1.36l2.64,2.56a6.3,6.3,0,0,1,1.06,2.93c.25,2.06.38,3.15.4,3.3l.33,1.57a4.13,4.13,0,0,1,0,1.58.41.41,0,0,1-.51.07,3.15,3.15,0,0,1-1.35-1.79q-4.36-3.15-6.67-3.08a49.41,49.41,0,0,0-6.15.15,35.24,35.24,0,0,1-4.14-2,.38.38,0,0,1-.22-.33c0-.19.12-.34.37-.44A1,1,0,0,1,33.32,287.7Zm11.54-3.08a1.11,1.11,0,0,0-.44.63,3.66,3.66,0,0,0,1.42,3.36c.3.25,1.37,1,3.23,2.16-.3-1-.63-2.12-1-3.22A5.54,5.54,0,0,0,46.43,285C45.58,284.66,45.05,284.52,44.86,284.62ZM50,268.29a13.42,13.42,0,0,1,4.28,2.09q3.71,2.34,3.7,4.94a5.4,5.4,0,0,1-.56,2,5.2,5.2,0,0,0-.57,1.89,2.3,2.3,0,0,0,.51,1.35q3.38,4.39,7.65,4.5a3.6,3.6,0,0,0,2.24-2.78,6.9,6.9,0,0,1,1.83-3.37,9,9,0,0,1,5.38-1.5,32,32,0,0,1,7.07,1.1,32.53,32.53,0,0,1,12.19,6,22.36,22.36,0,0,1,8.14,10.87,12.13,12.13,0,0,1,.58,3.77,9.65,9.65,0,0,1-3.81,8.1q-4.65,3.51-11.79,3.51a53.8,53.8,0,0,1-14.61-2.56Q68,306.92,62.1,304.65a3.52,3.52,0,0,1-.44-.8.52.52,0,0,1,.52-.33,1.27,1.27,0,0,1,.62,0,4.57,4.57,0,0,0,.51.07q12.16,3.71,17.25,3.7A18.25,18.25,0,0,0,89.72,305a9.41,9.41,0,0,0,3.51-7.87A16.82,16.82,0,0,0,90,287.37a19,19,0,0,0-8-6.78q-2.57-1.12-3.85,0a12,12,0,0,0-1.57,3.74,4.91,4.91,0,0,1-2.31,3.2,8.22,8.22,0,0,1-3.74.79l-4.76-.4q-9-2.31-13-8.68a3.86,3.86,0,0,1-.44-1.8,8.41,8.41,0,0,1,1-3.36,2.89,2.89,0,0,0,.07-.63c0-.63-.8-1.66-2.42-3.07-1-.81-1.42-1.31-1.42-1.51S49.68,268.43,50,268.29ZM92.57,279.6H92.1l-5.68-5.23.22-.62q1.73-1.8,4.65-5.53v-.37l-4.36-3.7a1.8,1.8,0,0,1,0-.73,53.9,53.9,0,0,0,4.8-5.57c.25-.05.75.18,1.5.7l4.29,3.95a1.47,1.47,0,0,1,.29.92,13.41,13.41,0,0,1-1.43,2.6A13.2,13.2,0,0,1,93,269.24L97,273a1.09,1.09,0,0,1,.4.81,2.51,2.51,0,0,1-.62,1.43,8,8,0,0,0-1,1.35A22.41,22.41,0,0,1,92.57,279.6Zm11.25-5h-.44c-1.17-1.15-3-2.77-5.5-4.87l.15-.63c1.71-1.78,3.19-3.42,4.43-4.94l.51.07a31.19,31.19,0,0,1,2.79,2.42,15.65,15.65,0,0,1,2.41,2.86A14.25,14.25,0,0,1,103.82,274.59Z" transform="translate(-11.71 -95.15)" fill="#008082"/><path d="M11.71,181.64v-.84h.37a2.45,2.45,0,0,1,.68.24,2.16,2.16,0,0,0,.75.24A17.23,17.23,0,0,1,16.29,186q1.07,2.72,2,5.31,3.07,7.65,6.15,15.53l-.15.22c-.44.05-1.38-.48-2.84-1.58S18.2,200.69,16,194.39Q13.79,188,11.71,181.64Zm99.83,50.54-.36.22c-1.18.07-5,.26-11.58.55-4.63.19-8.46.29-11.46.29q-11.94,0-17.61-2.49Q63,227.6,58.08,218.15q-4.36-2.88-10.59-6.29a18.6,18.6,0,0,0-3.77-.37c-2.29,0-3.59,0-3.88-.07-.05,0-.25,0-.59,0l-.18.07a.06.06,0,0,1-.07-.07q-4.39,0-10.11-5.86A18,18,0,0,1,26,200.69c-1.91-4.06-2.88-6.53-2.93-7.44q-1.5-4.09-4.94-12.27l.07-.4a2.61,2.61,0,0,1,2.07,1c.67.71,1.31,1.35,1.92,1.94a2.32,2.32,0,0,0,.93,1.14,2.41,2.41,0,0,1,.94,1.06q2.16,5.52,6.52,16.18c1.53,3.76,3.09,5.89,4.65,6.38a35.09,35.09,0,0,0,4.58.44,32.19,32.19,0,0,1,5.38.47c1.81.39,2.88.61,3.22.66a14,14,0,0,1,3.15,1.21l.26-.07a16.44,16.44,0,0,1,1.94-3.37,3.88,3.88,0,0,1,3.15-1.83q2.24,0,5.38,3.4a11.62,11.62,0,0,1,2.42,5.53,33.44,33.44,0,0,0,1.43,6.08,21.08,21.08,0,0,0,4.17,6.08,10.93,10.93,0,0,0,6.37,3.37c1,.1,3.19.15,6.7.15q3.15,0,9.38-.15t9.37-.15a30,30,0,0,1,8.76,1C111.36,231.42,111.59,231.79,111.54,232.18Z" transform="translate(-11.71 -95.15)" fill="#008082"/></svg>