<svg id="Layer_1" data-name="Layer 1" xmlns="http://www.w3.org/2000/svg" viewBox="0 0 158.23 350.77"><rect x="104.84" y="3.5" width="49.89" height="343.77" fill="#fff" stroke="#008083" stroke-miterlimit="10" stroke-width="7"/><path d="M40.3,289.44a44.5,44.5,0,0,0,4.69.14,15.15,15.15,0,0,1,4.68.58v-.27q-2.09-2.19-2-4c.23-.93.59-1.5,1.08-1.69a3.45,3.45,0,0,1,1.28-.29A4.75,4.75,0,0,1,53,285.17c.2.21,1,1,2.46,2.39a5.88,5.88,0,0,1,1,2.74c.23,1.91.35,2.94.38,3.08s.12.62.3,1.46a3.58,3.58,0,0,1,0,1.47.38.38,0,0,1-.47.07,2.92,2.92,0,0,1-1.27-1.67q-4.06-2.94-6.22-2.87a45.55,45.55,0,0,0-5.74.13,31.46,31.46,0,0,1-3.86-1.88.37.37,0,0,1-.21-.3c0-.19.12-.32.34-.41A.82.82,0,0,1,40.3,289.44Zm10.77-2.87a1.08,1.08,0,0,0-.41.58A3.44,3.44,0,0,0,52,290.3c.28.23,1.28.9,3,2-.27-1-.58-2-.94-3A5.12,5.12,0,0,0,52.54,287C51.74,286.61,51.25,286.48,51.07,286.57Zm4.82-15.24a12.47,12.47,0,0,1,4,1.95c2.3,1.46,3.45,3,3.45,4.61a4.78,4.78,0,0,1-.53,1.83,4.91,4.91,0,0,0-.53,1.76,2.17,2.17,0,0,0,.48,1.27q3.15,4.1,7.14,4.2a3.38,3.38,0,0,0,2.09-2.6,6.34,6.34,0,0,1,1.71-3.14,8.35,8.35,0,0,1,5-1.4,29.88,29.88,0,0,1,6.6,1,30.33,30.33,0,0,1,11.38,5.61,20.92,20.92,0,0,1,7.59,10.15,11.37,11.37,0,0,1,.55,3.52,9,9,0,0,1-3.56,7.55,17.72,17.72,0,0,1-11,3.28,50.08,50.08,0,0,1-13.63-2.39q-3.93-1.16-9.47-3.28a3,3,0,0,1-.41-.75.48.48,0,0,1,.48-.31,1.11,1.11,0,0,1,.58,0,3.89,3.89,0,0,0,.48.07q11.34,3.45,16.1,3.45a17,17,0,0,0,8.54-2.12,8.77,8.77,0,0,0,3.28-7.35,15.73,15.73,0,0,0-3-9.12,17.68,17.68,0,0,0-7.52-6.33c-1.59-.7-2.79-.7-3.59,0a11.17,11.17,0,0,0-1.47,3.49,4.58,4.58,0,0,1-2.15,3A7.71,7.71,0,0,1,75,290l-4.44-.37q-8.44-2.16-12.1-8.1a3.63,3.63,0,0,1-.41-1.68,8,8,0,0,1,.92-3.14,2.47,2.47,0,0,0,.07-.58c0-.59-.75-1.55-2.26-2.87-.88-.76-1.33-1.22-1.33-1.4S55.57,271.47,55.89,271.33Zm39.72,10.56h-.45c-1.2-1.12-3-2.74-5.3-4.89l.21-.58c1.07-1.11,2.52-2.84,4.34-5.16v-.34l-4.07-3.45a2,2,0,0,1,0-.69,49.21,49.21,0,0,0,4.48-5.19c.23,0,.7.17,1.4.65l4,3.69a1.33,1.33,0,0,1,.27.85,11.8,11.8,0,0,1-1.33,2.43,12.53,12.53,0,0,1-3.14,3c.84.79,2.07,2,3.69,3.52a1,1,0,0,1,.37.75,2.26,2.26,0,0,1-.58,1.33,9.41,9.41,0,0,0-.89,1.27A21.79,21.79,0,0,1,95.61,281.89Zm10.49-4.68h-.41q-1.64-1.6-5.13-4.55l.14-.58q2.39-2.49,4.14-4.61l.47.06a29,29,0,0,1,2.6,2.26,14.46,14.46,0,0,1,2.26,2.67A13.34,13.34,0,0,1,106.1,277.21Z" transform="translate(-20.14 -85.15)" fill="#008082"/><path d="M20.14,190.46v-.79h.34a2.33,2.33,0,0,1,.63.23,2.32,2.32,0,0,0,.7.22,16,16,0,0,1,2.6,4.41c.66,1.68,1.29,3.34,1.88,4.95Q29.16,206.64,32,214l-.13.21c-.41,0-1.3-.44-2.65-1.47s-3.06-4.48-5.11-10.36Q22.09,196.41,20.14,190.46Zm93.17,47.17-.34.2q-1.64.1-10.8.51-6.49.28-10.7.28-11.14,0-16.44-2.33-7-2.94-11.62-11.75-4.06-2.7-9.88-5.88a17.5,17.5,0,0,0-3.52-.34c-2.14,0-3.35,0-3.62-.07,0-.05-.23-.05-.55,0l-.17.07a.06.06,0,0,1-.07-.07q-4.1,0-9.43-5.47a17.13,17.13,0,0,1-2.74-4.55q-2.66-5.67-2.73-6.94-1.39-3.82-4.61-11.45l.06-.37a2.42,2.42,0,0,1,1.93.92c.63.66,1.23,1.27,1.8,1.81a2.13,2.13,0,0,0,.87,1.06,2.31,2.31,0,0,1,.87,1q2,5.16,6.09,15.11,2.15,5.26,4.34,5.95a33,33,0,0,0,4.27.41,31.19,31.19,0,0,1,5,.44c1.69.37,2.69.57,3,.62a12.55,12.55,0,0,1,2.94,1.13l.24-.07a15.93,15.93,0,0,1,1.81-3.15A3.65,3.65,0,0,1,62.28,213q2.09,0,5,3.18a10.88,10.88,0,0,1,2.25,5.16A31.67,31.67,0,0,0,70.9,227a19.59,19.59,0,0,0,3.89,5.67,10.24,10.24,0,0,0,5.95,3.15q1.33.13,6.25.13,2.94,0,8.75-.13c3.88-.1,6.79-.14,8.75-.14a28.15,28.15,0,0,1,8.17.92C113.14,236.92,113.36,237.26,113.31,237.63Z" transform="translate(-20.14 -85.15)" fill="#008082"/></svg>