<svg id="Layer_1" data-name="Layer 1" xmlns="http://www.w3.org/2000/svg" viewBox="0 0 322.47 145.67"><path d="M137.11,32.5c80.48-.08,161.07.08,241.55,0q-.41,34.22-.82,68.41l-294.49-.52C86.44,92,90.46,81.68,95.1,70.89a112.45,112.45,0,0,1,7.05-14.1,70,70,0,0,1,7.07-10.43c3-3.33,7.14-5.14,15.4-8.77C127.94,36.14,132.07,34.19,137.11,32.5Z" transform="translate(-59.73 -28.98)" fill="#fff" stroke="#038183" stroke-miterlimit="10" stroke-width="7"/><path d="M63.76,154.2v17h38.87l.22-64c-6.24-.51-34.81-5.5-38,5.76-.69,2.42-1.41,4.3-1.54,11C63.15,131.78,63.17,142.07,63.76,154.2Z" transform="translate(-59.73 -28.98)" fill="#fff" stroke="#038183" stroke-miterlimit="10" stroke-width="7"/><path d="M105.41,158.39" transform="translate(-59.73 -28.98)" fill="none" stroke="#010101" stroke-miterlimit="10" stroke-width="7"/><path d="M60.24,158.39" transform="translate(-59.73 -28.98)" fill="none" stroke="#010101" stroke-miterlimit="10" stroke-width="7"/><circle cx="22.55" cy="95.67" r="6.25" fill="none" stroke="#038183" stroke-miterlimit="10" stroke-width="7"/><path d="M150.49,45.09q-.54,3.31-.2,13.4.15,3.9.15,6a44.72,44.72,0,0,1-1.39,12.06,25.68,25.68,0,0,1-5.67,10.54q-4.14,4.59-8.93,4.59A8.44,8.44,0,0,1,131.3,91q-5.4-2-5.15-10.13a34.1,34.1,0,0,1,2.76-12c.22-.36.45-.46.68-.29a2.4,2.4,0,0,1,0,1.05,28.15,28.15,0,0,0-1.44,7.91,12.94,12.94,0,0,0,.49,3.63,5.33,5.33,0,0,0,4.1,4,11.47,11.47,0,0,0,2.34.24,14.59,14.59,0,0,0,7.47-2.29q5.35-4.39,5.64-9.16c.07-1.14.1-2.35.1-3.63q0-2.72-.24-7.48-.3-5.14-.34-7.34c0-2.77-.05-4.14-.05-4.11a7.35,7.35,0,0,1,1.1-3.88,9.14,9.14,0,0,1,1.44-3C150.33,44.55,150.42,44.73,150.49,45.09Z" transform="translate(-59.73 -28.98)" fill="#008082"/><path d="M153.42,84.78l.63-.53q2.56-1.16,7.5-3.71a3.06,3.06,0,0,0,1.81-2.74,2.11,2.11,0,0,0-.1-.61c0-.39-.23-.59-.59-.59l-.66.05a1,1,0,0,1-.66,0,3.32,3.32,0,0,1-2.24-1.14,2.42,2.42,0,0,1-.39-1.32,4.73,4.73,0,0,1,.53-1.83c.44-1,.7-1.57.76-1.76a7.32,7.32,0,0,1,.66-1.86,2.31,2.31,0,0,1,1.44-1.29,2.07,2.07,0,0,1,1.81.44,6.37,6.37,0,0,1,1.68,3.9,6.17,6.17,0,0,0,2.66-4.34q.11-1.1,0-5.91a20.71,20.71,0,0,1,.59-5.79,11.85,11.85,0,0,1,4.05-5.51,60,60,0,0,1,7.15-3.59,39.73,39.73,0,0,0,7.11-3.81c.44-.42.74-.64.9-.64s.25.1.34.3a6.63,6.63,0,0,1-1.09,1.76,15.86,15.86,0,0,1-5.69,4.44q-3.26,1.44-6.52,2.95l-2,1a6.68,6.68,0,0,0-1.85,1.29,4.37,4.37,0,0,0-1,2.73q-.24,8-.56,10a17.21,17.21,0,0,1-3.68,8.87,1.8,1.8,0,0,0-.81,1.34,10.19,10.19,0,0,1-.44,1.59c-.37.91-.74,1.81-1.1,2.71a11,11,0,0,1-1.46,2.53,6.38,6.38,0,0,1-2.76.91c-1,.1-2,.22-3,.36a8.51,8.51,0,0,0-1.47.35,4.14,4.14,0,0,1-1.53.09C153.34,85.3,153.3,85.09,153.42,84.78ZM185.91,39.1l0,.4A12.2,12.2,0,0,1,181.81,43q-6.34,3-9.69,4.8a14.15,14.15,0,0,0-2.27,1.54c-.2.15-.34.07-.44-.24a9.54,9.54,0,0,1,3-3.54,51.56,51.56,0,0,1,6.6-3.32,48.81,48.81,0,0,0,6.59-3.35C185.76,38.93,185.88,39,185.91,39.1Z" transform="translate(-59.73 -28.98)" fill="#008082"/><path d="M205.47,71.79c.34-.45.76-.45,1.25,0,.69.59,1.49,1.22,2.39,1.88q.51.39.51.54a8,8,0,0,1-1.42,1.71l-1.56,1.64a2.14,2.14,0,0,1-1.34-.3,12.52,12.52,0,0,1-1.78-1.61c-.48-.47-.71-.75-.71-.83a8.89,8.89,0,0,1,1.34-1.56A18.81,18.81,0,0,0,205.47,71.79Z" transform="translate(-59.73 -28.98)" fill="#008082"/><path d="M220,85.83c.34-.4.56-.61.66-.61s.33.17.71.52a16.09,16.09,0,0,0,3.37,2.68c.06,0,.27-.19.61-.59a17.67,17.67,0,0,1,2.24-2.36c.07,0,.26.13.57.41a34.34,34.34,0,0,0,3.24,2.61s.07.13,0,.3a4.35,4.35,0,0,1-.85,1.24l-.34.39a25.56,25.56,0,0,1-1.86,2.13.86.86,0,0,1-.42.07,4.33,4.33,0,0,1-2.26-1.34,8.84,8.84,0,0,1-1.4-1.47c-.1-.18-.18-.27-.26-.29a9.31,9.31,0,0,0-1.3,1.39q-1.2,1.36-1.32,1.44a1.63,1.63,0,0,1-1.12-.27,9.27,9.27,0,0,1-2.22-1.75c-.57-.61-.86-1-.86-1.13A39.4,39.4,0,0,1,220,85.83Z" transform="translate(-59.73 -28.98)" fill="#008082"/><path d="M232.81,67.72a.8.8,0,0,1,1.1,0c.56.49,1.32,1.1,2.3,1.83.45.34.68.57.68.68s-.09.28-.32.54c-.53.62-1.23,1.36-2.07,2.22l-.56.61a2.37,2.37,0,0,1-1.76-.66,9.62,9.62,0,0,1-2-2.12,5,5,0,0,1,1-1.22l.37-.37C232.37,68.24,232.81,67.75,232.81,67.72Z" transform="translate(-59.73 -28.98)" fill="#008082"/><path d="M220,61.44c0,.52.35.78,1.1.76a5.47,5.47,0,0,0,4.29-1.29,5.54,5.54,0,0,0,1.37-1.74,9.67,9.67,0,0,0,.54-2.41,25.66,25.66,0,0,1,.95-4,4,4,0,0,1,.58-1.32c.22-.18.38-.23.49-.15a3.53,3.53,0,0,1,.1,1c0,2,.61,3.44,1.78,4.18q2.33,1.44,3.69,0a4.87,4.87,0,0,1,1.44-1.39.48.48,0,0,1,.44.19l-.15.56a11.56,11.56,0,0,1-4.81,6.55,2.43,2.43,0,0,1-1.93.43,4.09,4.09,0,0,1-2.12-1.34q-.19-.21-.27-.12a11.64,11.64,0,0,1-1.78,2.51,6.14,6.14,0,0,1-5,1.84l0,.78a48.16,48.16,0,0,1-.41,5.08q-1.72,10.68-8.94,17.06a12.46,12.46,0,0,1-6.18,2.73,11.11,11.11,0,0,1-3.1,0A7.92,7.92,0,0,1,196.49,86a21.59,21.59,0,0,1-.1-10,26.47,26.47,0,0,1,2.27-7c.18-.39.35-.59.51-.61s.4.22.42.57a6.07,6.07,0,0,1-.27,1.31A33.31,33.31,0,0,0,198,76.92a11.85,11.85,0,0,0,.61,4.76A5.57,5.57,0,0,0,202,84.76a12.91,12.91,0,0,0,8.55-1,15.43,15.43,0,0,0,7-7.81,18.44,18.44,0,0,0,1.15-9.11,15.41,15.41,0,0,1,0-4.05,7.89,7.89,0,0,1,.48-1.34c.14-.28.25-.42.35-.42C219.83,60.94,220,61.09,220,61.44Z" transform="translate(-59.73 -28.98)" fill="#008082"/><path d="M288.62,67.25a13.37,13.37,0,0,1,.35,3,13.65,13.65,0,0,1-1.68,6.56A14.78,14.78,0,0,1,282.72,82q-5.21,2.79-14.09,3.39a39.94,39.94,0,0,1-12.4-.7,3.91,3.91,0,0,1-2.81-2.1,10.54,10.54,0,0,1-.39-2.93,35.53,35.53,0,0,1,.73-5.67c.08-.29.24-.44.46-.44s.39.1.39.3v2.58a2.07,2.07,0,0,0,1.32,1.91q4.45,1.66,14.48,1.46,8.76-.21,13.41-2a5.76,5.76,0,0,0,3.24-3c0-1.07-.19-1.72-.58-2-1.84.13-3.1-.08-3.76-.61a2.12,2.12,0,0,1-.59-2.3c.36-1,.79-2.44,1.29-4.34a5.33,5.33,0,0,1,.61-1,1.92,1.92,0,0,1,.93-.76,2.52,2.52,0,0,1,2.05.61A5.75,5.75,0,0,1,288.62,67.25ZM281.71,56.9,285,53h.37c.54.5,1.78,1.54,3.73,3.1l-.05.44q-.94,1.2-3.05,3.51a1.31,1.31,0,0,1-.39,0,4.49,4.49,0,0,1-1.75-.85c-.49-.44-1.19-1.11-2.11-2Z" transform="translate(-59.73 -28.98)" fill="#008082"/><path d="M298.68,83.49c-1.43,3.21-2.15,5.49-2.15,6.86.1.73.34,1.16.71,1.29.2.1.38,0,.54-.35l.52-1.07a.65.65,0,0,1,.82-.43,1,1,0,0,1,.59.69c.08.34.15.68.22,1a4.22,4.22,0,0,1-2.15,3.9,1.81,1.81,0,0,1-.61.1,2.4,2.4,0,0,1-1.73-.9,4,4,0,0,1-.66-2.25,14.55,14.55,0,0,0,.09-2.46,19.66,19.66,0,0,1,2-5.11l-.1.08A3,3,0,0,1,296,85a3.22,3.22,0,0,1-2-.7q-2.06-2.1-2-6.86,0-2.79.27-8.89.28-5.86.24-8.77a8.87,8.87,0,0,1,.9-2.49,22,22,0,0,0,1.1-2.39.46.46,0,0,1,.25-.19c.09,0,.16,0,.19,0l.27.25-.12,1.59c-.16,2.06-.38,5.15-.64,9.25a45,45,0,0,0,0,9,4.82,4.82,0,0,0,2.5,3.89,1.58,1.58,0,0,0,1.91-.18c.13-.58.26-1.18.39-1.78a2.84,2.84,0,0,1,.8-1.61,1,1,0,0,1,1.16.14,1.36,1.36,0,0,1,.5,1.11,3.76,3.76,0,0,1-.17,1,4.1,4.1,0,0,0-.17.86A11.47,11.47,0,0,1,298.68,83.49Z" transform="translate(-59.73 -28.98)" fill="#008082"/><circle cx="22.55" cy="126.29" r="6.25" fill="none" stroke="#038183" stroke-miterlimit="10" stroke-width="7"/></svg>