<svg id="Layer_1" data-name="Layer 1" xmlns="http://www.w3.org/2000/svg" viewBox="0 0 335.04 158.95"><polygon points="279.54 4.08 14.87 31.49 14.87 154.37 318.29 154.37 279.54 4.08" fill="#fff" stroke="#008083" stroke-miterlimit="10" stroke-width="7"/><ellipse cx="347.31" cy="104.31" rx="21.57" ry="78.88" transform="translate(-61.66 76.6) rotate(-16.26)" fill="#fff" stroke="#008083" stroke-miterlimit="10" stroke-width="7"/><line x1="49.84" y1="29.6" x2="49.84" y2="154.37" fill="none" stroke="#008083" stroke-miterlimit="10" stroke-width="7"/><path d="M136.28,120.73q-.48,3.42-3.62,9.1a4.45,4.45,0,0,1-2.94,2.08l-3.59.92c-.89.28-2.24.68-4,1.2-.43,0-.69-.14-.78-.41s.31-.7.92-1.06q2.8-1.68,5.61-3.28a37.36,37.36,0,0,0,5.23-4,3,3,0,0,0,.41-2.33,3.11,3.11,0,0,0-1-1.4,6.48,6.48,0,0,1-1.33.14,4.39,4.39,0,0,1-3.8-1.74,3.42,3.42,0,0,1-.48-1.75,6.68,6.68,0,0,1,.62-2.46,21.47,21.47,0,0,0,1.06-2.32c.32-.82.62-1.7.92-2.63a3.75,3.75,0,0,1,2-2,3.36,3.36,0,0,1,3.72,1.88,11.8,11.8,0,0,1,1.54,6.15A16.19,16.19,0,0,1,136.28,120.73Z" transform="translate(-46.35 -24.84)" fill="#048182"/><path d="M146.12,132.9c-.84.18-2.22.45-4.13.79a.7.7,0,0,1-.76-.45c0-.41.28-.79,1-1.16q2.67-1.71,5.33-3.38a41.31,41.31,0,0,0,5.1-3.76,24.22,24.22,0,0,0,3.86-6.8l2.66-7.56a.88.88,0,0,1,.93-.58c.41,0,.61.19.61.58a23.13,23.13,0,0,1-1.13,6.09A52.2,52.2,0,0,1,154.39,130a5,5,0,0,1-3.72,2.32ZM157,105.39l-.35-.14a28.87,28.87,0,0,1-4.41-4.34c-.09-.23,0-.53.33-.91a6,6,0,0,0,.53-.7c.8-.84,2-2,3.55-3.55l.58.07a41.43,41.43,0,0,0,4,3.89l.14.38a.3.3,0,0,1,0,.41A58.68,58.68,0,0,1,157,105.39Z" transform="translate(-46.35 -24.84)" fill="#048182"/><path d="M170.59,137.69a1.11,1.11,0,0,1,1.54-.07c.78.68,1.85,1.54,3.22,2.56.63.48,1,.8,1,1s-.12.39-.44.75c-.75.87-1.72,1.9-2.91,3.11l-.78.86a3.29,3.29,0,0,1-2.46-.93,13.2,13.2,0,0,1-2.84-3,7.11,7.11,0,0,1,1.37-1.71l.51-.51C170,138.41,170.59,137.73,170.59,137.69Z" transform="translate(-46.35 -24.84)" fill="#048182"/><path d="M178.87,120.39c.41.14.57.61.47,1.4a17.83,17.83,0,0,1-3,9,8.55,8.55,0,0,1-3.07,2.7c-2.58.95-4.51.09-5.78-2.6a15.85,15.85,0,0,1-1.27-4.55,91.86,91.86,0,0,1-.2-10q0-6.87,0-11.49l-.1-4.61.34-.65a12.23,12.23,0,0,1,2.29-3.45.42.42,0,0,1,.48,0,65.1,65.1,0,0,1-.17,8,103.42,103.42,0,0,0,0,12.21,23,23,0,0,0,1.06,5.6A5.63,5.63,0,0,0,172,124.8a3.51,3.51,0,0,0,3.79,0,4.46,4.46,0,0,0,1.68-2,4.85,4.85,0,0,0,.68-1.91A.8.8,0,0,1,178.87,120.39Z" transform="translate(-46.35 -24.84)" fill="#048182"/><path d="M240.32,77.8q-.75,4.65-.27,18.77.19,5.46.2,8.34a62.69,62.69,0,0,1-1.95,16.88,36,36,0,0,1-7.93,14.77Q224.57,143,217.86,143a11.79,11.79,0,0,1-4.4-.85q-7.56-2.83-7.22-14.18a47.78,47.78,0,0,1,3.87-16.82c.32-.5.63-.64.95-.41a3.64,3.64,0,0,1,0,1.47,39.6,39.6,0,0,0-2,11.07,18.38,18.38,0,0,0,.68,5.1,7.48,7.48,0,0,0,5.74,5.53,15.61,15.61,0,0,0,3.28.34A20.45,20.45,0,0,0,229.21,131q7.48-6.15,7.9-12.82c.09-1.59.13-3.29.13-5.09,0-2.53-.11-6-.34-10.46q-.41-7.22-.48-10.29c0-3.87-.06-5.78-.06-5.74a10.37,10.37,0,0,1,1.53-5.43,13,13,0,0,1,2-4.14C240.09,77.05,240.23,77.3,240.32,77.8Z" transform="translate(-46.35 -24.84)" fill="#048182"/><path d="M244.42,133.38l.89-.75q3.58-1.6,10.49-5.2a4.25,4.25,0,0,0,2.53-3.83,2.7,2.7,0,0,0-.13-.85c-.05-.55-.32-.82-.82-.82-.12,0-.43,0-.93.07a1.54,1.54,0,0,1-.92,0,4.65,4.65,0,0,1-3.14-1.61,3.3,3.3,0,0,1-.55-1.84,6.56,6.56,0,0,1,.75-2.57c.62-1.36,1-2.19,1.06-2.46a10.73,10.73,0,0,1,.92-2.6,3.26,3.26,0,0,1,2-1.81,2.88,2.88,0,0,1,2.53.62,8.86,8.86,0,0,1,2.36,5.47q2.81-1.68,3.72-6.09.14-1.53,0-8.27a28.93,28.93,0,0,1,.82-8.1q2.33-5.53,5.68-7.72a83.39,83.39,0,0,1,10-5,56.27,56.27,0,0,0,10-5.33c.61-.59,1-.89,1.26-.89s.35.14.48.41a9.34,9.34,0,0,1-1.54,2.46,21.84,21.84,0,0,1-8,6.22q-4.54,2-9.13,4.14L272,88.33a9.49,9.49,0,0,0-2.6,1.81A6.19,6.19,0,0,0,268.07,94c-.22,7.47-.49,12.15-.78,14q-1.17,7.77-5.16,12.41a2.57,2.57,0,0,0-1.13,1.88,12.8,12.8,0,0,1-.62,2.22c-.52,1.28-1,2.54-1.53,3.8a15.45,15.45,0,0,1-2.05,3.55,8.92,8.92,0,0,1-3.87,1.27q-2.09.19-4.17.51a11.67,11.67,0,0,0-2,.48,5.85,5.85,0,0,1-2.15.13C244.31,134.1,244.26,133.81,244.42,133.38Zm45.5-63.95-.07.55a17,17,0,0,1-5.68,5q-8.88,4.21-13.57,6.74a18.22,18.22,0,0,0-3.17,2.15c-.28.2-.48.09-.62-.34a13.14,13.14,0,0,1,4.14-5,73.92,73.92,0,0,1,9.22-4.65,67.77,67.77,0,0,0,9.23-4.68C289.7,69.19,289.87,69.27,289.92,69.43Z" transform="translate(-46.35 -24.84)" fill="#048182"/><polygon points="279.61 3.91 18.02 32.36 14.57 154.41 318.41 154.41 279.61 3.91" fill="#fff" stroke="#008083" stroke-miterlimit="10" stroke-width="7"/><ellipse cx="347.66" cy="104" rx="21.6" ry="78.56" transform="translate(-61.56 76.69) rotate(-16.26)" fill="#fff" stroke="#008083" stroke-miterlimit="10" stroke-width="7"/><path d="M99.39,180.25" transform="translate(-46.35 -24.84)" fill="none" stroke="#008083" stroke-miterlimit="10" stroke-width="7"/><path d="M99.39,55.3" transform="translate(-46.35 -24.84)" fill="none" stroke="#008083" stroke-miterlimit="10" stroke-width="7"/><path d="M144.16,121.61a26.87,26.87,0,0,1-3.36,8.44,4.11,4.11,0,0,1-2.73,1.93l-3.34.86c-.82.25-2.07.63-3.74,1.11-.4,0-.65-.12-.73-.38s.29-.64.86-1c1.73-1,3.47-2.05,5.2-3.05a34.41,34.41,0,0,0,4.86-3.71,2.73,2.73,0,0,0,.38-2.16,2.78,2.78,0,0,0-.89-1.3,7.07,7.07,0,0,1-1.24.13,4.09,4.09,0,0,1-3.52-1.62,3.15,3.15,0,0,1-.45-1.62A6,6,0,0,1,136,117a20.43,20.43,0,0,0,1-2.16c.3-.76.58-1.57.86-2.44a3.48,3.48,0,0,1,1.87-1.87,3.12,3.12,0,0,1,3.46,1.74,11.06,11.06,0,0,1,1.43,5.72A15,15,0,0,1,144.16,121.61Z" transform="translate(-46.35 -24.84)" fill="#048182"/><path d="M153.3,132.91c-.78.16-2.06.41-3.84.72-.38,0-.61-.13-.7-.41s.26-.74.89-1.08c1.65-1.06,3.3-2.1,4.95-3.14a37.09,37.09,0,0,0,4.73-3.49,22.1,22.1,0,0,0,3.59-6.32c.82-2.35,1.65-4.68,2.47-7a.82.82,0,0,1,.86-.54q.57,0,.57.54a21.17,21.17,0,0,1-1,5.65A48.8,48.8,0,0,1,161,130.24a4.73,4.73,0,0,1-3.46,2.16Zm10.13-25.55-.32-.13a27.11,27.11,0,0,1-4.1-4c-.08-.21,0-.49.31-.84a6.76,6.76,0,0,0,.49-.65q1.11-1.18,3.3-3.3l.54.06a38.64,38.64,0,0,0,3.68,3.62l.13.35a.28.28,0,0,1,0,.38A53.65,53.65,0,0,1,163.43,107.36Z" transform="translate(-46.35 -24.84)" fill="#048182"/><path d="M176,137.35a1,1,0,0,1,1.42-.06c.72.63,1.72,1.42,3,2.38.59.44.89.74.89.88s-.12.36-.42.7c-.69.81-1.59,1.77-2.69,2.89l-.73.79a3.09,3.09,0,0,1-2.29-.85,12.37,12.37,0,0,1-2.63-2.76,6.4,6.4,0,0,1,1.27-1.59l.47-.48C175.45,138,176,137.39,176,137.35Z" transform="translate(-46.35 -24.84)" fill="#048182"/><path d="M183.71,121.29c.38.12.53.56.44,1.3a16.64,16.64,0,0,1-2.76,8.38,7.93,7.93,0,0,1-2.86,2.51c-2.39.88-4.18.08-5.36-2.42a14.57,14.57,0,0,1-1.17-4.22,81.57,81.57,0,0,1-.2-9.3q0-6.37,0-10.66l-.09-4.29.32-.6a11.18,11.18,0,0,1,2.12-3.2.37.37,0,0,1,.45,0,63.73,63.73,0,0,1-.16,7.46,93,93,0,0,0,0,11.33,21.75,21.75,0,0,0,1,5.2,5.23,5.23,0,0,0,2,2.57,3.25,3.25,0,0,0,3.52,0,4.18,4.18,0,0,0,1.56-1.84,4.46,4.46,0,0,0,.63-1.77A.74.74,0,0,1,183.71,121.29Z" transform="translate(-46.35 -24.84)" fill="#048182"/><path d="M236,100.79a8.69,8.69,0,0,1,2.26.54,5.43,5.43,0,0,0,2.15.25c1.17-.21,1.93-1.1,2.29-2.67V93.07a16.29,16.29,0,0,1,1.08-5.93,13.55,13.55,0,0,1,6.06-7.08l7.74-3.65a43.58,43.58,0,0,0,7.46-4.22s.23-.18.56-.41a1.5,1.5,0,0,1,.68-.35c.17,0,.3.12.38.38a4.44,4.44,0,0,1-1.08,2,29.66,29.66,0,0,1-4,3.81,44.65,44.65,0,0,1-7,3.52,65.18,65.18,0,0,0-7,3.43c-1.74,1.06-2.6,2.91-2.6,5.55q0,.64.12,2.67a17.26,17.26,0,0,1,.1,2.63,15.42,15.42,0,0,1-2.16,8,3.22,3.22,0,0,1-2.48,1.71,7,7,0,0,1-2.41-.39,9,9,0,0,0-2.19-.46,2.9,2.9,0,0,0-1.71.51,4.41,4.41,0,0,0-2.67,4.15c.19,1.19,1.1,2,2.73,2.54q2.76.8,3.27,2.16a10.69,10.69,0,0,1,.7,3.91,42.42,42.42,0,0,1-.64,5.39q-3.45,13.4-13.39,17.93a10.37,10.37,0,0,1-4.54,1,8.49,8.49,0,0,1-6.12-2.23q-4.23-4-4.23-11.48a41.63,41.63,0,0,1,1.37-9.78q.74-3,3.84-11.43a.92.92,0,0,1,.86-.44,1.91,1.91,0,0,1,.19.83c0-.3-.18.38-.54,2a79.35,79.35,0,0,0-2.54,10.79c0,.91-.06,1.71-.06,2.41q0,7.14,3.9,10.12a9.13,9.13,0,0,0,4.76,1.24,15.88,15.88,0,0,0,8.25-2.54,18.16,18.16,0,0,0,6.38-7.74c.51-1.29.46-2.26-.16-2.92a11.15,11.15,0,0,0-3.11-1.37,4.66,4.66,0,0,1-2.85-2,6.51,6.51,0,0,1-.86-3.5,44.37,44.37,0,0,1,.92-5.64,26,26,0,0,1,2.16-4.77C233.08,101.7,234.45,100.79,236,100.79Zm.32-10.38-.13.5a55.48,55.48,0,0,1-3.9,4.35,4.5,4.5,0,0,1-2.67-1.08,19.34,19.34,0,0,1-2.6-2.54,23.13,23.13,0,0,1,4.22-5.14l.54.07Q233.86,88.51,236.33,90.41Z" transform="translate(-46.35 -24.84)" fill="#048182"/><path d="M66.57,78" transform="translate(-46.35 -24.84)" fill="none" stroke="#fff" stroke-miterlimit="10" stroke-width="7"/><path d="M57.5,78" transform="translate(-46.35 -24.84)" fill="none" stroke="#fff" stroke-miterlimit="10" stroke-width="7"/><path d="M66.57,86.75" transform="translate(-46.35 -24.84)" fill="none" stroke="#fff" stroke-miterlimit="10" stroke-width="7"/><path d="M57.5,86.75" transform="translate(-46.35 -24.84)" fill="none" stroke="#fff" stroke-miterlimit="10" stroke-width="7"/><path d="M66.57,95.52" transform="translate(-46.35 -24.84)" fill="none" stroke="#fff" stroke-miterlimit="10" stroke-width="7"/><path d="M57.5,95.52" transform="translate(-46.35 -24.84)" fill="none" stroke="#fff" stroke-miterlimit="10" stroke-width="7"/><path d="M66.57,104.31" transform="translate(-46.35 -24.84)" fill="none" stroke="#fff" stroke-miterlimit="10" stroke-width="7"/><path d="M57.5,104.31" transform="translate(-46.35 -24.84)" fill="none" stroke="#fff" stroke-miterlimit="10" stroke-width="7"/><path d="M66.57,114.82" transform="translate(-46.35 -24.84)" fill="none" stroke="#fff" stroke-miterlimit="10" stroke-width="7"/><path d="M57.5,114.82" transform="translate(-46.35 -24.84)" fill="none" stroke="#fff" stroke-miterlimit="10" stroke-width="7"/><path d="M65.75,124" transform="translate(-46.35 -24.84)" fill="none" stroke="#fff" stroke-miterlimit="10" stroke-width="7"/><path d="M56.68,124" transform="translate(-46.35 -24.84)" fill="none" stroke="#fff" stroke-miterlimit="10" stroke-width="7"/><path d="M65.75,133.24" transform="translate(-46.35 -24.84)" fill="none" stroke="#fff" stroke-miterlimit="10" stroke-width="7"/><path d="M56.68,133.24" transform="translate(-46.35 -24.84)" fill="none" stroke="#fff" stroke-miterlimit="10" stroke-width="7"/><path d="M65.45,142.46" transform="translate(-46.35 -24.84)" fill="none" stroke="#fff" stroke-miterlimit="10" stroke-width="7"/><path d="M56.38,142.46" transform="translate(-46.35 -24.84)" fill="none" stroke="#fff" stroke-miterlimit="10" stroke-width="7"/><path d="M65.45,152.8" transform="translate(-46.35 -24.84)" fill="none" stroke="#fff" stroke-miterlimit="10" stroke-width="7"/><path d="M56.38,152.8" transform="translate(-46.35 -24.84)" fill="none" stroke="#fff" stroke-miterlimit="10" stroke-width="7"/><path d="M65.45,162.44" transform="translate(-46.35 -24.84)" fill="none" stroke="#fff" stroke-miterlimit="10" stroke-width="7"/><path d="M56.38,162.44" transform="translate(-46.35 -24.84)" fill="none" stroke="#fff" stroke-miterlimit="10" stroke-width="7"/><path d="M65.45,173.07" transform="translate(-46.35 -24.84)" fill="none" stroke="#fff" stroke-miterlimit="10" stroke-width="7"/><path d="M56.38,173.07" transform="translate(-46.35 -24.84)" fill="none" stroke="#fff" stroke-miterlimit="10" stroke-width="7"/><rect y="29.6" width="11.91" fill="none" stroke="#008083" stroke-miterlimit="10" stroke-width="2"/><rect y="37.6" width="11.91" fill="none" stroke="#008083" stroke-miterlimit="10" stroke-width="2"/><rect y="45.6" width="11.91" fill="none" stroke="#008083" stroke-miterlimit="10" stroke-width="2"/><rect y="53.6" width="11.91" fill="none" stroke="#008083" stroke-miterlimit="10" stroke-width="2"/><rect y="61.6" width="11.91" fill="none" stroke="#008083" stroke-miterlimit="10" stroke-width="2"/><rect y="69.6" width="11.91" fill="none" stroke="#008083" stroke-miterlimit="10" stroke-width="2"/><rect y="77.6" width="11.91" fill="none" stroke="#008083" stroke-miterlimit="10" stroke-width="2"/><rect y="85.6" width="11.91" fill="none" stroke="#008083" stroke-miterlimit="10" stroke-width="2"/><rect y="93.6" width="11.91" fill="none" stroke="#008083" stroke-miterlimit="10" stroke-width="2"/><rect y="101.6" width="11.91" fill="none" stroke="#008083" stroke-miterlimit="10" stroke-width="2"/><rect y="109.6" width="11.91" fill="none" stroke="#008083" stroke-miterlimit="10" stroke-width="2"/><rect y="117.6" width="11.91" fill="none" stroke="#008083" stroke-miterlimit="10" stroke-width="2"/><rect y="125.6" width="11.91" fill="none" stroke="#008083" stroke-miterlimit="10" stroke-width="2"/><rect y="133.6" width="11.91" fill="none" stroke="#008083" stroke-miterlimit="10" stroke-width="2"/><rect y="141.6" width="11.91" fill="none" stroke="#008083" stroke-miterlimit="10" stroke-width="2"/><rect y="149.6" width="11.91" fill="none" stroke="#008083" stroke-miterlimit="10" stroke-width="2"/><rect x="1.04" y="156.79" width="10.87" height="0.12" fill="none" stroke="#008083" stroke-miterlimit="10" stroke-width="2"/></svg>