<svg id="Layer_1" data-name="Layer 1" xmlns="http://www.w3.org/2000/svg" viewBox="0 0 271.68 131.3"><path d="M388.48,161.65H123.8V68.92l31.56-31.57H358.1l30.38,30.39Z" transform="translate(-120.3 -33.85)" fill="#fff" stroke="#008083" stroke-miterlimit="10" stroke-width="7"/><circle cx="28.02" cy="67.72" r="4.58" fill="#fff" stroke="#008083" stroke-miterlimit="10" stroke-width="7"/><circle cx="28.02" cy="67.72" r="2.51" fill="none" stroke="#fff" stroke-miterlimit="10" stroke-width="3"/><circle cx="55.61" cy="67.59" r="4.58" fill="#fff" stroke="#008083" stroke-miterlimit="10" stroke-width="7"/><circle cx="55.61" cy="67.59" r="2.51" fill="none" stroke="#fff" stroke-miterlimit="10" stroke-width="3"/><path d="M273.14,71.08l8.89-6a54.25,54.25,0,0,0,4.86-4.15c.2-.08.41,0,.61.37a20,20,0,0,1-2.09,3.78,11.71,11.71,0,0,1-3.07,3.2q-1.75,1.34-3.54,2.65l-9.32,6.24c-1.73,1.19-2.73,2.31-3,3.36q-.18,5.1-.43,10.21a33.68,33.68,0,0,1-1.6,9.69,11.22,11.22,0,0,1-4.38,5.54,10.77,10.77,0,0,1-6.75,2,5.9,5.9,0,0,1-3-1,25.26,25.26,0,0,1-8.4,4.21,72.47,72.47,0,0,1-18.21,2.59,41.46,41.46,0,0,1-9.44-1q-3.51-.8-4-3.84a17,17,0,0,1-.25-3,36.28,36.28,0,0,1,1-7,1.75,1.75,0,0,1,.43-.37c.32-.14.58,0,.77.56V102a2.88,2.88,0,0,0,1.2,2.34,23.49,23.49,0,0,0,7.93,1.81q1.69.12,8.49.12a57.64,57.64,0,0,0,17.84-2.37l.07-.15a8.74,8.74,0,0,1-.59-3.2,10.89,10.89,0,0,1,2.83-7.26,5.17,5.17,0,0,1,4.31-2.12,3.73,3.73,0,0,1,3.14,2.12,7.16,7.16,0,0,1,.36,2.28,10.41,10.41,0,0,1-1.56,5.17c-.5.71-1.28,1.79-2.34,3.23a7.89,7.89,0,0,0,1.32.12,10.74,10.74,0,0,0,6.31-2.4q1.62-1.2,2.15-5a32.44,32.44,0,0,0,.19-3.66c0-.58,0-1.46-.07-2.65V87.75a22.73,22.73,0,0,1,.74-6.36,34.27,34.27,0,0,1,2-4.09,10.61,10.61,0,0,1,3-3.51ZM248,83.23V83q1.5-1.72,4.52-4.8l.46.18a41.24,41.24,0,0,0,4.52,3.91l-.12.49a25.91,25.91,0,0,1-4.09,4.49c-.68.13-1.65-.4-2.9-1.57A19.67,19.67,0,0,1,248,83.23Zm6.36,12.52a2.79,2.79,0,0,0-2-.55,4.12,4.12,0,0,0-3.14,2.34,10.6,10.6,0,0,0-.06,1.14,5.93,5.93,0,0,0,1.51,4,.93.93,0,0,0,.34-.06.69.69,0,0,1,.21-.06c2.49-1.39,3.79-2.77,3.91-4.12A2.38,2.38,0,0,0,254.37,95.75Z" transform="translate(-120.3 -33.85)" fill="#008082"/><path d="M362.28,67.85l-12.4,5.88q-3,1.38-3.05,3.57-.06,5-.67,14.76c-.56,4-2,6.55-4.28,7.6a2.8,2.8,0,0,1-.89.18,5.59,5.59,0,0,1-1.82-.52,3.59,3.59,0,0,0-2.09-.34,4.57,4.57,0,0,0-1.44,1.76c-.68,1-1.06,1.66-1.14,1.84q-2.72,4.59-5.23,6a34.55,34.55,0,0,1-10.52,3.54,73.45,73.45,0,0,1-13.23,1.32,47.65,47.65,0,0,1-8-.65c-2.77-.49-4.43-1.57-5-3.26a13.88,13.88,0,0,1-.43-3.6,60,60,0,0,1,.74-6.79,1.37,1.37,0,0,1,.58-.71c.41-.25.62-.09.62.46,0,1,0,2,.06,3a2.73,2.73,0,0,0,1.26,2.46,25.53,25.53,0,0,0,7.94,1.51l8.46.25q11.66-.61,17.13-2.4c2.89-.93,5.26-3.25,7.11-7a6,6,0,0,1,1.56-1.19,4.34,4.34,0,0,1,2.31.32,7,7,0,0,0,2.12.51,1.65,1.65,0,0,0,.68-.13,4.25,4.25,0,0,0,1.45-3.35V88.89q0-8.23.64-10.83,2.13-5.4,4.92-7.19A70.63,70.63,0,0,1,359,66.1a93.18,93.18,0,0,0,9.38-4.55l.12.33a4,4,0,0,1-1.2,1.82A6,6,0,0,0,366,65.45Q365.45,66.41,362.28,67.85ZM313.21,89.2c1.56-1.13,2.69-1.69,3.39-1.69a3.31,3.31,0,0,1,.64.06,1.85,1.85,0,0,1,1.23,1,3.42,3.42,0,0,1,.22,1.12,3.68,3.68,0,0,1-.91,2.23c-.61.77-1.2,1.5-1.77,2.2a3.7,3.7,0,0,1-2.61,1.23l-3,.37a4.71,4.71,0,0,0-1.06.2,4.22,4.22,0,0,1-1.09.2,1.66,1.66,0,0,1-.77-.21c0-.41.3-.76.89-1a1.6,1.6,0,0,0,1-.69l.76-1.09a7.12,7.12,0,0,0,1.6-4.65V83.23c.09-.24.63-1.28,1.63-3.1a.45.45,0,0,1,.5.21,43.19,43.19,0,0,0-.13,4.46A15.7,15.7,0,0,1,313.21,89.2Zm3.14,1.38c-.08-.32-.44-.49-1.08-.49A3.22,3.22,0,0,0,313,91.51q-1,1.29-1.8,2.49a15.86,15.86,0,0,0,3.72-1.14C316,92.06,316.51,91.3,316.35,90.58Z" transform="translate(-120.3 -33.85)" fill="#008082"/></svg>