<svg id="Layer_1" data-name="Layer 1" xmlns="http://www.w3.org/2000/svg" viewBox="0 0 321.95 158.04"><polygon points="264.54 6.89 3.5 32.18 3.5 154.5 301.23 150.85 264.54 6.89" fill="#fff" stroke="#008083" stroke-miterlimit="10" stroke-width="7"/><ellipse cx="342.58" cy="104.59" rx="21.47" ry="78.09" transform="translate(-73.07 74.25) rotate(-16.26)" fill="#fff" stroke="#008083" stroke-miterlimit="10" stroke-width="7"/><path d="M95.8,180.38" transform="translate(-57.49 -25.88)" fill="none" stroke="#1d1d1b" stroke-miterlimit="10"/><path d="M95.8,56.18" transform="translate(-57.49 -25.88)" fill="none" stroke="#1d1d1b" stroke-miterlimit="10"/><rect x="6.29" y="72.64" width="84.29" height="39.52" fill="#fff" stroke="#008083" stroke-miterlimit="10" stroke-width="7"/><line x1="68.06" y1="72.64" x2="68.06" y2="112.16" fill="none" stroke="#008083" stroke-miterlimit="10" stroke-width="7"/><line x1="45.47" y1="72.64" x2="45.47" y2="112.16" fill="none" stroke="#008083" stroke-miterlimit="10" stroke-width="7"/><path d="M79.81,138" transform="translate(-57.49 -25.88)" fill="none" stroke="#1d1d1b" stroke-miterlimit="10"/><path d="M79.81,100.09" transform="translate(-57.49 -25.88)" fill="none" stroke="#1d1d1b" stroke-miterlimit="10"/><path d="M181.15,123.33a23,23,0,0,1-2.9,7.28,3.56,3.56,0,0,1-2.35,1.66L173,133l-3.23,1q-.53,0-.63-.33c0-.27.25-.55.74-.85,1.49-.89,3-1.76,4.48-2.62a29.55,29.55,0,0,0,4.19-3.2,2.15,2.15,0,0,0-.44-3,6,6,0,0,1-1.07.11,3.49,3.49,0,0,1-3-1.4,2.65,2.65,0,0,1-.38-1.39,5.26,5.26,0,0,1,.49-2,17.72,17.72,0,0,0,.85-1.86c.25-.65.5-1.36.73-2.1a3,3,0,0,1,1.62-1.62,2.71,2.71,0,0,1,3,1.51,9.46,9.46,0,0,1,1.23,4.92A13.09,13.09,0,0,1,181.15,123.33Z" transform="translate(-57.49 -25.88)" fill="#048182"/><path d="M189,133.07c-.67.14-1.77.35-3.31.63a.55.55,0,0,1-.6-.36c0-.33.22-.64.77-.93l4.26-2.71a31.9,31.9,0,0,0,4.08-3,19.36,19.36,0,0,0,3.09-5.45l2.13-6a.7.7,0,0,1,.74-.46c.33,0,.49.15.49.46a19,19,0,0,1-.9,4.87,42.38,42.38,0,0,1-4.13,10.69,4.08,4.08,0,0,1-3,1.86Zm8.73-22-.28-.11a22.85,22.85,0,0,1-3.53-3.48c-.07-.18,0-.42.26-.72a5.6,5.6,0,0,0,.43-.56c.64-.68,1.58-1.62,2.84-2.85l.47.06a32.57,32.57,0,0,0,3.17,3.12l.11.3a.24.24,0,0,1,0,.33A44.79,44.79,0,0,1,197.75,111.06Z" transform="translate(-57.49 -25.88)" fill="#048182"/><path d="M208.6,136.9a.89.89,0,0,1,1.23-.06c.62.55,1.48,1.23,2.57,2,.51.38.77.64.77.77s-.1.31-.36.6c-.6.69-1.37,1.52-2.32,2.49l-.63.68a2.67,2.67,0,0,1-2-.74,10.57,10.57,0,0,1-2.27-2.38,5.72,5.72,0,0,1,1.09-1.36l.41-.41C208.11,137.48,208.6,136.93,208.6,136.9Z" transform="translate(-57.49 -25.88)" fill="#048182"/><path d="M215.22,123.06c.33.11.45.48.38,1.12a14.29,14.29,0,0,1-2.38,7.22,6.72,6.72,0,0,1-2.46,2.16c-2.06.77-3.6.07-4.62-2.08a12.69,12.69,0,0,1-1-3.64,72.37,72.37,0,0,1-.17-8q0-5.49,0-9.18l-.09-3.7.28-.52a9.8,9.8,0,0,1,1.83-2.76.33.33,0,0,1,.38,0,54.08,54.08,0,0,1-.13,6.43,83.66,83.66,0,0,0,0,9.76,18.64,18.64,0,0,0,.85,4.48,4.56,4.56,0,0,0,1.72,2.22,2.79,2.79,0,0,0,3,0,3.59,3.59,0,0,0,1.34-1.58,3.76,3.76,0,0,0,.55-1.53A.63.63,0,0,1,215.22,123.06Z" transform="translate(-57.49 -25.88)" fill="#048182"/><path d="M264.38,89q-.6,3.72-.22,15,.16,4.38.17,6.67a50.16,50.16,0,0,1-1.56,13.51A28.82,28.82,0,0,1,256.43,136q-4.65,5.14-10,5.14a9.39,9.39,0,0,1-3.53-.68q-6-2.26-5.77-11.35a38.38,38.38,0,0,1,3.09-13.45c.26-.4.51-.51.77-.33a3,3,0,0,1,0,1.18,31.45,31.45,0,0,0-1.62,8.86,14.5,14.5,0,0,0,.55,4.07,6,6,0,0,0,4.59,4.43,12.83,12.83,0,0,0,2.63.27,16.33,16.33,0,0,0,8.37-2.57q6-4.92,6.31-10.25c.07-1.28.11-2.63.11-4.07q0-3-.27-8.37-.33-5.78-.38-8.23c0-3.1-.06-4.63-.06-4.6a8.22,8.22,0,0,1,1.23-4.34,10.44,10.44,0,0,1,1.61-3.31Q264.27,88.39,264.38,89Z" transform="translate(-57.49 -25.88)" fill="#048182"/><path d="M267.66,133.45l.71-.6q2.88-1.29,8.4-4.16a3.39,3.39,0,0,0,2-3.06,1.9,1.9,0,0,0-.11-.68c0-.44-.25-.66-.65-.66l-.74,0a1.13,1.13,0,0,1-.74,0,3.72,3.72,0,0,1-2.52-1.28,2.71,2.71,0,0,1-.43-1.48,5.25,5.25,0,0,1,.6-2c.49-1.09.77-1.75.85-2a8.27,8.27,0,0,1,.73-2.07A2.59,2.59,0,0,1,277.4,114a2.28,2.28,0,0,1,2,.49,7.07,7.07,0,0,1,1.89,4.37,7,7,0,0,0,3-4.86q.1-1.23,0-6.62a23,23,0,0,1,.65-6.48,13.29,13.29,0,0,1,4.54-6.18,67.68,67.68,0,0,1,8-4,44.71,44.71,0,0,0,7.95-4.27c.49-.47.83-.71,1-.71s.28.11.39.33a7.81,7.81,0,0,1-1.23,2,17.76,17.76,0,0,1-6.37,5c-2.43,1.07-4.86,2.17-7.31,3.3-.74.37-1.48.72-2.21,1.07a7.67,7.67,0,0,0-2.08,1.45,4.88,4.88,0,0,0-1.06,3.06q-.29,9-.63,11.21a19.28,19.28,0,0,1-4.13,9.93,2,2,0,0,0-.9,1.5,10.79,10.79,0,0,1-.5,1.78c-.42,1-.83,2-1.23,3a12.35,12.35,0,0,1-1.64,2.84,7.13,7.13,0,0,1-3.09,1c-1.11.11-2.22.25-3.33.41a9.65,9.65,0,0,0-1.64.38,4.62,4.62,0,0,1-1.73.11C267.57,134,267.54,133.8,267.66,133.45Zm36.4-51.16-.06.44a13.48,13.48,0,0,1-4.54,4q-7.11,3.36-10.85,5.39a15.31,15.31,0,0,0-2.54,1.72c-.22.17-.39.07-.5-.27a10.76,10.76,0,0,1,3.31-4,59.1,59.1,0,0,1,7.39-3.72,55.17,55.17,0,0,0,7.38-3.74C303.88,82.1,304,82.16,304.06,82.29Z" transform="translate(-57.49 -25.88)" fill="#048182"/></svg>