<svg id="Layer_1" data-name="Layer 1" xmlns="http://www.w3.org/2000/svg" viewBox="0 0 163.62 422.93"><path d="M12.56,351.14q1.39.18,6.36.18a20.54,20.54,0,0,1,6.35.79v-.37q-2.84-3-2.64-5.43c.31-1.27.79-2,1.46-2.3a4.85,4.85,0,0,1,1.74-.39,6.39,6.39,0,0,1,4,1.72c.27.28,1.39,1.36,3.34,3.24a8.06,8.06,0,0,1,1.34,3.72q.47,3.88.51,4.17c0,.19.17.85.42,2a5.51,5.51,0,0,1,0,2c-.25.19-.46.22-.65.09a4,4,0,0,1-1.72-2.27q-5.52-4-8.44-3.9a62,62,0,0,0-7.79.19A43.5,43.5,0,0,1,11.59,352a.53.53,0,0,1-.28-.42c0-.25.15-.43.46-.56A1.14,1.14,0,0,1,12.56,351.14Zm14.61-3.9a1.42,1.42,0,0,0-.55.79,4.66,4.66,0,0,0,1.8,4.27c.38.3,1.74,1.22,4.09,2.73-.37-1.33-.8-2.69-1.28-4.08a7,7,0,0,0-2.06-3.2C28.08,347.29,27.42,347.12,27.17,347.24Zm6.54-20.69c1,.12,2.83,1,5.43,2.64,3.12,2,4.69,4.07,4.69,6.27a6.71,6.71,0,0,1-.72,2.48,6.58,6.58,0,0,0-.72,2.39A2.84,2.84,0,0,0,43,342q4.26,5.56,9.69,5.71,2-.6,2.83-3.53c.71-2.22,1.49-3.64,2.32-4.26a11.39,11.39,0,0,1,6.82-1.91,40.36,40.36,0,0,1,9,1.4,41.22,41.22,0,0,1,15.45,7.6q7.79,6,10.3,13.78a15.47,15.47,0,0,1,.74,4.78,12.2,12.2,0,0,1-4.83,10.25q-5.88,4.45-14.93,4.45-7.42,0-18.51-3.24Q56.53,375.5,49,372.61a4.25,4.25,0,0,1-.56-1,.66.66,0,0,1,.65-.42,1.72,1.72,0,0,1,.79,0,5.69,5.69,0,0,0,.65.1Q66,376,72.4,376A23.12,23.12,0,0,0,84,373.08q4.44-3.48,4.45-10a21.41,21.41,0,0,0-4.13-12.38,24,24,0,0,0-10.2-8.58q-3.25-1.44-4.87,0-.84.92-2,4.73a6.25,6.25,0,0,1-2.92,4.06,10.54,10.54,0,0,1-4.73,1l-6-.51q-11.46-2.91-16.42-11a4.74,4.74,0,0,1-.56-2.27,10.77,10.77,0,0,1,1.25-4.27,3.75,3.75,0,0,0,.09-.79q0-1.2-3.06-3.9c-1.2-1-1.81-1.65-1.81-1.9S33.28,326.74,33.71,326.55Zm53.9,14.33H87l-7.19-6.63.28-.79q2.18-2.26,5.89-7V326l-5.52-4.68a2.43,2.43,0,0,1,0-.93,67,67,0,0,0,6.08-7.05c.31-.06.94.23,1.9.88l5.43,5a1.85,1.85,0,0,1,.37,1.16,16.56,16.56,0,0,1-1.81,3.29,17.1,17.1,0,0,1-4.27,4.09l5,4.77a1.37,1.37,0,0,1,.51,1,3.08,3.08,0,0,1-.79,1.8,11.41,11.41,0,0,0-1.2,1.72A28.93,28.93,0,0,1,87.61,340.88Zm14.25-6.35h-.56q-2.23-2.17-7-6.17l.19-.79c2.16-2.26,4-4.34,5.61-6.26l.65.09a38.59,38.59,0,0,1,3.52,3.06,20.46,20.46,0,0,1,3.07,3.62A18.14,18.14,0,0,1,101.86,334.53Z" transform="translate(-11.31 -46.89)" fill="#008082"/><path d="M15.67,251.26H31.16a37.15,37.15,0,0,1,9.6,1.44q4.55,1.53,9.14,3c2.45.31,4,.31,4.64,0a16.12,16.12,0,0,0,1.9-4.5c.56-1.95,1.56-3.14,3-3.57q4.13-1.9,11.87-.88,18.75,2.46,26.54,16a14.13,14.13,0,0,1,1.8,7.14,11.49,11.49,0,0,1-2.08,7q-3.9,5.24-12.94,7.23-2.93.28-6.08.28a87.13,87.13,0,0,1-26-4.45c-.19-.06-.28-.42-.28-1.07.37-.18,1.92-.18,4.64,0a82.32,82.32,0,0,0,14.42,1.81q7.42,0,12.18-2.85a9.5,9.5,0,0,0,4.75-8.75,18,18,0,0,0-3.41-10.22,23.45,23.45,0,0,0-8.18-7.64A10.67,10.67,0,0,0,69.43,250a2.75,2.75,0,0,0-1.67,2.27c-.4,1.88-.63,2.89-.7,3a7,7,0,0,1-2.92,4,31.75,31.75,0,0,1-11-.18q-4.08-.93-8.16-1.81a32.6,32.6,0,0,0-8.63-.93,86.91,86.91,0,0,1-11.6,0q-3-1.35-8.86-3.62c-.37-.55-.55-.74-.55-.55h-.19C15.11,251.56,15.3,251.26,15.67,251.26Z" transform="translate(-11.31 -46.89)" fill="#008082"/><path d="M37.52,231.41c1.14.22,2.83.45,5,.7q4.27.38,11.78.46,8.64,0,12.07.19a42,42,0,0,1,15.3,4c1,.46,1.49.88,1.49,1.25a.94.94,0,0,1-.19.55c-.24.44-.82.59-1.71.47q-2.55-.75-12.81-1.21-8.25.66-18.51.47a82,82,0,0,1-12.75-5.34A1,1,0,0,1,37.52,231.41Z" transform="translate(-11.31 -46.89)" fill="#008082"/><path d="M70,207.94q4.65.65,12.34,4.92a6,6,0,0,1,2.83,4c.4,1.57.82,3.2,1.26,4.87.37,1.2.91,3,1.62,5.47,0,.59-.19.94-.56,1.07s-.94-.42-1.44-1.26q-2.27-3.8-4.45-7.6a49.09,49.09,0,0,0-5.43-7.1,4,4,0,0,0-3.15-.56,4.1,4.1,0,0,0-1.9,1.3,10,10,0,0,1,.18,1.81A6,6,0,0,1,69,220a4.67,4.67,0,0,1-2.37.65,9,9,0,0,1-3.34-.84,30.34,30.34,0,0,0-3.15-1.43c-1.12-.44-2.31-.85-3.57-1.26a5.1,5.1,0,0,1-2.74-2.73c-.4-2.11.45-3.79,2.55-5.06a16.1,16.1,0,0,1,8.35-2.09A22.13,22.13,0,0,1,70,207.94Z" transform="translate(-11.31 -46.89)" fill="#008082"/><path d="M19.84,139.2a17.72,17.72,0,0,1,11.41-3.9,18.86,18.86,0,0,1,5.25.74,72.48,72.48,0,0,1,14.14,5.06,3.11,3.11,0,0,0,3.53-.93,22.11,22.11,0,0,0,1.9-4.31,5.69,5.69,0,0,1,3-3.48,12.59,12.59,0,0,1,5.24-1.07c.49,0,3.25.36,8.25,1.07a44.81,44.81,0,0,1,15.87,7.28q8.07,5.79,11,13.59a15.26,15.26,0,0,1,.83,5.06,12.57,12.57,0,0,1-3.62,9.37q-6,5.88-16.79,5.89-11.41,0-30.52-7.28c-.68-.59-.9-1.1-.65-1.54s1.13-.46,2.46-.27q14.66,4.44,21.2,4.45a21.79,21.79,0,0,0,12.06-3.25q4.08-3.28,4.08-9.65a20.65,20.65,0,0,0-4.27-12.29,25.8,25.8,0,0,0-10.06-8.44q-3.81-.93-4.87-.09a12.22,12.22,0,0,0-1.88,4.15A8.35,8.35,0,0,1,65,143.55a7.93,7.93,0,0,1-5.2,1.63c-.71,0-2.43-.16-5.15-.47a42.79,42.79,0,0,1-8.25-2.45,26.83,26.83,0,0,0-8.26-1.91,10.67,10.67,0,0,0-6.49,2.19c-.81.74-2.14,1.8-4,3.2a8.69,8.69,0,0,1-2.37-.65c-1.39-.62-2.15-1-2.27-1.07q-1.91-.84-5.43-2.55A5.56,5.56,0,0,1,19.84,139.2Zm85.63,11.87-6.17-5.61v-.37a60.53,60.53,0,0,0,5.29-6.36q-1.53-1.53-4.73-4.45v-.61a44.9,44.9,0,0,0,5.1-6c.22-.12.64,0,1.25.28l5.15,4.68a1.61,1.61,0,0,1,.1,2,17.6,17.6,0,0,1-4.87,5.19v.33a42.6,42.6,0,0,1,4.5,4.54c-.47,1.95-2.21,4.13-5.25,6.55ZM118.09,146l-.74-.09a62.65,62.65,0,0,1-5.61-5.89v-.56a63,63,0,0,0,5.33-5.33l.56.14a29.31,29.31,0,0,1,5.19,5.47,1.57,1.57,0,0,1,.23.79c0,.5-.51,1.31-1.53,2.46A29.72,29.72,0,0,1,118.09,146Z" transform="translate(-11.31 -46.89)" fill="#008082"/><path d="M27.36,87.19l18.55.28q14.72.24,22.22,8.49a9.5,9.5,0,0,1,2.46,4.55c2.41.77,4.83,1.53,7.24,2.27a29.15,29.15,0,0,1,6.72,3.43,13.62,13.62,0,0,1,2.09,6.45c.59,4.11.94,6.4,1.07,6.87A6.06,6.06,0,0,0,88,120.8a5.33,5.33,0,0,1,.33,1.46,1.56,1.56,0,0,1-.65,1.26,1.83,1.83,0,0,1-1.53-1.07c-.31-.5-.64-1-1-1.62q-2.08-4.27-6.35-12.71a18.25,18.25,0,0,0-1.72-2.19,4,4,0,0,0-2.27-1.43,3,3,0,0,0-3.53,1.34q.42,4.55-1.48,6.17a4.69,4.69,0,0,1-3.06,1.11,26.4,26.4,0,0,1-5.34-1.39c-1.51-.52-3.11-1.1-4.78-1.74a4.94,4.94,0,0,1-3.2-3.31c-.24-1.83.81-3.4,3.16-4.73a19.83,19.83,0,0,1,6.72-2,13.47,13.47,0,0,0,1.81.09,6.11,6.11,0,0,0-1.57-4.87q-3.81-2.91-10.77-3.1H41.32a27,27,0,0,0-3.39,0q-2.51.18-3.24.18a10.57,10.57,0,0,1-4.27-.79L21.56,87.8a.6.6,0,0,1-.46-.51c-.07-.31.09-.47.46-.47a15.8,15.8,0,0,1,2.88.1C25.89,87.1,26.86,87.19,27.36,87.19Z" transform="translate(-11.31 -46.89)" fill="#008082"/><path d="M184.87,410.49" transform="translate(-11.31 -46.89)" fill="none" stroke="#008083" stroke-miterlimit="10" stroke-width="7"/><path d="M135,410.49" transform="translate(-11.31 -46.89)" fill="none" stroke="#008083" stroke-miterlimit="10" stroke-width="7"/><path d="M188.29,443.46" transform="translate(-11.31 -46.89)" fill="none" stroke="#008083" stroke-miterlimit="10" stroke-width="7"/><path d="M131.42,443.46" transform="translate(-11.31 -46.89)" fill="none" stroke="#008083" stroke-miterlimit="10" stroke-width="7"/><path d="M-251.22,45.94" transform="translate(-11.31 -46.89)" fill="none" stroke="#008083" stroke-miterlimit="10" stroke-width="7"/><line x1="160.12" x2="160.12" y2="422.93" fill="none" stroke="#008083" stroke-miterlimit="10" stroke-width="7"/><path d="M184.87,37.54" transform="translate(-11.31 -46.89)" fill="none" stroke="#008083" stroke-miterlimit="10" stroke-width="7"/><path d="M184.87,460.46" transform="translate(-11.31 -46.89)" fill="none" stroke="#008083" stroke-miterlimit="10" stroke-width="7"/><path d="M183.47,456.21" transform="translate(-11.31 -46.89)" fill="none" stroke="#008083" stroke-miterlimit="10" stroke-width="7"/><path d="M159.92,420.78" transform="translate(-11.31 -46.89)" fill="none" stroke="#008083" stroke-miterlimit="10" stroke-width="7"/><ellipse cx="130.1" cy="56.45" rx="25.08" ry="10.63" fill="none" stroke="#008083" stroke-miterlimit="10" stroke-width="7"/><ellipse cx="130.1" cy="140.09" rx="25.08" ry="10.63" fill="none" stroke="#008083" stroke-miterlimit="10" stroke-width="7"/><ellipse cx="130.1" cy="236.74" rx="25.08" ry="10.63" fill="none" stroke="#008083" stroke-miterlimit="10" stroke-width="7"/><ellipse cx="131.61" cy="336.66" rx="25.08" ry="10.63" fill="none" stroke="#008083" stroke-miterlimit="10" stroke-width="7"/></svg>