<svg id="Layer_1" data-name="Layer 1" xmlns="http://www.w3.org/2000/svg" viewBox="0 0 216.95 162.41"><path d="M77,204.1" transform="translate(-153.55 -20.61)" fill="none" stroke="#010101" stroke-miterlimit="10" stroke-width="7"/><path d="M234.83,120.76l40.46,0v58.74H238.87q-.56-57.68-.56-57.68h0" transform="translate(-153.55 -20.61)" fill="#fff" stroke="#038183" stroke-miterlimit="10" stroke-width="7"/><path d="M5,204.1" transform="translate(-153.55 -20.61)" fill="none" stroke="#010101" stroke-miterlimit="10" stroke-width="7"/><ellipse cx="108.47" cy="49.33" rx="104.97" ry="45.83" fill="#fff" stroke="#038183" stroke-miterlimit="10" stroke-width="7"/><path d="M220.47,55.68l7.78-7a26.94,26.94,0,0,0,5.41-6.25.35.35,0,0,1,.5-.25.59.59,0,0,1,.4.56,23.64,23.64,0,0,1-2.74,6.13A68,68,0,0,1,223,57.61q-8.28,7-9.43,8.15c-.08.12-.34.59-.78,1.4a10.14,10.14,0,0,0,1.15-.31,11.16,11.16,0,0,1,1.87-.16q4.26,0,6,2.83a7.6,7.6,0,0,1,1.09,4.14,10.87,10.87,0,0,1-.78,4c-.71,2.33-1.42,4.64-2.15,6.94q-1.74,3.94-5.54,4.14A4.6,4.6,0,0,1,210,86a2.52,2.52,0,0,1-.43-1.21h-.13q-2.73,6.38-7,7.4a16.7,16.7,0,0,1-3.51.44,5.27,5.27,0,0,1-4.39-1.78q-1.22-1.22-1-1.8l.31-.13,2,.32a9.58,9.58,0,0,0,1-3.72,40.2,40.2,0,0,0,.07-5.12c-.09-1.74-.17-3.46-.25-5.16,0-.44,0-1.21-.13-2.31s-.12-2-.12-2.55a8.56,8.56,0,0,1,.84-4.13c.37-1.15,1-2.8,2-5,.12-.13.2-.15.25-.06a7.93,7.93,0,0,1,.12,2.48c-.12,1.41-.19,2.29-.19,2.62l.32,12a21.78,21.78,0,0,1-2.4,10.89,10.43,10.43,0,0,0,3.05.21q5-.06,6.56-3.2a15.28,15.28,0,0,0,1.28-6.88q0-1-.06-3.51a30.63,30.63,0,0,1-.07-3.3q-.18-3.7.13-10.95.06-.12,2.36-6.32a1.11,1.11,0,0,1,.38-.52c.24-.09.37.17.37.77a31.77,31.77,0,0,0-.31,3.71q0,1.34.06,3.57c0,1.75.06,3,.06,3.67h.19Q213.29,62.18,220.47,55.68Zm-.19,21.15a5.11,5.11,0,0,0-5-2.92A5.54,5.54,0,0,0,211,75.62a2.5,2.5,0,0,0-.18,1.65,4.11,4.11,0,0,0,1.24,2.55,5.75,5.75,0,0,0,2.46,1.55,3.68,3.68,0,0,0,3.42-.71c1.58-1.22,2.36-2.33,2.36-3.33A2.14,2.14,0,0,0,220.28,76.83Zm-.12-28.52,8.58-7.53a27.06,27.06,0,0,1,2.37-2.49c.25,0,.37.16.37.5a11.76,11.76,0,0,1-2.86,5.1,40.78,40.78,0,0,1-4.51,4.1,44.35,44.35,0,0,0-4.45,4,39.92,39.92,0,0,0-4.23,4.79.49.49,0,0,1-.62-.19Q215.25,52.56,220.16,48.31Z" transform="translate(-153.55 -20.61)" fill="#008082"/><path d="M276,50.33l.25.53q-.6,2.14-1.93,6.4a1,1,0,0,1-.87.53,6.46,6.46,0,0,0-1.15.13q-5.79,2.92-7.28,8.4a2.34,2.34,0,0,0,.84,2.61,16.43,16.43,0,0,0,2.86,1,3.86,3.86,0,0,1,2.49,1.71,8.36,8.36,0,0,1,.9,4.14c0,.56,0,1.28-.13,2.17-.08,1.1-.12,1.81-.12,2.12a32,32,0,0,1-4,10.89,21.89,21.89,0,0,1-8.31,8.15,10.62,10.62,0,0,1-4.95,1.15,8.37,8.37,0,0,1-5.35-1.65q-4.78-3.83-4.85-12.38-.06-6.95,4.08-19.94l.56-.19c.22.17.34.63.34,1.4q-2.25,9.06-2.24,13,0,8.22,4,10.77a8,8,0,0,0,4.45,1.27q4.29,0,9.18-3.51,4.61-4.2,5.1-8.28a2.45,2.45,0,0,0-1-2.67c-1.1-.29-2.19-.61-3.29-1a3.76,3.76,0,0,1-2.41-2.21,9.35,9.35,0,0,1-.58-3.39,22,22,0,0,1,.68-4.69q2.57-10.74,9.9-15.93a10.46,10.46,0,0,1,2-.84A1.46,1.46,0,0,1,276,50.33Z" transform="translate(-153.55 -20.61)" fill="#008082"/><path d="M310.31,68l-1.77,2.18c0,.16.28.31.84.43a7.39,7.39,0,0,0,7-2.92c1.06-1.83,1.86-3.12,2.42-3.89a13.61,13.61,0,0,1,3.18-3.3,8.89,8.89,0,0,1,2.11-5q.57-.06.87.66a23.6,23.6,0,0,0,4.73,4.88,1.55,1.55,0,0,1,.25.84,2.67,2.67,0,0,1-.37,1.15,8.12,8.12,0,0,1-.59,1.09l-1.4,1.9a2.73,2.73,0,0,1-2,1.15,22.92,22.92,0,0,0-3.83-.9,3.38,3.38,0,0,0-2.3.84,60.66,60.66,0,0,1-4.33,4.38,8.93,8.93,0,0,1-5.41,2.31,6.16,6.16,0,0,1-3.64-1.4H306A17,17,0,0,1,300.7,77q-2.93,1.65-5.85,3.27a16.37,16.37,0,0,0-5.16,5.47c-1.19,2.12-2.4,4.26-3.64,6.44q-3.12,5-3.18,5a22.32,22.32,0,0,1-4.13,4.48,37.85,37.85,0,0,1-8.31,5.16c-.58,0-.91-.11-1-.34s.21-.39.63-.68q10.57-7.53,13.68-14.41c.9-2.11,1.81-4.22,2.74-6.31a28.47,28.47,0,0,1,3.46-6,15.57,15.57,0,0,1,5.41-4.54A69.06,69.06,0,0,1,304,71c.41-.22.6-.42.56-.59a12.26,12.26,0,0,1-.84-2.08,4.34,4.34,0,0,0-1.34-2,6.93,6.93,0,0,0-4.51-1.72c-.17,0-.29-.19-.37-.46-.09-.5.23-1,1-1.4a13.7,13.7,0,0,1,7.19-1.9,13.3,13.3,0,0,1,4.13.62,3.84,3.84,0,0,1,2.24,2,2.65,2.65,0,0,1,.25,1.09C312.3,65.29,311.64,66.47,310.31,68Zm-26,.28V68q2-2.4,4.51-5h.32c1,1,2.61,2.4,4.72,4.14v.5a55.07,55.07,0,0,1-4.2,4.54,2.18,2.18,0,0,1-.52.06,2.41,2.41,0,0,1-1.28-.53c-.71-.5-1.1-.76-1.18-.81A27,27,0,0,1,284.27,68.31Zm16-16,4.64-4.73h.34q1.47,1.53,4.51,4.2.12.12-.12.84l-3.77,3.95a1.34,1.34,0,0,1-1.27.19,13.51,13.51,0,0,1-4.2-4A1.31,1.31,0,0,0,300.26,52.32Z" transform="translate(-153.55 -20.61)" fill="#008082"/><path d="M100,124.31" transform="translate(-153.55 -20.61)" fill="#fff" stroke="#038183" stroke-miterlimit="10" stroke-width="7"/></svg>