<svg id="Layer_1" data-name="Layer 1" xmlns="http://www.w3.org/2000/svg" viewBox="0 0 299.14 318.02"><line x1="0.2" y1="44.76" x2="292.34" y2="44.76" fill="none" stroke="#008083" stroke-miterlimit="10" stroke-width="7"/><path d="M402.07,91.11V319.64a86,86,0,0,1-86,86H195.92a86,86,0,0,1-86-86V91.11" transform="translate(-106.43 -91.11)" fill="none" stroke="#008083" stroke-miterlimit="10" stroke-width="7"/><path d="M210.79,380.57a1.19,1.19,0,0,1,1.64-.07q1.24,1.1,3.45,2.75,1,.76,1,1c0,.15-.13.42-.48.81-.8.92-1.84,2-3.11,3.33l-.84.92a3.57,3.57,0,0,1-2.64-1,14.44,14.44,0,0,1-3-3.19,7.71,7.71,0,0,1,1.47-1.83l.55-.55C210.13,381.35,210.79,380.62,210.79,380.57Z" transform="translate(-106.43 -91.11)" fill="#008083"/><path d="M238.21,377c.52-.61.85-.91,1-.91s.5.25,1.07.77a24.22,24.22,0,0,0,5,4c.1,0,.4-.3.91-.88a26.43,26.43,0,0,1,3.37-3.56c.1,0,.38.21.85.63a50.23,50.23,0,0,0,4.87,3.91c.07,0,.09.2.07.44a6.87,6.87,0,0,1-1.28,1.87l-.51.59a34,34,0,0,1-2.79,3.18,1.2,1.2,0,0,1-.62.11c-.76,0-1.89-.67-3.41-2a13.54,13.54,0,0,1-2.08-2.2c-.15-.27-.28-.41-.41-.44a16.09,16.09,0,0,0-1.94,2.09,27.16,27.16,0,0,1-2,2.16,2.58,2.58,0,0,1-1.69-.4,14.19,14.19,0,0,1-3.33-2.64c-.86-.9-1.28-1.46-1.28-1.68A60.36,60.36,0,0,1,238.21,377Z" transform="translate(-106.43 -91.11)" fill="#008083"/><path d="M264.62,363.54a1.21,1.21,0,0,1,1.65-.07c.83.73,2,1.65,3.44,2.75q1,.76,1,1c0,.15-.13.42-.47.81q-1.22,1.4-3.11,3.33l-.85.92a3.54,3.54,0,0,1-2.63-1,14.22,14.22,0,0,1-3-3.19,7.63,7.63,0,0,1,1.46-1.83l.55-.55C264,364.33,264.62,363.59,264.62,363.54Z" transform="translate(-106.43 -91.11)" fill="#008083"/><path d="M258.9,336.92a3.53,3.53,0,0,1,3.08-.07,16.49,16.49,0,0,1,3.92,2.45l.73.59a21.89,21.89,0,0,0,6.92,4.21,2,2,0,0,1,.88.51.63.63,0,0,1-.47.81q-2.94,1.5-12.64,8L259.09,355a7.55,7.55,0,0,1-3.74,1.76,4.84,4.84,0,0,1-3.18-1c-.2-.14-.32-.2-.37-.18a1.63,1.63,0,0,0-.33.48,10.15,10.15,0,0,1-4.87,4.68,22.75,22.75,0,0,1-5.64.63l-1.83,0-.55.77q-4.32,5.57-13.37,7.25a77.6,77.6,0,0,1-24.94,2.09c-3.71-.37-6.23-.89-7.58-1.57A4.7,4.7,0,0,1,190,366.4a33.37,33.37,0,0,1,.74-12.08c.44-.4.81-.32,1.13.21a7.63,7.63,0,0,1,.22,2.2,10.37,10.37,0,0,0,.22,2.82,3.88,3.88,0,0,0,2.42,1.72q9.78,2.39,23.88,1.61a69,69,0,0,0,15.45-2.6,10.48,10.48,0,0,0,7-5.6,1.93,1.93,0,0,1,1.24-1q.33,1.32-1,3.81l-.59,1.28a10.76,10.76,0,0,0,8.42-3.33,12,12,0,0,0,2.35-3.81,10.47,10.47,0,0,1,1-2c.44-.12.72,0,.84.25a2.65,2.65,0,0,0,1,1.8,5.54,5.54,0,0,0,3.85.29,28.74,28.74,0,0,0,7.36-4.54,13.45,13.45,0,0,0,1.79-1.5q-2.19-1.5-5.67-4.32a8.42,8.42,0,0,0-2.93-1.83,2.42,2.42,0,0,0-2.09.62l-1.06.91a13.52,13.52,0,0,1-1.5,1.29c-.32.07-.52-.08-.59-.44s.5-1.08,1.5-2.2A12,12,0,0,1,258.9,336.92Z" transform="translate(-106.43 -91.11)" fill="#008083"/><path d="M321.81,329.71q-.63,5.37-1.29,10.87-.76,6.6-3.14,10.29-3.09,4.65-5.5,6.23a36.89,36.89,0,0,1-3.66,10.62c-.71,1.41-2.51,2.29-5.42,2.63-1.83.35-4.65.82-8.46,1.43a2.31,2.31,0,0,1-.59-.36c-.12-.47.1-.89.66-1.28s.89-.53,1.36-.85q1.65-.94,5.6-2.82a52,52,0,0,0,5.64-2.93c1.2-1.1,1.8-2,1.8-2.78a2.46,2.46,0,0,0-.08-.59,4.58,4.58,0,0,0-1-1.75c-2.42.31-4.15-.21-5.2-1.58a4.78,4.78,0,0,1-.52-2.16,10,10,0,0,1,1.14-3.88,18,18,0,0,0,1.32-4c.56-1.49,1.39-2.27,2.49-2.35a3.44,3.44,0,0,1,2.34.48q2.39,2.08,2.82,7l.84-.22c2.81-1.76,4.22-3.83,4.22-6.23q0-8.08.22-9.3a22.52,22.52,0,0,1,3.36-6.15A.87.87,0,0,1,321.81,329.71Zm-5.57-13.26h.44a40.3,40.3,0,0,0,5.57,4.65c.09.1.07.39-.08.88l-4.43,5a1.38,1.38,0,0,1-.91.4,2,2,0,0,1-1.16-.46c-.42-.3-.83-.58-1.22-.82a21.92,21.92,0,0,1-1.95-1.65,5.19,5.19,0,0,1-1.5-2C312.15,321.1,313.9,319.08,316.24,316.45Z" transform="translate(-106.43 -91.11)" fill="#008083"/><path d="M311.41,302.53a6.67,6.67,0,0,1,1.27,3.07,2.37,2.37,0,0,1-1,2.09,7.23,7.23,0,0,1-3.22,1.2,33.07,33.07,0,0,1-5.46.37,44.24,44.24,0,0,1-5-.22,12.2,12.2,0,0,1-3-.68,4.57,4.57,0,0,1-1.79-1.19,13.33,13.33,0,0,1-1.27-1.65L255.48,249l-36.34,56.53a15.6,15.6,0,0,1-1.27,1.65,4.6,4.6,0,0,1-1.87,1.19,13.44,13.44,0,0,1-3.07.68,42.52,42.52,0,0,1-4.86.22,30.44,30.44,0,0,1-5.23-.37,6.54,6.54,0,0,1-3.07-1.2,2.41,2.41,0,0,1-.9-2.09,6.18,6.18,0,0,1,1.42-3.07l44.57-65.65-42.47-64.16a6.49,6.49,0,0,1-1.27-3.06,2.31,2.31,0,0,1,1-2.1,7.5,7.5,0,0,1,3.37-1.12,42.7,42.7,0,0,1,5.53-.3,43.86,43.86,0,0,1,5,.23A11,11,0,0,1,219,167a4.61,4.61,0,0,1,1.64,1.12,14.28,14.28,0,0,1,1.2,1.57l34.39,52.94,35.3-52.94a14.27,14.27,0,0,1,1.19-1.57,4.68,4.68,0,0,1,1.57-1.12,9.61,9.61,0,0,1,2.7-.67,38,38,0,0,1,4.71-.23,39.72,39.72,0,0,1,5.31.3,7.34,7.34,0,0,1,3.21,1.05,2.18,2.18,0,0,1,1,2,6.8,6.8,0,0,1-1.42,3.21L267,236.28Z" transform="translate(-106.43 -91.11)" fill="#e52521"/></svg>