<svg id="Layer_1" data-name="Layer 1" xmlns="http://www.w3.org/2000/svg" viewBox="0 0 296.59 333.53"><line x1="1.26" y1="52.26" x2="296.23" y2="52.26" fill="none" stroke="#008083" stroke-miterlimit="10" stroke-width="7"/><polyline points="3.5 0 3.5 273.1 150.87 329.78 293.09 275.16 293.09 0" fill="none" stroke="#008083" stroke-miterlimit="10" stroke-width="7"/><path d="M178.66,289.5a1.19,1.19,0,0,1,1.64-.08q1.24,1.09,3.45,2.75,1,.76,1,1c0,.15-.13.42-.47.81q-1.22,1.39-3.12,3.33l-.84.92a3.57,3.57,0,0,1-2.64-1,14.68,14.68,0,0,1-3-3.19,8.17,8.17,0,0,1,1.47-1.83l.55-.55C178,290.28,178.66,289.54,178.66,289.5Z" transform="translate(-107.26 -91.11)" fill="#008083"/><path d="M206.09,285.91c.51-.61.84-.92,1-.92s.5.26,1.07.77a23.89,23.89,0,0,0,5.05,4c.1,0,.4-.29.92-.88a25.54,25.54,0,0,1,3.36-3.55c.1,0,.38.2.85.62a52,52,0,0,0,4.87,3.92c.07.05.09.19.07.44a7,7,0,0,1-1.28,1.87l-.51.58a36.71,36.71,0,0,1-2.79,3.19,1.31,1.31,0,0,1-.62.11c-.76,0-1.89-.67-3.41-2a13.6,13.6,0,0,1-2.08-2.19c-.15-.27-.28-.42-.41-.44a15.49,15.49,0,0,0-1.94,2.08,27.16,27.16,0,0,1-2,2.16,2.52,2.52,0,0,1-1.69-.4,13.69,13.69,0,0,1-3.33-2.64c-.86-.9-1.28-1.46-1.28-1.68A58.67,58.67,0,0,1,206.09,285.91Z" transform="translate(-107.26 -91.11)" fill="#008083"/><path d="M232.49,272.47a1.2,1.2,0,0,1,1.65-.08c.83.73,2,1.65,3.44,2.75q1,.76,1,1c0,.15-.13.42-.47.81-.81.93-1.84,2-3.11,3.33l-.85.92a3.56,3.56,0,0,1-2.63-1,14.22,14.22,0,0,1-3-3.19,7.63,7.63,0,0,1,1.46-1.83l.55-.55C231.83,273.25,232.49,272.51,232.49,272.47Z" transform="translate(-107.26 -91.11)" fill="#008083"/><path d="M226.78,245.84a3.51,3.51,0,0,1,3.07-.07,16.62,16.62,0,0,1,3.92,2.45l.73.59a22,22,0,0,0,6.92,4.21,2.17,2.17,0,0,1,.88.51.63.63,0,0,1-.47.81q-2.94,1.5-12.64,8L227,263.9a7.53,7.53,0,0,1-3.74,1.75,4.85,4.85,0,0,1-3.18-1c-.2-.15-.32-.21-.37-.19a2,2,0,0,0-.33.48,10.17,10.17,0,0,1-4.87,4.69,22.35,22.35,0,0,1-5.64.62l-1.83,0-.55.76q-4.32,5.58-13.37,7.26-13.83,3.18-24.93,2.08c-3.72-.36-6.24-.89-7.58-1.57a4.66,4.66,0,0,1-2.71-3.52,33.41,33.41,0,0,1,.73-12.08c.44-.39.82-.32,1.13.22a7.55,7.55,0,0,1,.22,2.19,10.37,10.37,0,0,0,.22,2.82,4,4,0,0,0,2.42,1.73q9.78,2.37,23.88,1.61a69.61,69.61,0,0,0,15.45-2.6,10.52,10.52,0,0,0,7-5.61,2,2,0,0,1,1.24-1c.22.87-.12,2.14-1,3.8l-.59,1.29a10.83,10.83,0,0,0,8.43-3.34,12.12,12.12,0,0,0,2.34-3.81,10.88,10.88,0,0,1,1-2c.44-.12.72,0,.84.26a2.6,2.6,0,0,0,1,1.79,5.51,5.51,0,0,0,3.84.29,28.74,28.74,0,0,0,7.36-4.54,13.09,13.09,0,0,0,1.8-1.5q-2.2-1.5-5.68-4.32a8.76,8.76,0,0,0-2.93-1.83,2.45,2.45,0,0,0-2.09.62l-1.06.92a14.06,14.06,0,0,1-1.5,1.28c-.32.07-.51-.07-.59-.44s.5-1.08,1.5-2.2A12.06,12.06,0,0,1,226.78,245.84Z" transform="translate(-107.26 -91.11)" fill="#008083"/><path d="M322.43,229.69l9.74-7.65,3.77-3.3a13.94,13.94,0,0,0,3.23-3.59.48.48,0,0,1,.51-.22.33.33,0,0,1,.36.37c-.09.95-.89,2.78-2.38,5.49-.75,1.3-2.66,3.29-5.71,6q-4.43,3.41-13.11,10.51a13.8,13.8,0,0,0-1.87,1.8,5.14,5.14,0,0,0-1.28,2.27q-.22,7.65-.55,15.31-.43,8.89-3.51,14.48t-13.26,8.44l-11.57,1.21q-10.26.15-14.91-1.43c-2.41-.81-3.65-3.33-3.7-7.58,0-.63.28-3.19.85-7.65a2.18,2.18,0,0,1,.73-1.17c.41-.13.67.07.77.58,0,1.15.09,2.3.14,3.44a3.36,3.36,0,0,0,1.51,2.93,29.92,29.92,0,0,0,10,1.8c3.56.05,7.12.07,10.66.07l7-.44a18.34,18.34,0,0,0,6.59-1.65q5-1.79,5.86-5.34a52.23,52.23,0,0,0,.37-8.83q-.22-7.37-.15-8.94a16.11,16.11,0,0,1,1-4.5,45.13,45.13,0,0,0,1.5-4.36Q316.72,234.2,322.43,229.69Z" transform="translate(-107.26 -91.11)" fill="#008083"/><path d="M356.56,238.63q-.62,5.38-1.28,10.87-.76,6.6-3.15,10.29c-2.05,3.11-3.88,5.18-5.49,6.23A37.23,37.23,0,0,1,343,276.64q-1.05,2.13-5.42,2.64-2.74.51-8.45,1.43a2,2,0,0,1-.59-.37c-.12-.46.1-.89.66-1.28s.89-.53,1.35-.84q1.65-1,5.61-2.82a58.24,58.24,0,0,0,5.64-2.93c1.19-1.1,1.79-2,1.79-2.79a2.3,2.3,0,0,0-.07-.58,4.53,4.53,0,0,0-1-1.76q-3.63.48-5.2-1.58a4.77,4.77,0,0,1-.51-2.16,10.16,10.16,0,0,1,1.13-3.88,17.17,17.17,0,0,0,1.32-4q.84-2.23,2.49-2.34a3.48,3.48,0,0,1,2.35.47q2.37,2.08,2.82,7l.84-.22q4.21-2.64,4.21-6.22,0-8.1.22-9.31a22.75,22.75,0,0,1,3.37-6.15A.86.86,0,0,1,356.56,238.63ZM351,225.37h.44A41.52,41.52,0,0,0,357,230c.1.1.07.39-.07.88l-4.43,5a1.36,1.36,0,0,1-.92.4,2,2,0,0,1-1.15-.46c-.43-.3-.84-.58-1.23-.82a22.5,22.5,0,0,1-1.94-1.65,5,5,0,0,1-1.5-2Q347.49,229.33,351,225.37Z" transform="translate(-107.26 -91.11)" fill="#008083"/></svg>