<svg id="Layer_1" data-name="Layer 1" xmlns="http://www.w3.org/2000/svg" viewBox="0 0 173.89 491.41"><path d="M22.6,319.19q1.47.19,6.69.2a21.59,21.59,0,0,1,6.69.83v-.39c-2-2.09-2.91-4-2.78-5.72.32-1.33.84-2.14,1.54-2.41a5,5,0,0,1,1.83-.42,6.74,6.74,0,0,1,4.2,1.81q.43.44,3.51,3.41a8.37,8.37,0,0,1,1.42,3.91c.32,2.74.5,4.2.54,4.4s.17.89.43,2.1a5.17,5.17,0,0,1,0,2.09.55.55,0,0,1-.68.1,4.21,4.21,0,0,1-1.81-2.39q-5.8-4.2-8.88-4.1a64.67,64.67,0,0,0-8.21.19,46.55,46.55,0,0,1-5.51-2.68.55.55,0,0,1-.3-.44c0-.26.17-.46.49-.59A1.24,1.24,0,0,1,22.6,319.19ZM38,315.09a1.52,1.52,0,0,0-.58.83,4.9,4.9,0,0,0,1.9,4.49q.59.49,4.3,2.88c-.39-1.4-.84-2.83-1.34-4.29a7.33,7.33,0,0,0-2.18-3.37Q38.37,314.9,38,315.09Zm6.89-21.78c1.07.13,3,1.06,5.71,2.78q4.94,3.14,4.93,6.6a7,7,0,0,1-.75,2.61,6.89,6.89,0,0,0-.76,2.51,3.1,3.1,0,0,0,.68,1.81q4.5,5.86,10.21,6c1.4-.43,2.39-1.66,3-3.71.75-2.35,1.56-3.84,2.44-4.5a12,12,0,0,1,7.18-2,42.4,42.4,0,0,1,9.42,1.47,43.42,43.42,0,0,1,16.26,8q8.2,6.3,10.84,14.51a16.09,16.09,0,0,1,.78,5,12.85,12.85,0,0,1-5.08,10.79Q103.52,349.9,94,349.9q-7.81,0-19.48-3.41Q68.89,344.83,61,341.8a4.48,4.48,0,0,1-.58-1.08.68.68,0,0,1,.68-.43,1.63,1.63,0,0,1,.83,0l.68.09q16.22,4.94,23,4.93a24.35,24.35,0,0,0,12.21-3q4.68-3.66,4.69-10.5a22.5,22.5,0,0,0-4.35-13,25.24,25.24,0,0,0-10.74-9q-3.42-1.52-5.13,0-.88,1-2.1,5A6.55,6.55,0,0,1,77.09,319a11,11,0,0,1-5,1l-6.34-.54q-12.06-3.08-17.29-11.57a5.08,5.08,0,0,1-.58-2.39A11.17,11.17,0,0,1,49.21,301a3.61,3.61,0,0,0,.1-.83q0-1.27-3.22-4.11c-1.27-1.07-1.91-1.74-1.91-2S44.41,293.51,44.87,293.31Zm56.74,15.09H101l-7.57-7,.3-.83q2.3-2.4,6.2-7.38v-.48l-5.81-4.94a2.27,2.27,0,0,1,0-1,71.31,71.31,0,0,0,6.39-7.42c.33-.07,1,.24,2,.92l5.71,5.28a1.88,1.88,0,0,1,.39,1.22,16.88,16.88,0,0,1-6.4,7.76c1.21,1.14,3,2.82,5.28,5a1.46,1.46,0,0,1,.53,1.07,3.24,3.24,0,0,1-.83,1.91,12.23,12.23,0,0,0-1.27,1.81A30.13,30.13,0,0,1,101.61,308.4Zm15-6.69H116q-2.34-2.29-7.32-6.49l.19-.83q3.42-3.57,5.91-6.6l.68.1a40.94,40.94,0,0,1,3.71,3.22,21,21,0,0,1,3.23,3.81A19,19,0,0,1,116.6,301.71Z" transform="translate(-14.48 -17.04)" fill="#008082"/><path d="M34.17,177.44l-10.2-13-4.39-5a18.77,18.77,0,0,0-4.79-4.29.62.62,0,0,1-.29-.69A.43.43,0,0,1,15,154c1.26.13,3.71,1.18,7.32,3.17q2.6,1.51,8,7.62,4.54,5.91,14,17.48a19,19,0,0,0,2.39,2.49,7,7,0,0,0,3,1.71q10.21.28,20.41.73,11.86.59,19.31,4.69t11.26,17.67L102.29,225q.19,13.68-1.9,19.88-1.62,4.83-10.11,4.93-1.27,0-10.21-1.13a3.05,3.05,0,0,1-1.56-1c-.16-.56.1-.9.78-1l4.59-.19a4.54,4.54,0,0,0,3.91-2,39.72,39.72,0,0,0,2.39-13.37q.1-7.14.1-14.21c-.2-3.13-.39-6.24-.59-9.33a24.88,24.88,0,0,0-2.19-8.79q-2.4-6.69-7.13-7.81a69.29,69.29,0,0,0-11.77-.49q-9.81.3-11.92.2a21.65,21.65,0,0,1-6-1.37,55.66,55.66,0,0,0-5.81-2Q40.18,185.06,34.17,177.44Z" transform="translate(-14.48 -17.04)" fill="#008082"/><path d="M28.41,139.36v-.59a54.56,54.56,0,0,0,6.2-7.42c.13-.13.53-.1,1.18.1l6.69,5.9a1.85,1.85,0,0,1,.53,1.23,2.71,2.71,0,0,1-.61,1.53c-.4.57-.77,1.12-1.1,1.64a33.75,33.75,0,0,1-2.19,2.59,6.79,6.79,0,0,1-2.64,2Q33.68,144,28.41,139.36Zm17.68-7.43,14.5,1.71q8.79,1,13.72,4.2,6.21,4.11,8.3,7.33a49.62,49.62,0,0,1,14.16,4.88q2.83,1.41,3.52,7.23.67,3.66,1.9,11.28a2.9,2.9,0,0,1-.49.78c-.61.16-1.18-.13-1.7-.88-.33-.59-.7-1.19-1.13-1.81-.84-1.46-2.1-4-3.76-7.47a73.86,73.86,0,0,0-3.9-7.52q-2.2-2.39-3.71-2.39a3,3,0,0,0-.79.1,6.06,6.06,0,0,0-2.34,1.36q.63,4.85-2.1,6.94a6.42,6.42,0,0,1-2.88.68,13.41,13.41,0,0,1-5.18-1.51,23.45,23.45,0,0,0-5.32-1.76c-2-.75-3-1.86-3.12-3.32a4.56,4.56,0,0,1,.63-3.13q2.79-3.16,9.28-3.76l-.29-1.12c-2.35-3.74-5.11-5.61-8.31-5.61q-10.78,0-12.4-.3a30.25,30.25,0,0,1-8.2-4.49A1.14,1.14,0,0,1,46.09,131.93Z" transform="translate(-14.48 -17.04)" fill="#008082"/><circle cx="146.12" cy="51.29" r="9.75" fill="#008082"/><circle cx="146.12" cy="164.96" r="9.75" fill="#008082"/><circle cx="146.12" cy="278.63" r="9.75" fill="#008082"/><path d="M184.87,410.49" transform="translate(-14.48 -17.04)" fill="none" stroke="#008083" stroke-miterlimit="10" stroke-width="7"/><path d="M135,410.49" transform="translate(-14.48 -17.04)" fill="none" stroke="#008083" stroke-miterlimit="10" stroke-width="7"/><line x1="120.47" y1="403.74" x2="170.42" y2="403.74" fill="none" stroke="#008083" stroke-miterlimit="10" stroke-width="7"/><path d="M-251.22,45.94" transform="translate(-14.48 -17.04)" fill="none" stroke="#008083" stroke-miterlimit="10" stroke-width="7"/><polyline points="170.39 426.43 170.39 3.5 120.5 3.5 120.5 426.43" fill="none" stroke="#008083" stroke-miterlimit="10" stroke-width="7"/><path d="M136.75,446.86c7.8,18.43,13.58,34.73,21.38,53.16,9.65-19.68,16.05-35.85,24.54-53.16Z" transform="translate(-14.48 -17.04)" fill="none" stroke="#008083" stroke-miterlimit="10" stroke-width="7"/><path d="M183.47,456.21" transform="translate(-14.48 -17.04)" fill="none" stroke="#008083" stroke-miterlimit="10" stroke-width="7"/></svg>