<svg id="Layer_1" data-name="Layer 1" xmlns="http://www.w3.org/2000/svg" viewBox="0 0 278.91 402.98"><path d="M120.06,58H391.94V454H301.31L263.86,230.28q-3.9-19-7.81-38.1c-.52-2.71-2.17-4.75-3.81-4.9-2.1-.18-5,2.64-4.85,7.08q-5.19,28.27-10,57.15Q219.95,355.4,209.05,454h-86Z" transform="translate(-116.53 -54.51)" fill="none" stroke="#038183" stroke-miterlimit="10" stroke-width="7"/><path d="M120.06,84.68a17,17,0,0,1,11.43-4.08c7.12.35,13.62,5.87,16.06,13.88a118.37,118.37,0,0,1,1.63,28.57,118,118,0,0,1-3.54,22A206.61,206.61,0,0,1,140.47,168a205.74,205.74,0,0,1-8.71,24.49q-5.58,11.16-11.15,22.32Q120.33,149.73,120.06,84.68Z" transform="translate(-116.53 -54.51)" fill="none" stroke="#038183" stroke-miterlimit="10" stroke-width="7"/><path d="M391.94,84.68a17,17,0,0,0-11.43-4.08c-7.12.35-13.62,5.87-16.06,13.88a118.08,118.08,0,0,0,1.91,50.62,207.31,207.31,0,0,0,13.88,47.35q5.58,11.16,11.15,22.32Q391.67,149.73,391.94,84.68Z" transform="translate(-116.53 -54.51)" fill="none" stroke="#038183" stroke-miterlimit="10" stroke-width="7"/><path d="M159.71,156.32l-4.44.84a.74.74,0,0,1-.8-.47c-.05-.39.29-.81,1-1.25q3.93-2.34,5.79-3.62a46,46,0,0,0,5.38-4,23,23,0,0,0,4.14-7.29c.66-1.81,1.61-4.5,2.86-8.09a.93.93,0,0,1,1-.63q.66,0,.66.63.13,1.43-1.21,6.52a56.33,56.33,0,0,1-5.53,14.31,5,5,0,0,1-4,2.49C163.48,155.83,161.85,156,159.71,156.32Z" transform="translate(-116.53 -54.51)" fill="#008083"/><path d="M182.15,117.61c-.18.91-.36,2.24-.55,4q-.3,3.38-.37,9.31,0,6.81-.15,9.52a33.19,33.19,0,0,1-3.15,12.08c-.36.78-.69,1.17-1,1.17a.74.74,0,0,1-.44-.14c-.35-.2-.47-.65-.37-1.36q.59-2,1-10.11-.51-6.51-.36-14.61a64.82,64.82,0,0,1,4.21-10.07A.81.81,0,0,1,182.15,117.61Z" transform="translate(-116.53 -54.51)" fill="#008083"/><path d="M206.16,135.7H206q-2.49,5.31-6.15,7.51-1.28,4.5-1.79,5.93a21.29,21.29,0,0,1-2.93,5.46,9.32,9.32,0,0,1-4.07,1.43l-4.32.58c-2.71.52-4.26.77-4.65.77s-.4-.5-.4-1.06a35.59,35.59,0,0,1,7-3.83,33.84,33.84,0,0,0,7-3.9,3.28,3.28,0,0,0,1-3.37,2.09,2.09,0,0,0-1.06-1.28,29.22,29.22,0,0,1-3,0c-1.44-.53-2.28-1.23-2.52-2.09a4.53,4.53,0,0,1-.22-1.42,9.09,9.09,0,0,1,.66-3,29,29,0,0,0,1.06-2.93c.63-2.85,1.76-4.4,3.37-4.65,1.29-.19,2.44.43,3.44,1.87a12.75,12.75,0,0,1,1.72,6,5.78,5.78,0,0,0,3.15-2.31,11.25,11.25,0,0,0,1.5-6.15q.15-6.37.15-6.45.21-6.07.47-18.31a18.91,18.91,0,0,1,1.18-4.21c.8-2.05,1.3-3.42,1.5-4.1.05-.37.23-.53.55-.48s.46.23.36.55q-1,7.72-1.13,26.63,0,4.65,3.37,6.15a6.41,6.41,0,0,0,2.71.58,6.66,6.66,0,0,0,4.94-1.94l3.15-3.07a2.48,2.48,0,0,1,1.35-.44,5.46,5.46,0,0,1,2.15.66,5.37,5.37,0,0,0,2.07.66,2.13,2.13,0,0,0,1.2-.37,41,41,0,0,1,3.81-4.36c.44-.1.66.11.66.62l-.22,1a3.2,3.2,0,0,0,1.65,1.06,4,4,0,0,0,3.15-1.94c.22-.29.83-1.42,1.83-3.37a1.46,1.46,0,0,1,.73-.29,2,2,0,0,1,.22,1.57q-1.86,5.39-5.38,7.47c-1.51.91-2.82.88-3.92-.07a3.75,3.75,0,0,1-.8-.37c-.71.71-1.42,1.41-2.13,2.09a4.49,4.49,0,0,1-2.52,1.21,17.93,17.93,0,0,1-3.63-1.21,2.36,2.36,0,0,0-1.43.62q-3.59,5.76-3.81,6-2.7,3.44-5.93,3.44A5.58,5.58,0,0,1,206.16,135.7Zm12.08-25.89,5-5.89.44.14q1.83,1.5,5.49,4.43c.05,0,.11.08.19.22s.16.2.25.15l3.85-4.58c.39-.14.63-.14.73,0q1.72,1.57,5.42,4.43a.86.86,0,0,1,.15.88l-4.43,5.27a1.75,1.75,0,0,1-1,.3,15.17,15.17,0,0,1-2.79-1.43,27.44,27.44,0,0,1-3.07-3.3l-.29.22a49.24,49.24,0,0,1-3.67,4.21A5.37,5.37,0,0,1,222,114a20.41,20.41,0,0,1-3.74-3.52Zm5.61-10.55v-.32c.51-.64,2.15-2.51,4.9-5.61h.3c1.15,1,2.89,2.41,5.23,4.21a.87.87,0,0,1,0,1.25,44.88,44.88,0,0,1-4.72,5C227.66,103.33,225.75,101.8,223.85,99.26Z" transform="translate(-116.53 -54.51)" fill="#008083"/><path d="M282.83,124.68a25.05,25.05,0,0,1-.7,6.92,16.06,16.06,0,0,1,2.64-1.54c1.63-.54,2.83-.19,3.59,1a2.59,2.59,0,0,1,.22,1.17v.81l-.52,1a8.71,8.71,0,0,1-4,4.25,3.73,3.73,0,0,1-1.5.37q-3.58.51-7.1.91c-.44-.17-.55-.42-.33-.77a3.29,3.29,0,0,1,1.35-1,4.14,4.14,0,0,0,1.91-2.09q2.08-2.49,1.83-7.55a13.49,13.49,0,0,1,.4-4.21,9.44,9.44,0,0,1,1.17-1.9c.52-.68.87-1,1.07-1.06s.2.06.18.18A20.83,20.83,0,0,0,282.83,124.68Zm2.6,10a1.49,1.49,0,0,0-.3-1.65,3.54,3.54,0,0,0-3.48,1.5,31.35,31.35,0,0,0-2,2.75l3.26-.8A3.87,3.87,0,0,0,285.43,134.64Z" transform="translate(-116.53 -54.51)" fill="#008083"/><path d="M305.24,120.87c.51-.68,1.13-.68,1.87,0,1,.88,2.24,1.82,3.58,2.82.52.39.77.66.77.81a12.34,12.34,0,0,1-2.12,2.56L307,129.51a3.17,3.17,0,0,1-2-.44,19.91,19.91,0,0,1-2.67-2.41c-.71-.71-1.06-1.13-1.06-1.25a13.49,13.49,0,0,1,2-2.34C304.58,121.65,305.24,120.92,305.24,120.87Z" transform="translate(-116.53 -54.51)" fill="#008083"/><path d="M317.65,164.45c.52-.61.84-.92,1-.92s.5.26,1.06.77a23.83,23.83,0,0,0,5.06,4c.09,0,.4-.29.91-.88A25.94,25.94,0,0,1,329,163.9c.1,0,.38.21.84.62a53,53,0,0,0,4.87,3.92c.08.05.1.2.08.44a7,7,0,0,1-1.28,1.87l-.52.58a35.72,35.72,0,0,1-2.78,3.19,1.31,1.31,0,0,1-.62.11c-.76,0-1.89-.67-3.41-2a14.23,14.23,0,0,1-2.09-2.2c-.14-.27-.28-.42-.4-.44a15.28,15.28,0,0,0-1.94,2.09q-1.8,2-2,2.16a2.58,2.58,0,0,1-1.68-.41,13.88,13.88,0,0,1-3.33-2.63c-.86-.91-1.29-1.47-1.29-1.69A60.65,60.65,0,0,1,317.65,164.45Z" transform="translate(-116.53 -54.51)" fill="#008083"/><path d="M333.62,147.68c.83-.83,1.32-1.25,1.46-1.25s.46.22.92.66a48.27,48.27,0,0,0,4.25,3.59,4.13,4.13,0,0,1,.73.7s.76-.8,2.12-2.31a15.71,15.71,0,0,1,2.2-2.27,3.76,3.76,0,0,1,1.1.8c1.15,1,2.51,2.18,4.1,3.45.37.29.56.48.59.58q.11.41-1.17,1.8L346,157.57a7.15,7.15,0,0,1-3.56-1.95,12.35,12.35,0,0,1-2.63-2.89c-.05,0-.17.12-.37.37a51.23,51.23,0,0,1-3.81,3.84.91.91,0,0,1-.62.08q-1.17-.22-4.1-3.15c-.88-.88-1.32-1.41-1.32-1.58s0-.22.07-.22Zm1,16.07a50,50,0,0,1,5.38-5.42,3.1,3.1,0,0,1,.84.74,51.42,51.42,0,0,0,4.36,4,.43.43,0,0,1,.07.44,7.13,7.13,0,0,1-1.5,1.72l-3.59,3.37a6.56,6.56,0,0,1-1.94-.88A18.39,18.39,0,0,1,334.61,163.75Z" transform="translate(-116.53 -54.51)" fill="#008083"/><path d="M333.29,143.14a7.42,7.42,0,0,1-4.32-2.2l-1.54,1.43a15.44,15.44,0,0,1-2.16,1.68,5.15,5.15,0,0,1-5.42.15c-.76-.54-1.39-.51-1.9.07a59.39,59.39,0,0,1-6.74,5.35,10.16,10.16,0,0,1-5.31,1.46,16.83,16.83,0,0,1-3.41-1.35q-4.8,4.43-15.89,6.41a62.25,62.25,0,0,1-21.54.47q-3.76-.69-4.83-3.55a13.78,13.78,0,0,1-.44-5,20.66,20.66,0,0,1,.95-6.63c.47-.95,1-1.16,1.47-.62v2a6.7,6.7,0,0,0,.47,3.4,4,4,0,0,0,1.94,1.25q6.27,2,17.73,1.35a69.93,69.93,0,0,0,13.37-1.64,18.38,18.38,0,0,0,6.66-2.75,14.93,14.93,0,0,0,2.82-3.48c.44-.81,1-1.07,1.72-.81a1.66,1.66,0,0,1,0,1.1c-.05.25-.83,2-2.34,5.39l-.37.8,1.21,0a11.23,11.23,0,0,0,3.55-.65,23.29,23.29,0,0,0,8.17-5.28,12.54,12.54,0,0,1,2.45-1.83,4.3,4.3,0,0,1,1.91-.26l1.1.55a5.26,5.26,0,0,0,2.41.81,5.33,5.33,0,0,0,2.38-1.83,15.33,15.33,0,0,0,.88-4.14,42.21,42.21,0,0,1,1-6.52,3.45,3.45,0,0,1,.88-1.68.76.76,0,0,1,.91,0,2.65,2.65,0,0,1,.15,1q.28,4.65,3,6c2.63,1.1,4.54.61,5.71-1.46.8-1.17,1.34-1.76,1.61-1.76a.66.66,0,0,1,.66.4,20.23,20.23,0,0,1-3,8,14,14,0,0,1-3.81,3.66A4.57,4.57,0,0,1,333.29,143.14Z" transform="translate(-116.53 -54.51)" fill="#008083"/></svg>