<svg id="Layer_1" data-name="Layer 1" xmlns="http://www.w3.org/2000/svg" viewBox="0 0 278.91 402.98"><path d="M120.06,58H391.94V454H301.31L263.86,230.28q-3.9-19-7.81-38.1c-.52-2.71-2.17-4.75-3.81-4.9-2.1-.18-5,2.64-4.85,7.08q-5.19,28.27-10,57.15Q219.95,355.4,209.05,454h-86Z" transform="translate(-116.53 -54.51)" fill="none" stroke="#038183" stroke-miterlimit="10" stroke-width="7"/><path d="M120.06,84.68a17,17,0,0,1,11.43-4.08c7.12.35,13.62,5.87,16.06,13.88a118.37,118.37,0,0,1,1.63,28.57,118,118,0,0,1-3.54,22A206.61,206.61,0,0,1,140.47,168a205.74,205.74,0,0,1-8.71,24.49q-5.58,11.16-11.15,22.32Q120.33,149.73,120.06,84.68Z" transform="translate(-116.53 -54.51)" fill="none" stroke="#038183" stroke-miterlimit="10" stroke-width="7"/><path d="M391.94,84.68a17,17,0,0,0-11.43-4.08c-7.12.35-13.62,5.87-16.06,13.88a118.08,118.08,0,0,0,1.91,50.62,207.31,207.31,0,0,0,13.88,47.35q5.58,11.16,11.15,22.32Q391.67,149.73,391.94,84.68Z" transform="translate(-116.53 -54.51)" fill="none" stroke="#038183" stroke-miterlimit="10" stroke-width="7"/><path d="M159.71,156.32l-4.44.84a.74.74,0,0,1-.8-.47c-.05-.39.29-.81,1-1.25q3.93-2.34,5.79-3.62a46,46,0,0,0,5.38-4,23,23,0,0,0,4.14-7.29c.66-1.81,1.61-4.5,2.86-8.09a.93.93,0,0,1,1-.63q.66,0,.66.63.13,1.43-1.21,6.52a56.33,56.33,0,0,1-5.53,14.31,5,5,0,0,1-4,2.49C163.48,155.83,161.85,156,159.71,156.32Z" transform="translate(-116.53 -54.51)" fill="#008083"/><path d="M183.05,117.61c-.18.91-.36,2.24-.55,4q-.3,3.38-.37,9.31,0,6.81-.15,9.52a33.19,33.19,0,0,1-3.15,12.08c-.36.78-.69,1.17-1,1.17a.74.74,0,0,1-.44-.14c-.35-.2-.47-.65-.37-1.36q.59-2,1-10.11-.51-6.51-.36-14.61a63.85,63.85,0,0,1,4.21-10.07A.81.81,0,0,1,183.05,117.61Z" transform="translate(-116.53 -54.51)" fill="#008083"/><path d="M208,135.7h-.15q-2.49,5.31-6.15,7.51-1.28,4.5-1.79,5.93a21.29,21.29,0,0,1-2.93,5.46,9.32,9.32,0,0,1-4.07,1.43l-4.32.58c-2.71.52-4.26.77-4.65.77s-.4-.5-.4-1.06a35.28,35.28,0,0,1,6.95-3.83,33.84,33.84,0,0,0,7-3.9,3.28,3.28,0,0,0,1-3.37,2.09,2.09,0,0,0-1.06-1.28,29.22,29.22,0,0,1-3,0c-1.44-.53-2.28-1.23-2.52-2.09a4.53,4.53,0,0,1-.22-1.42,9.09,9.09,0,0,1,.66-3,29,29,0,0,0,1.06-2.93c.63-2.85,1.76-4.4,3.37-4.65,1.29-.19,2.44.43,3.44,1.87a12.75,12.75,0,0,1,1.72,6,5.78,5.78,0,0,0,3.15-2.31,11.25,11.25,0,0,0,1.5-6.15q.15-6.37.15-6.45.21-6.07.47-18.31a18.91,18.91,0,0,1,1.18-4.21c.8-2.05,1.3-3.42,1.5-4.1,0-.37.23-.53.55-.48s.46.23.36.55q-1,7.72-1.13,26.63,0,4.65,3.37,6.15a6.41,6.41,0,0,0,2.71.58,6.66,6.66,0,0,0,4.94-1.94l3.15-3.07a2.48,2.48,0,0,1,1.35-.44,5.46,5.46,0,0,1,2.15.66,5.37,5.37,0,0,0,2.07.66,2.13,2.13,0,0,0,1.2-.37,41,41,0,0,1,3.81-4.36c.44-.1.66.11.66.62l-.22,1a3.2,3.2,0,0,0,1.65,1.06,4,4,0,0,0,3.15-1.94c.22-.29.83-1.42,1.83-3.37a1.46,1.46,0,0,1,.73-.29,2,2,0,0,1,.22,1.57q-1.86,5.39-5.38,7.47c-1.51.91-2.82.88-3.92-.07a3.75,3.75,0,0,1-.8-.37c-.71.71-1.42,1.41-2.13,2.09a4.48,4.48,0,0,1-2.53,1.21,18.16,18.16,0,0,1-3.62-1.21,2.36,2.36,0,0,0-1.43.62q-3.58,5.76-3.81,6-2.7,3.44-5.93,3.44A5.58,5.58,0,0,1,208,135.7ZM220,109.81l5-5.89.44.14q1.83,1.5,5.49,4.43s.11.08.19.22.16.2.25.15l3.85-4.58c.39-.14.63-.14.73,0,1.15,1,3,2.53,5.42,4.43a.89.89,0,0,1,.15.88l-4.43,5.27a1.75,1.75,0,0,1-1,.3,15.17,15.17,0,0,1-2.79-1.43,27.44,27.44,0,0,1-3.07-3.3l-.29.22a49.24,49.24,0,0,1-3.67,4.21,5.37,5.37,0,0,1-2.56-.91,20.41,20.41,0,0,1-3.74-3.52Zm5.61-10.55v-.32c.51-.64,2.15-2.51,4.9-5.61h.3c1.15,1,2.89,2.41,5.23,4.21a.87.87,0,0,1,0,1.25,44.88,44.88,0,0,1-4.72,5C229.46,103.33,227.55,101.8,225.65,99.26Z" transform="translate(-116.53 -54.51)" fill="#008083"/><path d="M343.9,103.15l-14.76,7q-3.63,1.65-3.63,4.25-.08,5.92-.8,17.58-1,7.17-5.09,9a3.23,3.23,0,0,1-1.07.22,6.74,6.74,0,0,1-2.16-.62,4.2,4.2,0,0,0-2.49-.4,5.38,5.38,0,0,0-1.72,2.08c-.8,1.25-1.26,2-1.35,2.2q-3.22,5.46-6.23,7.11a41.42,41.42,0,0,1-12.52,4.21,87.21,87.21,0,0,1-15.75,1.57,55.71,55.71,0,0,1-9.52-.77c-3.3-.58-5.27-1.88-5.93-3.88a16.35,16.35,0,0,1-.52-4.28,75.22,75.22,0,0,1,.88-8.1,1.69,1.69,0,0,1,.7-.84c.49-.29.73-.11.73.55,0,1.15,0,2.32.07,3.52a3.27,3.27,0,0,0,1.51,2.93,30.65,30.65,0,0,0,9.44,1.79l10.07.29q13.89-.74,20.4-2.85,5.16-1.65,8.46-8.32a7.2,7.2,0,0,1,1.87-1.42,5.27,5.27,0,0,1,2.75.38,8.38,8.38,0,0,0,2.52.6,2.12,2.12,0,0,0,.81-.14,5.1,5.1,0,0,0,1.72-4v-4.66q0-9.81.77-12.89,2.52-6.43,5.86-8.56A84.86,84.86,0,0,1,340,101.06a108,108,0,0,0,11.17-5.42l.15.4a4.83,4.83,0,0,1-1.43,2.16,7.16,7.16,0,0,0-1.57,2.09Q347.67,101.43,343.9,103.15Zm-58.41,25.41q2.77-2,4-2a3.8,3.8,0,0,1,.77.07,2.22,2.22,0,0,1,1.47,1.15,4,4,0,0,1,.25,1.34,4.35,4.35,0,0,1-1.08,2.66q-1.08,1.36-2.1,2.61a4.47,4.47,0,0,1-3.11,1.47l-3.59.44a5.4,5.4,0,0,0-1.27.24,5.25,5.25,0,0,1-1.3.24,1.91,1.91,0,0,1-.91-.26c0-.49.35-.91,1.06-1.25a1.88,1.88,0,0,0,1.17-.82c.32-.45.62-.89.92-1.3a8.52,8.52,0,0,0,1.9-5.53v-6.15c.1-.3.75-1.53,1.94-3.7a.52.52,0,0,1,.59.26c-.1.73-.15,2.5-.15,5.3A18.8,18.8,0,0,1,285.49,128.56Zm3.73,1.65c-.1-.39-.52-.59-1.28-.59a3.83,3.83,0,0,0-2.73,1.69c-.77,1-1.48,2-2.14,3a18.9,18.9,0,0,0,4.43-1.35C288.84,132,289.42,131.06,289.22,130.21Z" transform="translate(-116.53 -54.51)" fill="#008083"/><path d="M337,159.21c.83-.83,1.31-1.24,1.46-1.24s.45.22.92.66a49.83,49.83,0,0,0,4.24,3.59,4.39,4.39,0,0,1,.74.69s.75-.79,2.12-2.31a15.1,15.1,0,0,1,2.2-2.27,3.68,3.68,0,0,1,1.1.81c1.14,1,2.51,2.17,4.1,3.44.36.29.56.49.58.59.08.27-.31.86-1.17,1.79l-3.92,4.14a7,7,0,0,1-3.55-1.94,12.89,12.89,0,0,1-2.64-2.89s-.17.12-.36.36a49.22,49.22,0,0,1-3.81,3.85.85.85,0,0,1-.62.07q-1.17-.23-4.1-3.15c-.88-.88-1.32-1.4-1.32-1.57s0-.22.07-.22Zm1,16.08a48.38,48.38,0,0,1,5.39-5.42,3,3,0,0,1,.84.73,48.28,48.28,0,0,0,4.36,4,.43.43,0,0,1,.07.44,6.93,6.93,0,0,1-1.5,1.72l-3.59,3.37a6.21,6.21,0,0,1-1.94-.88A18.61,18.61,0,0,1,338,175.29Z" transform="translate(-116.53 -54.51)" fill="#008083"/><path d="M350.79,142.92q.66.21.51,1.5a19.21,19.21,0,0,1-3.18,9.67,9.15,9.15,0,0,1-3.3,2.89q-4.14,1.54-6.19-2.78a17.26,17.26,0,0,1-1.35-4.87,96.28,96.28,0,0,1-.22-10.73q0-7.36,0-12.31l-.11-4.94.37-.7a13.13,13.13,0,0,1,2.45-3.7.45.45,0,0,1,.52,0,71.13,71.13,0,0,1-.19,8.61,109.32,109.32,0,0,0,0,13.07,25.5,25.5,0,0,0,1.13,6,6.05,6.05,0,0,0,2.31,3,3.75,3.75,0,0,0,4.06,0,4.83,4.83,0,0,0,1.8-2.13,5.08,5.08,0,0,0,.73-2.05A.85.85,0,0,1,350.79,142.92Z" transform="translate(-116.53 -54.51)" fill="#008083"/></svg>