<svg id="Layer_1" data-name="Layer 1" xmlns="http://www.w3.org/2000/svg" viewBox="0 0 270.17 404.06"><path d="M124.71,57.68c86.68,1.37,175.9-1.37,262.58,0,1.4,59-.33,122.07-.08,181q.45,107.39-1.64,214.77l-106.16.83a240.33,240.33,0,0,0-24.68-117.68c-26.21-52.54-64.47-80-72.42-85.58a217.24,217.24,0,0,0-56-28Q125.54,140.39,124.71,57.68Z" transform="translate(-121.17 -53.79)" fill="none" stroke="#038183" stroke-miterlimit="10" stroke-width="7"/><path d="M262.19,197.51l-4.43.84c-.44,0-.71-.15-.81-.47s.3-.81,1-1.25q3.91-2.34,5.78-3.62a45.92,45.92,0,0,0,5.39-4,23.2,23.2,0,0,0,4.14-7.29c.65-1.8,1.61-4.5,2.85-8.09a.93.93,0,0,1,1-.62c.44,0,.66.2.66.62.1,1-.31,3.12-1.21,6.52a56.42,56.42,0,0,1-5.53,14.32,5.07,5.07,0,0,1-4,2.49C266,197,264.34,197.22,262.19,197.51Z" transform="translate(-121.17 -53.79)" fill="#008083"/><path d="M285.53,158.8c-.17.91-.36,2.24-.55,4q-.3,3.36-.37,9.3,0,6.81-.14,9.52a33.49,33.49,0,0,1-3.15,12.08c-.37.79-.7,1.18-1,1.18a.78.78,0,0,1-.44-.15c-.34-.2-.47-.65-.37-1.36q.59-2,1-10.1-.51-6.53-.36-14.61a64.87,64.87,0,0,1,4.21-10.08A.81.81,0,0,1,285.53,158.8Z" transform="translate(-121.17 -53.79)" fill="#008083"/><path d="M310.44,176.9h-.15q-2.49,5.31-6.15,7.5c-.85,3-1.45,5-1.79,5.93a21,21,0,0,1-2.93,5.46,9.2,9.2,0,0,1-4.07,1.43l-4.32.59c-2.71.51-4.26.76-4.65.76s-.4-.5-.4-1.06a35.84,35.84,0,0,1,7-3.82,34.66,34.66,0,0,0,7-3.9,3.3,3.3,0,0,0,1-3.37,2.08,2.08,0,0,0-1.06-1.29,29,29,0,0,1-3,0c-1.44-.53-2.29-1.23-2.53-2.08a4.64,4.64,0,0,1-.22-1.43,9,9,0,0,1,.66-3,31,31,0,0,0,1.06-2.93c.63-2.86,1.76-4.41,3.37-4.65,1.29-.2,2.44.42,3.44,1.86a12.78,12.78,0,0,1,1.72,6,5.68,5.68,0,0,0,3.15-2.31,11.25,11.25,0,0,0,1.5-6.15q.15-6.37.15-6.45.22-6.08.48-18.31a18.43,18.43,0,0,1,1.17-4.21c.8-2,1.3-3.42,1.5-4.1.05-.37.23-.52.55-.48s.46.24.36.55q-1,7.74-1.13,26.63,0,4.65,3.37,6.15a6.45,6.45,0,0,0,2.71.59,6.7,6.7,0,0,0,4.94-1.94l3.15-3.08a2.59,2.59,0,0,1,1.36-.44,5.47,5.47,0,0,1,2.14.66,5.47,5.47,0,0,0,2.07.66,2.1,2.1,0,0,0,1.21-.37,38.76,38.76,0,0,1,3.81-4.36c.44-.09.65.11.65.63l-.21,1a3.14,3.14,0,0,0,1.64,1.06,4,4,0,0,0,3.15-1.94,38.31,38.31,0,0,0,1.83-3.37,1.49,1.49,0,0,1,.74-.29,2.16,2.16,0,0,1,.22,1.58q-1.87,5.37-5.39,7.47-2.26,1.35-3.92-.08a4.34,4.34,0,0,1-.8-.36c-.71.71-1.42,1.4-2.13,2.08a4.49,4.49,0,0,1-2.52,1.21,17.93,17.93,0,0,1-3.63-1.21,2.35,2.35,0,0,0-1.43.63q-3.58,5.75-3.81,6c-1.8,2.3-3.78,3.44-5.93,3.44A5.6,5.6,0,0,1,310.44,176.9ZM322.53,151l5-5.89.44.14c1.22,1,3.06,2.48,5.5,4.44,0,0,.11.07.18.22s.16.19.26.14l3.84-4.58c.39-.14.64-.14.73,0q1.72,1.58,5.42,4.44a.84.84,0,0,1,.15.87l-4.43,5.28a1.77,1.77,0,0,1-1,.29,15.64,15.64,0,0,1-2.78-1.43,27.88,27.88,0,0,1-3.08-3.29l-.29.22a48.46,48.46,0,0,1-3.66,4.21,5.42,5.42,0,0,1-2.57-.92,20.31,20.31,0,0,1-3.73-3.51Zm5.6-10.54v-.33q.76-1,4.91-5.61h.29c1.15,1,2.89,2.41,5.24,4.22a.88.88,0,0,1,0,1.24,44.31,44.31,0,0,1-4.73,5.05C331.94,144.52,330,143,328.13,140.46Z" transform="translate(-121.17 -53.79)" fill="#008083"/></svg>