<svg id="Layer_1" data-name="Layer 1" xmlns="http://www.w3.org/2000/svg" viewBox="0 0 449.21 415.76"><path d="M205.16,262.92h-.84c-3.59,0-6.08-.69-7.47-3.18a24.42,24.42,0,0,1-5.72,2.38,54.44,54.44,0,0,1-14.21,2.27c-5,0-9.33-.77-12.56-2.82a11.37,11.37,0,0,1-5.38-9.93,18.47,18.47,0,0,1,2.16-8.86l1.47.62a18,18,0,0,0-1.07,5.57,9.51,9.51,0,0,0,4.84,8.09c3,1.8,7.07,2.35,11.64,2.35a54.46,54.46,0,0,0,12.53-1.62,28.51,28.51,0,0,0,4.83-1.61l1.61-5.12,2.35-1.83.22.25a14.63,14.63,0,0,0-.85,4.1,3.73,3.73,0,0,0,1.25,3.26,6.88,6.88,0,0,0,4.54,1.39h.66Zm-26.95,8a33.51,33.51,0,0,1,4.39,3.92,14.52,14.52,0,0,1-3,3.59c-1.43-1.36-2.85-2.53-4.32-3.77C176.23,273.36,177.22,272.08,178.21,270.94Z" transform="translate(-104.55 -48.12)" fill="#008083"/><path d="M206,258.23c2.82,0,5.74-1.13,6.29-3.22l1.07-3.95,2.52-1.83.22.25a19.7,19.7,0,0,0-.8,4.25,3.64,3.64,0,0,0,1.21,3,6.83,6.83,0,0,0,4.54,1.46h.66v4.69h-.85c-3.58,0-6.29-1-7.54-3.73h-.15c-1.24,2.45-4.13,3.73-7.28,3.73h-.7a2.35,2.35,0,0,1-2.56-2.45,2.28,2.28,0,0,1,2.56-2.24Zm4.13,19.3c-1.5-1.42-2.82-2.6-4.28-3.81a34,34,0,0,1,2.89-3.47,35.18,35.18,0,0,1,4.18,3.91A19.21,19.21,0,0,1,210.1,277.53Zm7.07-.47c-1.5-1.43-2.82-2.6-4.28-3.81a33.12,33.12,0,0,1,2.89-3.48,34.48,34.48,0,0,1,4.18,3.92A19.59,19.59,0,0,1,217.17,277.06Z" transform="translate(-104.55 -48.12)" fill="#008083"/><path d="M223.91,258.23c5.93,0,12-2.08,19.55-6.62l0-.15A34.3,34.3,0,0,0,232,248.9a5.89,5.89,0,0,0-4.65,1.83l.44,1.83-1.1,3.29h-.36l-1.8-4.83c.3-4.06,3.55-6.59,7.95-6.59,2.45,0,6.3.88,12,3.18a18.17,18.17,0,0,0,6.26,1.18l3,0,.11.07-1.94,3.85a11.3,11.3,0,0,0-6.34,1.35l-6.11,4a28.59,28.59,0,0,1-15.86,4.91h-1.9a2.35,2.35,0,0,1-2.57-2.45,2.29,2.29,0,0,1,2.57-2.24Zm11.17,10.15a32.8,32.8,0,0,1,4.39,3.92,14.7,14.7,0,0,1-3,3.59c-1.42-1.36-2.85-2.53-4.32-3.78C233.1,270.79,234.09,269.51,235.08,268.38Z" transform="translate(-104.55 -48.12)" fill="#008083"/><path d="M280.86,262.92h-.7c-3.29,0-6-1.39-7.47-6h-.18a5.23,5.23,0,0,1-2.64,3.52,14.62,14.62,0,0,1-7.36,2.45c-4.1,0-6.37-2.49-6.37-6.77,0-.92,0-1.8.11-2.71l1.43-.11c.14,3,1.64,4.9,5.16,4.9a13,13,0,0,0,6-1.83c1.35-.77,2.38-1.86,2.38-2.74,0-2.49-1.32-7.36-3-13.63a45.72,45.72,0,0,1,2.6-3.77l.22.15c1.35,5.27,2.49,10.91,3.48,16.29.66,3.63,3,5.53,5.78,5.53h.63ZM260,229.45l.14-.22,3.85.15a7.73,7.73,0,0,0,.66-4c0-3.84-.48-5.93-.48-7,0-.88.81-1.65,1.68-2.6H266a11.73,11.73,0,0,0,1.5,4.06L266.21,221l.07,2.74a8,8,0,0,1-.36,2.46l.11.07c1.72-2.64,3.47-4.25,5.49-4.25a3.64,3.64,0,0,1,3.62,3.85,7.32,7.32,0,0,1-.62,2.67,5,5,0,0,1-2.45,2.67,13.84,13.84,0,0,1-5.94,1.14,21.93,21.93,0,0,1-2.74-.11Zm13.76-2.23a2.7,2.7,0,0,0-2.78-2.24c-2.2,0-4,1.8-5.64,4.36C269.72,229.23,272.8,228.57,273.71,227.22Z" transform="translate(-104.55 -48.12)" fill="#008083"/><path d="M281.66,258.23c2.82,0,5.75-1.13,6.3-3.22l1.06-3.95,2.53-1.83.22.25a19.88,19.88,0,0,0-.81,4.25,3.64,3.64,0,0,0,1.21,3,6.85,6.85,0,0,0,4.54,1.46h.66v4.69h-.84c-3.59,0-6.3-1-7.54-3.73h-.15c-1.24,2.45-4.14,3.73-7.29,3.73h-.69a2.35,2.35,0,0,1-2.57-2.45,2.29,2.29,0,0,1,2.57-2.24Zm4.14,19.3c-1.5-1.42-2.82-2.6-4.28-3.81a32.75,32.75,0,0,1,2.89-3.47,34.36,34.36,0,0,1,4.17,3.91A18.77,18.77,0,0,1,285.8,277.53Zm7.07-.47c-1.5-1.43-2.82-2.6-4.29-3.81a33.13,33.13,0,0,1,2.9-3.48,34.42,34.42,0,0,1,4.17,3.92A19.57,19.57,0,0,1,292.87,277.06Z" transform="translate(-104.55 -48.12)" fill="#008083"/><path d="M298,258.23c3.11,0,5.6-.11,7.21-.69,1.28-.48,2.09-1,2.09-1.61,0-1.72-1.76-5.31-3.67-9.05a30,30,0,0,1,2.75-4.14h.18c1.69,3,3.67,7.55,3.67,11.17a10.94,10.94,0,0,1-2.57,6.81c-1.64,1.65-4.24,2.2-9.85,2.2h-.44a2.35,2.35,0,0,1-2.56-2.45,2.28,2.28,0,0,1,2.56-2.24Zm11.9-23.36a17.7,17.7,0,0,1-1.43,2.49,37.64,37.64,0,0,0-9.52,2.75l-.07-.11.87-1.54a4.62,4.62,0,0,1,1.69-1.21v-.11c-1.72-.51-2.86-1.61-2.86-3.19a5,5,0,0,1,1.72-3.22,7,7,0,0,1,4.43-2.09c1.47,0,2.31.85,2.31,1.8a3.78,3.78,0,0,1-1.17,2.38h-.07c-.41-.81-.77-1.32-1.18-1.43a4.82,4.82,0,0,0-1.13-.11c-1.28,0-2.56.73-2.56,1.28,0,1.76,3.07,2.35,5.23,2.35,1.25,0,2.49-.08,3.74-.15Z" transform="translate(-104.55 -48.12)" fill="#008083"/><path d="M323.54,262.92h-.4c-2.9,0-4.76-.58-6.26-2.09-2.24-2.27-2.28-4.87-2.28-10.25,0-7-.4-14.25-1-22a33.87,33.87,0,0,1,3.44-3.4l.26.14c.59,8,.59,17.51.59,26.52v2.08a3.82,3.82,0,0,0,2.74,3.92,7.4,7.4,0,0,0,2.35.4h.51Z" transform="translate(-104.55 -48.12)" fill="#008083"/><path d="M353.06,247.25a42.23,42.23,0,0,1,.58,6.52,12.39,12.39,0,0,1-1.32,5c-1.39,2.31-3.29,4-5.42,4-1.57,0-3.26-1.17-4.57-3H342a8.55,8.55,0,0,1-6.41,3.15,3.14,3.14,0,0,1-3.51-3.11H332a9.79,9.79,0,0,1-7.8,3.11h-.62a2.35,2.35,0,0,1-2.56-2.45,2.28,2.28,0,0,1,2.56-2.24h1.24c3.34,0,6-.87,7.73-3.4l2-2.89,2.82-1,.14.18C336,253.47,335,255.3,335,256.4a1.75,1.75,0,0,0,1.91,1.83,5.82,5.82,0,0,0,3.26-1.06c1.28-.95,1.46-2,2.6-5.82l2.19-1.28.22.14a16.4,16.4,0,0,0-.47,3.59,3.94,3.94,0,0,0,3.8,4.21c1,0,1.95-.55,1.95-1.64a33,33,0,0,0-.92-5.94,28.47,28.47,0,0,1,3.3-3.29Z" transform="translate(-104.55 -48.12)" fill="#008083"/><circle cx="438.15" cy="47.15" r="11.06" fill="#008083"/><path d="M404,460.38H108.05V187.92c11.9-11.78,29.52-29.37,50.48-50.94C226.22,67.29,236.11,51.41,256,51.62c20.89.23,30,18,93.5,86.92,20.75,22.54,38.4,40.88,50.48,53.25q1,67.16,2,134.29Z" transform="translate(-104.55 -48.12)" fill="none" stroke="#008083" stroke-miterlimit="10" stroke-width="7"/><path d="M271.92,365.85a2.72,2.72,0,0,1-.11.86,1.55,1.55,0,0,1-.29.56,1,1,0,0,1-.4.31,1,1,0,0,1-.44.1h-24a.94.94,0,0,1-.43-.1,1.06,1.06,0,0,1-.38-.31,1.55,1.55,0,0,1-.29-.56,2.72,2.72,0,0,1-.11-.86,3.35,3.35,0,0,1,.09-.81,1.75,1.75,0,0,1,.26-.6,1.12,1.12,0,0,1,.38-.37.89.89,0,0,1,.48-.13h10.51V325.05l-10,6.12a2.89,2.89,0,0,1-.95.42.76.76,0,0,1-.59-.13,1,1,0,0,1-.29-.61,5.79,5.79,0,0,1-.07-1c0-.32,0-.59,0-.83a2.39,2.39,0,0,1,.15-.6,1.51,1.51,0,0,1,.28-.44,3.24,3.24,0,0,1,.42-.37l11.35-7.25a1.12,1.12,0,0,1,.29-.14,2.1,2.1,0,0,1,.44-.13,4.54,4.54,0,0,1,.55-.08h.7a6.48,6.48,0,0,1,1.06.07,3.69,3.69,0,0,1,.7.18.73.73,0,0,1,.36.3.77.77,0,0,1,.11.4v43h9a1,1,0,0,1,.49.13,1.21,1.21,0,0,1,.41.37,1.75,1.75,0,0,1,.25.6A3.35,3.35,0,0,1,271.92,365.85Z" transform="translate(-104.55 -48.12)" fill="none" stroke="#008083" stroke-miterlimit="10" stroke-width="6"/></svg>