<svg id="Layer_1" data-name="Layer 1" xmlns="http://www.w3.org/2000/svg" viewBox="0 0 173.67 429.93"><path d="M30.42,266.78,18.6,253.3a43.86,43.86,0,0,1-3.9-3.71c0-.39.26-.59.78-.59a18.59,18.59,0,0,1,8,4.5,63.08,63.08,0,0,1,6.44,7.08,70.09,70.09,0,0,0,6.25,7,64,64,0,0,0,7.52,6.64.78.78,0,0,1-.29,1Q37.11,274.49,30.42,266.78ZM42,266.29,31,254.08a42.25,42.25,0,0,0-9.82-8.49.55.55,0,0,1-.39-.78.94.94,0,0,1,.88-.64q3.42.74,9.62,4.3A107.19,107.19,0,0,1,45,262.38q11.08,13,12.79,14.8c.2.13.93.54,2.2,1.22a14,14,0,0,0-.49-1.81,18.66,18.66,0,0,1-.24-2.93q0-6.69,4.44-9.47a11.85,11.85,0,0,1,6.49-1.71,17.24,17.24,0,0,1,6.3,1.22q5.47,1.67,10.89,3.37,6.21,2.74,6.5,8.69c.13,3.1-1.31,5.44-4.3,7a3.86,3.86,0,0,1-1.9.69v.19q10,4.31,11.62,11a26.52,26.52,0,0,1,.68,5.52c0,3.12-.93,5.42-2.78,6.88-1.27,1.27-2.22,1.81-2.84,1.61l-.19-.48.49-3.13a15,15,0,0,0-5.84-1.56,63,63,0,0,0-8-.1l-8.1.39c-.69,0-1.89.07-3.62.2s-3.06.19-4,.19a13.52,13.52,0,0,1-6.5-1.32c-1.79-.58-4.39-1.61-7.81-3.07-.19-.2-.23-.33-.1-.39a12.13,12.13,0,0,1,3.91-.2c2.21.2,3.58.29,4.1.29l18.9-.48a34,34,0,0,1,17.09,3.76A16.12,16.12,0,0,0,95,298q-.09-7.82-5-10.3-3.9-2-10.79-2c-1,0-2.85,0-5.52.1a48.46,48.46,0,0,1-5.17.1q-5.82.3-17.19-.2-.2-.09-9.91-3.71a1.75,1.75,0,0,1-.83-.58c-.13-.39.27-.59,1.22-.59a50.45,50.45,0,0,0,5.81.49c1.4,0,3.27,0,5.61-.1,2.74-.06,4.66-.1,5.76-.1v-.29Q52.2,277.56,42,266.29Zm33.21.29q-4.59,2.3-4.59,7.82a8.66,8.66,0,0,0,2.68,6.68,3.86,3.86,0,0,0,2.59.3,6.45,6.45,0,0,0,4-2,8.9,8.9,0,0,0,2.44-3.85,5.79,5.79,0,0,0-1.12-5.37c-1.92-2.48-3.66-3.71-5.22-3.71A3.46,3.46,0,0,0,75.2,266.58Z" transform="translate(-14.7 -17.04)" fill="#008082"/><path d="M33.59,179.18l.83-.39q3.38.93,10.06,3a1.59,1.59,0,0,1,.83,1.36,9,9,0,0,0,.2,1.81q4.59,9.09,13.18,11.43a3.71,3.71,0,0,0,4.1-1.32,25.24,25.24,0,0,0,1.61-4.49,6.1,6.1,0,0,1,2.69-3.91,13.11,13.11,0,0,1,6.49-1.42c.88,0,2,.07,3.42.2,1.73.13,2.83.19,3.32.19A50,50,0,0,1,97.41,192a34.35,34.35,0,0,1,12.8,13,16.59,16.59,0,0,1,1.8,7.76,13.1,13.1,0,0,1-2.59,8.4q-6,7.53-19.43,7.62-10.89.11-31.3-6.4l-.29-.88c.26-.35,1-.53,2.2-.53q14.2,3.51,20.41,3.51,12.88,0,16.89-6.3a12.45,12.45,0,0,0,2-7q0-6.74-5.52-14.4-6.59-7.23-13-8-3.08-.39-4.2,1.51c-.46,1.73-1,3.45-1.52,5.18a6,6,0,0,1-3.46,3.78,14.83,14.83,0,0,1-5.33.91,34,34,0,0,1-7.37-1.08q-16.85-4-25-15.52a16.77,16.77,0,0,1-1.32-3.18A2.33,2.33,0,0,1,33.59,179.18Z" transform="translate(-14.7 -17.04)" fill="#008082"/><path d="M80.81,154.57q4.89.69,13,5.18a6.35,6.35,0,0,1,3,4.2q.63,2.49,1.32,5.12.59,1.91,1.7,5.76c0,.62-.19,1-.58,1.13s-1-.44-1.51-1.32q-2.4-4-4.69-8a52,52,0,0,0-5.72-7.47,4.17,4.17,0,0,0-3.32-.58,4.34,4.34,0,0,0-2,1.36,10.34,10.34,0,0,1,.2,1.91,6.27,6.27,0,0,1-2.49,5.42,4.91,4.91,0,0,1-2.49.68,9.43,9.43,0,0,1-3.52-.88,30.63,30.63,0,0,0-3.32-1.51c-1.17-.46-2.42-.9-3.76-1.32a5.46,5.46,0,0,1-2.88-2.88c-.42-2.21.47-4,2.69-5.32a16.87,16.87,0,0,1,8.79-2.2A23,23,0,0,1,80.81,154.57Z" transform="translate(-14.7 -17.04)" fill="#008082"/><path d="M184.87,410.49" transform="translate(-14.7 -17.04)" fill="none" stroke="#008083" stroke-miterlimit="10" stroke-width="7"/><path d="M135,410.49" transform="translate(-14.7 -17.04)" fill="none" stroke="#008083" stroke-miterlimit="10" stroke-width="7"/><line x1="116.72" y1="426.43" x2="173.59" y2="426.43" fill="none" stroke="#008083" stroke-miterlimit="10" stroke-width="7"/><path d="M-251.22,45.94" transform="translate(-14.7 -17.04)" fill="none" stroke="#008083" stroke-miterlimit="10" stroke-width="7"/><polyline points="170.17 426.43 170.17 3.5 120.28 3.5 120.28 426.43" fill="none" stroke="#008083" stroke-miterlimit="10" stroke-width="7"/><path d="M136.75,20.86c7.8,18.43,13.58,77.52,21.38,96,9.65-19.68,16.05-78.64,24.54-95.95Z" transform="translate(-14.7 -17.04)" fill="none" stroke="#008083" stroke-miterlimit="10" stroke-width="7"/><path d="M183.47,456.21" transform="translate(-14.7 -17.04)" fill="none" stroke="#008083" stroke-miterlimit="10" stroke-width="7"/><path d="M159.92,420.78" transform="translate(-14.7 -17.04)" fill="none" stroke="#008083" stroke-miterlimit="10" stroke-width="7"/><path d="M159.92,20.54" transform="translate(-14.7 -17.04)" fill="none" stroke="#008083" stroke-miterlimit="10" stroke-width="7"/></svg>