<svg id="Layer_1" data-name="Layer 1" xmlns="http://www.w3.org/2000/svg" viewBox="0 0 265.72 397.82"><path d="M127.61,57.29l256.17,4.05q2.07,87.15,2.43,174.29.44,105.8-1.62,211.59L280,448A236.67,236.67,0,0,0,255.69,332.1c-25.81-51.76-63.5-78.84-71.34-84.31a214,214,0,0,0-55.12-27.56Z" transform="translate(-124.07 -53.73)" fill="none" stroke="#038183" stroke-miterlimit="10" stroke-width="7"/><rect x="99.71" y="70.44" width="79.45" height="47.83" fill="none" stroke="#038183" stroke-miterlimit="10" stroke-width="7"/><line x1="96.2" y1="57.46" x2="182.09" y2="57.46" fill="none" stroke="#038183" stroke-miterlimit="10" stroke-width="7"/><rect x="99.71" y="34.77" width="79.45" height="9.73" fill="none" stroke="#038183" stroke-miterlimit="10" stroke-width="7"/><path d="M343.89,238.53a19.49,19.49,0,0,1-1.32,4.05,16.17,16.17,0,0,1-4.47,6.19,18.42,18.42,0,0,1-6.81,3.93,81.42,81.42,0,0,1-23.62,3.67,60.44,60.44,0,0,1-9.59-.74c-3.28-.51-5.37-1.63-6.3-3.37q-1.06-2.85-.63-8.27a37.67,37.67,0,0,1,1.21-5.46.68.68,0,0,1,.92-.14,3.67,3.67,0,0,1,.36,2.08,19.24,19.24,0,0,0,0,2.27,2.54,2.54,0,0,0,1.73,2.6,33.59,33.59,0,0,0,10.43,2l10.95.25q8.83-.69,11.39-1.06a33.61,33.61,0,0,0,10.33-3.15,10.72,10.72,0,0,0,4-4.65C343.22,238,343.69,237.92,343.89,238.53Zm-28.05,27.91h-.22c-.61.78-1.19,1.55-1.72,2.3a6.67,6.67,0,0,1-2.27,1.87,6.5,6.5,0,0,1-3.08-1.35c-.9-.73-1.79-1.48-2.67-2.24-.27-.39-.27-.72,0-1q.58-.89,4-5.1a1.6,1.6,0,0,1,1.38.53,4.27,4.27,0,0,0,1,.76,23.06,23.06,0,0,0,2.53,1.5,2,2,0,0,0,1.72,1,30.17,30.17,0,0,1,3.4-4.36c1.25.9,3.19,2.15,5.82,3.73a.76.76,0,0,1-.14.92,58.93,58.93,0,0,1-3.88,5.45A17.65,17.65,0,0,1,315.84,266.44Zm-.37,5.45h.73a13.31,13.31,0,0,1,2.6,1.73,17.58,17.58,0,0,0,2.49,1.72c.22.41.31.67.26.77-.9,1.14-2.31,2.77-4.21,4.87-.46.29-.82.31-1.06.07a19.17,19.17,0,0,1-4.95-3.66,13.67,13.67,0,0,1,2-2.82A27.06,27.06,0,0,0,315.47,271.89Z" transform="translate(-124.07 -53.73)" fill="#008083"/><path d="M350.46,254.65c-.91.19-2.38.47-4.43.84q-.66,0-.81-.48c-.05-.44.29-.85,1-1.24q2.85-1.83,5.71-3.63a43.16,43.16,0,0,0,5.45-4,25.4,25.4,0,0,0,4.14-7.29c.95-2.71,1.91-5.4,2.86-8.09a.94.94,0,0,1,1-.62c.44,0,.66.21.66.62.09,1-.31,3.13-1.21,6.52a56.42,56.42,0,0,1-5.53,14.32,5.46,5.46,0,0,1-4,2.49Zm11.68-29.48-.37-.15a31.1,31.1,0,0,1-4.72-4.65c-.1-.25,0-.57.35-1a6.3,6.3,0,0,0,.56-.75q1.29-1.36,3.81-3.81l.62.07a44.77,44.77,0,0,0,4.25,4.18l.15.4a.31.31,0,0,1,0,.44A61.87,61.87,0,0,1,362.14,225.17Z" transform="translate(-124.07 -53.73)" fill="#008083"/><path d="M283.53,357.4l-4.44.84a.73.73,0,0,1-.8-.48c-.05-.39.29-.8,1-1.24q3.93-2.34,5.79-3.63a44.89,44.89,0,0,0,5.38-4,23,23,0,0,0,4.14-7.28q1-2.71,2.86-8.1a.93.93,0,0,1,1-.62c.44,0,.66.21.66.62q.14,1.44-1.21,6.52a56.42,56.42,0,0,1-5.53,14.32,5,5,0,0,1-4,2.49C287.3,356.91,285.67,357.1,283.53,357.4Z" transform="translate(-124.07 -53.73)" fill="#008083"/><path d="M306.86,318.69q-.25,1.35-.54,4-.3,3.38-.37,9.3c0,4.54-.05,7.72-.15,9.52a33.19,33.19,0,0,1-3.15,12.09c-.36.78-.69,1.17-1,1.17a.75.75,0,0,1-.44-.15c-.35-.19-.47-.64-.37-1.35q.58-2,.95-10.11-.51-6.51-.37-14.61a64.61,64.61,0,0,1,4.22-10.07A.8.8,0,0,1,306.86,318.69Z" transform="translate(-124.07 -53.73)" fill="#008083"/><path d="M331.78,336.78h-.15q-2.49,5.31-6.15,7.51-1.28,4.5-1.79,5.93a21.29,21.29,0,0,1-2.93,5.46,9.37,9.37,0,0,1-4.07,1.42l-4.32.59c-2.71.51-4.26.77-4.65.77s-.4-.5-.4-1.06a35.28,35.28,0,0,1,6.95-3.83,33.84,33.84,0,0,0,7-3.9,3.28,3.28,0,0,0,1-3.37A2.06,2.06,0,0,0,321.2,345a29.22,29.22,0,0,1-3,0c-1.44-.54-2.28-1.23-2.52-2.09a4.59,4.59,0,0,1-.22-1.43,9.09,9.09,0,0,1,.66-3,30,30,0,0,0,1.06-2.93c.63-2.86,1.76-4.41,3.37-4.65,1.29-.2,2.44.43,3.44,1.87a12.71,12.71,0,0,1,1.72,6,5.7,5.7,0,0,0,3.15-2.3,11.31,11.31,0,0,0,1.5-6.16q.15-6.36.15-6.44.21-6.08.47-18.31a18.91,18.91,0,0,1,1.18-4.21q1.2-3.08,1.5-4.11c.05-.36.23-.52.55-.47s.46.23.36.55q-1,7.73-1.13,26.62,0,4.65,3.37,6.15a6.41,6.41,0,0,0,2.71.59,6.7,6.7,0,0,0,4.94-1.94l3.15-3.08a2.57,2.57,0,0,1,1.36-.44,5.47,5.47,0,0,1,2.14.66,5.37,5.37,0,0,0,2.07.66,2.17,2.17,0,0,0,1.21-.36,38.6,38.6,0,0,1,3.8-4.36c.44-.1.66.11.66.62l-.22,1a3.27,3.27,0,0,0,1.65,1.06,4,4,0,0,0,3.15-1.94c.22-.3.83-1.42,1.83-3.37a1.41,1.41,0,0,1,.73-.3,2.08,2.08,0,0,1,.22,1.58q-1.86,5.39-5.38,7.47-2.26,1.35-3.92-.07a4.62,4.62,0,0,1-.8-.37c-.71.71-1.42,1.41-2.13,2.09a4.55,4.55,0,0,1-2.52,1.21,18.68,18.68,0,0,1-3.63-1.21,2.36,2.36,0,0,0-1.43.62c-2.39,3.83-3.66,5.84-3.81,6q-2.7,3.44-5.93,3.44A5.6,5.6,0,0,1,331.78,336.78Zm12.08-25.89,5-5.9.44.15q1.83,1.5,5.49,4.43c.05,0,.11.07.19.22s.16.2.25.15l3.85-4.58c.39-.15.63-.15.73,0,1.15,1.05,3,2.52,5.42,4.43a.86.86,0,0,1,.15.88L361,315.94a1.74,1.74,0,0,1-1,.29,14.71,14.71,0,0,1-2.79-1.42,27.44,27.44,0,0,1-3.07-3.3l-.29.22a50.84,50.84,0,0,1-3.67,4.21,5.37,5.37,0,0,1-2.56-.91,21.12,21.12,0,0,1-3.74-3.52Zm5.61-10.55V300q.76-.94,4.91-5.6h.29c1.14,1,2.89,2.4,5.23,4.21.35.34.35.76,0,1.25a45.77,45.77,0,0,1-4.72,5.05C353.28,304.41,351.37,302.88,349.47,300.34Z" transform="translate(-124.07 -53.73)" fill="#008083"/></svg>